{
.appVersion = "1131";
copyright = "Copyright (c) 2018 by Cadson Demak Co.,Ltd.. All rights reserved.";
customParameters = (
{
name = vendorID;
value = CDK;
},
{
name = description;
value = "Copyright (c) 2018, Cadson Demak (info@cadsondemak.com)";
},
{
name = license;

glyphs = (
{
glyphname = A;
lastChange = "2018-05-14 08:08:01 +0000";
layers = (
{
anchors = (
{
name = bottom;
position = "{359, 0}";
},
{
name = ogonek;
position = "{642, 10}";
},
{
name = top;
position = "{359, 700}";
}
);
guideLines = (
{
position = "{793, 710}";
}
);
layerId = "0B1DFD06-3317-40CA-B510-4969A0718C16";
paths = (
{
closed = 1;
nodes = (
"123 -10 OFFCURVE",
"133 1 OFFCURVE",
"133 22 CURVE SMOOTH",
"133 270 LINE",
"585 270 LINE",
"585 22 LINE SMOOTH",
"585 1 OFFCURVE",
"595 -10 OFFCURVE",
"612 -10 CURVE SMOOTH",
"629 -10 OFFCURVE",
"638 1 OFFCURVE",
"638 22 CURVE SMOOTH",
"638 429 LINE SMOOTH",
"638 605 OFFCURVE",
"533 710 OFFCURVE",
"359 710 CURVE SMOOTH",
"184 710 OFFCURVE",
"80 606 OFFCURVE",
"80 429 CURVE SMOOTH",
"80 22 LINE SMOOTH",
"80 1 OFFCURVE",
"89 -10 OFFCURVE",
"106 -10 CURVE SMOOTH"
);
},
{
closed = 1;
nodes = (
"133 432 LINE SMOOTH",
"133 579 OFFCURVE",
"213 661 OFFCURVE",
"359 661 CURVE SMOOTH",
"504 661 OFFCURVE",
"585 578 OFFCURVE",
"585 432 CURVE SMOOTH",
"585 317 LINE",
"133 317 LINE"
);
}
);
width = 718;
},
{
anchors = (
{
name = bottom;
position = "{359, 0}";
},
{
name = ogonek;
position = "{623, 10}";
},
{
name = top;
position = "{359, 690}";
}
);
guideLines = (
{
position = "{786, 710}";
}
);
layerId = "258BB4CE-589F-454F-8E39-237B943AA0B4";
paths = (
{
closed = 1;
nodes = (
"151 -9 OFFCURVE",
"178 15 OFFCURVE",
"178 51 CURVE SMOOTH",
"178 214 LINE",
"540 214 LINE",
"540 51 LINE SMOOTH",
"540 15 OFFCURVE",
"567 -9 OFFCURVE",
"607 -9 CURVE SMOOTH",
"647 -9 OFFCURVE",
"673 14 OFFCURVE",
"673 51 CURVE SMOOTH",
"673 401 LINE SMOOTH",
"673 593 OFFCURVE",
"555 710 OFFCURVE",
"359 710 CURVE SMOOTH",
"162 710 OFFCURVE",
"45 594 OFFCURVE",
"45 401 CURVE SMOOTH",
"45 51 LINE SMOOTH",
"45 14 OFFCURVE",
"71 -9 OFFCURVE",
"111 -9 CURVE SMOOTH"
);
},
{
closed = 1;
nodes = (
"178 404 LINE SMOOTH",
"178 538 OFFCURVE",
"238 605 OFFCURVE",
"359 605 CURVE SMOOTH",
"479 605 OFFCURVE",
"540 537 OFFCURVE",
"540 404 CURVE SMOOTH",
"540 317 LINE",
"178 317 LINE"
);
}
);
width = 718;
},
{
anchors = (
{
name = bottom;
position = "{358, 0}";
},
{
name = ogonek;
position = "{633, 10}";
},
{
name = top;
position = "{358, 696}";
}
);
layerId = "8ED59CAD-D047-43C0-8308-3370007B39AA";
paths = (
{
closed = 1;
nodes = (
"134 -10 OFFCURVE",
"150 7 OFFCURVE",
"150 34 CURVE SMOOTH",
"150 248 LINE",
"566 248 LINE",
"566 34 LINE SMOOTH",
"566 7 OFFCURVE",
"582 -10 OFFCURVE",
"609 -10 CURVE SMOOTH",
"635 -10 OFFCURVE",
"651 6 OFFCURVE",
"651 34 CURVE SMOOTH",
"651 418 LINE SMOOTH",
"651 600 OFFCURVE",
"541 710 OFFCURVE",
"358 710 CURVE SMOOTH",
"174 710 OFFCURVE",
"65 601 OFFCURVE",
"65 418 CURVE SMOOTH",
"65 34 LINE SMOOTH",
"65 6 OFFCURVE",
"81 -10 OFFCURVE",
"107 -10 CURVE SMOOTH"
);
},
{
closed = 1;
nodes = (
"150 421 LINE SMOOTH",
"150 563 OFFCURVE",
"223 639 OFFCURVE",
"358 639 CURVE SMOOTH",
"493 639 OFFCURVE",
"566 562 OFFCURVE",
"566 421 CURVE SMOOTH",
"566 317 LINE",
"150 317 LINE"
);
}
);
width = 716;
},
{
anchors = (
{
name = bottom;
position = "{317, 0}";
},
{
name = ogonek;
position = "{602, 10}";
},
{
name = top;
position = "{440, 700}";
}
);
guideLines = (
{
position = "{942, 710}";
}
);
layerId = "6D0DA379-F071-4911-97B5-1F20F456FBFD";
paths = (
{
closed = 1;
nodes = (
"79 -10 OFFCURVE",
"91 1 OFFCURVE",
"95 22 CURVE SMOOTH",
"139 270 LINE",
"591 270 LINE",
"547 22 LINE SMOOTH",
"543 1 OFFCURVE",
"550 -10 OFFCURVE",
"568 -10 CURVE SMOOTH",
"585 -10 OFFCURVE",
"596 1 OFFCURVE",
"600 22 CURVE SMOOTH",
"672 429 LINE SMOOTH",
"703 602 OFFCURVE",
"613 710 OFFCURVE",
"439 710 CURVE SMOOTH",
"256 710 OFFCURVE",
"147 616 OFFCURVE",
"114 429 CURVE SMOOTH",
"42 22 LINE SMOOTH",
"38 1 OFFCURVE",
"45 -10 OFFCURVE",
"62 -10 CURVE SMOOTH"
);
},
{
closed = 1;
nodes = (
"167 432 LINE SMOOTH",
"194 586 OFFCURVE",
"282 661 OFFCURVE",
"434 661 CURVE SMOOTH",
"584 661 OFFCURVE",
"646 584 OFFCURVE",
"619 432 CURVE SMOOTH",
"599 317 LINE",
"147 317 LINE"
);
}
);
width = 718;
},
{
anchors = (
{
name = bottom;
position = "{317, 0}";
},
{
name = ogonek;
position = "{594, 10}";
},
{
name = top;
position = "{440, 696}";
}
);
layerId = "71BB0B28-5B77-4945-A3C0-334755DB3BD8";
paths = (
{
closed = 1;
nodes = (
"91 -10 OFFCURVE",
"110 7 OFFCURVE",
"115 34 CURVE SMOOTH",
"153 248 LINE",
"569 248 LINE",
"531 34 LINE SMOOTH",
"526 7 OFFCURVE",
"539 -10 OFFCURVE",
"566 -10 CURVE SMOOTH",
"592 -10 OFFCURVE",
"611 6 OFFCURVE",
"616 34 CURVE SMOOTH",
"684 418 LINE SMOOTH",
"715 596 OFFCURVE",
"619 710 OFFCURVE",
"437 710 CURVE SMOOTH",
"250 710 OFFCURVE",
"131 607 OFFCURVE",
"98 418 CURVE SMOOTH",
"30 34 LINE SMOOTH",
"25 6 OFFCURVE",
"38 -10 OFFCURVE",
"64 -10 CURVE SMOOTH"
);
},
{
closed = 1;
nodes = (
"183 421 LINE SMOOTH",
"208 563 OFFCURVE",
"295 639 OFFCURVE",
"430 639 CURVE SMOOTH",
"569 639 OFFCURVE",
"625 567 OFFCURVE",
"599 421 CURVE SMOOTH",
"581 317 LINE",
"165 317 LINE"
);
}
);
width = 717;
},
{
anchors = (
{
name = bottom;
position = "{318, 0}";
},
{
name = ogonek;
position = "{584, 10}";
},
{
name = top;
position = "{440, 690}";
}
);
guideLines = (
{
position = "{1656, 710}";
}
);
layerId = "D92B54DD-6BE9-4383-803D-42A15BF32189";
paths = (
{
closed = 1;
nodes = (
"108 -9 OFFCURVE",
"139 15 OFFCURVE",
"146 51 CURVE SMOOTH",
"175 214 LINE",
"537 214 LINE",
"508 51 LINE SMOOTH",
"501 15 OFFCURVE",
"524 -9 OFFCURVE",
"564 -9 CURVE SMOOTH",
"604 -9 OFFCURVE",
"634 14 OFFCURVE",
"641 51 CURVE SMOOTH",
"703 401 LINE SMOOTH",
"735 588 OFFCURVE",
"631 710 OFFCURVE",
"440 710 CURVE SMOOTH",
"240 710 OFFCURVE",
"110 601 OFFCURVE",
"75 401 CURVE SMOOTH",
"13 51 LINE SMOOTH",
"6 14 OFFCURVE",
"28 -9 OFFCURVE",
"68 -9 CURVE SMOOTH"
);
},
{
closed = 1;
nodes = (
"208 404 LINE SMOOTH",
"232 538 OFFCURVE",
"304 605 OFFCURVE",
"425 605 CURVE SMOOTH",
"549 605 OFFCURVE",
"595 541 OFFCURVE",
"570 404 CURVE SMOOTH",
"555 317 LINE",
"193 317 LINE"
);
}
);
width = 719;
}
);
leftKerningGroup = A;
note = A;
rightKerningGroup = A;
unicode = 0041;
},
{
glyphname = B;
lastChange = "2018-05-14 07:19:29 +0000";
layers = (
{
anchors = (
{
name = bottom;
position = "{353, 0}";
},
{
name = top;
position = "{353, 700}";
}
);
layerId = "0B1DFD06-3317-40CA-B510-4969A0718C16";
paths = (
{
closed = 1;
nodes = (
"448 0 LINE SMOOTH",
"573 0 OFFCURVE",
"650 76 OFFCURVE",
"650 198 CURVE SMOOTH",
"650 275 OFFCURVE",
"608 334 OFFCURVE",
"536 359 CURVE",
"536 361 LINE",
"603 389 OFFCURVE",
"638 440 OFFCURVE",
"638 510 CURVE SMOOTH",
"638 630 OFFCURVE",
"564 700 OFFCURVE",
"436 700 CURVE SMOOTH",
"196 700 LINE SMOOTH",
"123 700 OFFCURVE",
"80 659 OFFCURVE",
"80 590 CURVE SMOOTH",
"80 110 LINE SMOOTH",
"80 41 OFFCURVE",
"123 0 OFFCURVE",
"196 0 CURVE SMOOTH"
);
},
{
closed = 1;
nodes = (
"157 47 OFFCURVE",
"133 73 OFFCURVE",
"133 107 CURVE SMOOTH",
"133 335 LINE",
"446 335 LINE SMOOTH",
"539 335 OFFCURVE",
"596 283 OFFCURVE",
"596 198 CURVE SMOOTH",
"596 100 OFFCURVE",
"544 47 OFFCURVE",
"448 47 CURVE SMOOTH",
"190 47 LINE SMOOTH"
);
},
{
closed = 1;
nodes = (
"133 593 LINE SMOOTH",
"133 627 OFFCURVE",
"157 653 OFFCURVE",
"190 653 CURVE SMOOTH",
"436 653 LINE SMOOTH",
"533 653 OFFCURVE",
"584 603 OFFCURVE",
"584 510 CURVE SMOOTH",
"584 433 OFFCURVE",
"530 382 OFFCURVE",
"448 382 CURVE SMOOTH",
"133 382 LINE"
);
}
);
width = 705;
},
{
anchors = (
{
name = bottom;
position = "{361, 0}";
},
{
name = top;
position = "{361, 700}";
}
);
layerId = "258BB4CE-589F-454F-8E39-237B943AA0B4";
paths = (
{
closed = 1;
nodes = (
"446 -10 LINE SMOOTH",
"597 -10 OFFCURVE",
"688 71 OFFCURVE",
"688 205 CURVE SMOOTH",
"688 269 OFFCURVE",
"643 332 OFFCURVE",
"579 357 CURVE",
"579 358 LINE",
"636 384 OFFCURVE",
"676 444 OFFCURVE",
"676 506 CURVE SMOOTH",
"676 630 OFFCURVE",
"588 700 OFFCURVE",
"434 700 CURVE SMOOTH",
"203 700 LINE SMOOTH",
"107 700 OFFCURVE",
"50 645 OFFCURVE",
"50 552 CURVE SMOOTH",
"50 142 LINE SMOOTH",
"50 46 OFFCURVE",
"109 -10 OFFCURVE",
"210 -10 CURVE SMOOTH"
);
},
{
closed = 1;
nodes = (
"197 92 OFFCURVE",
"181 110 OFFCURVE",
"181 141 CURVE SMOOTH",
"181 304 LINE",
"434 304 LINE SMOOTH",
"509 304 OFFCURVE",
"554 266 OFFCURVE",
"554 203 CURVE SMOOTH",
"554 129 OFFCURVE",
"514 92 OFFCURVE",
"434 92 CURVE SMOOTH",
"224 92 LINE SMOOTH"
);
},
{
closed = 1;
nodes = (
"181 549 LINE SMOOTH",
"181 580 OFFCURVE",
"197 598 OFFCURVE",
"224 598 CURVE SMOOTH",
"434 598 LINE SMOOTH",
"506 598 OFFCURVE",
"542 567 OFFCURVE",
"542 505 CURVE SMOOTH",
"542 442 OFFCURVE",
"502 405 OFFCURVE",
"434 405 CURVE SMOOTH",
"181 405 LINE"
);
}
);
width = 728;
},
{
anchors = (
{
name = bottom;
position = "{358, 0}";
},
{
name = top;
position = "{358, 700}";
}
);
layerId = "8ED59CAD-D047-43C0-8308-3370007B39AA";
paths = (
{
closed = 1;
nodes = (
"449 -4 LINE SMOOTH",
"584 -4 OFFCURVE",
"667 74 OFFCURVE",
"667 201 CURVE SMOOTH",
"667 273 OFFCURVE",
"624 333 OFFCURVE",
"555 358 CURVE",
"555 360 LINE",
"618 387 OFFCURVE",
"655 442 OFFCURVE",
"655 508 CURVE SMOOTH",
"655 630 OFFCURVE",
"576 700 OFFCURVE",
"437 700 CURVE SMOOTH",
"201 700 LINE SMOOTH",
"119 700 OFFCURVE",
"70 653 OFFCURVE",
"70 575 CURVE SMOOTH",
"70 123 LINE SMOOTH",
"70 43 OFFCURVE",
"119 -4 OFFCURVE",
"204 -4 CURVE SMOOTH"
);
},
{
closed = 1;
nodes = (
"175 65 OFFCURVE",
"154 88 OFFCURVE",
"154 121 CURVE SMOOTH",
"154 323 LINE",
"443 323 LINE SMOOTH",
"529 323 OFFCURVE",
"581 277 OFFCURVE",
"581 200 CURVE SMOOTH",
"581 112 OFFCURVE",
"534 65 OFFCURVE",
"444 65 CURVE SMOOTH",
"206 65 LINE SMOOTH"
);
},
{
closed = 1;
nodes = (
"154 575 LINE SMOOTH",
"154 608 OFFCURVE",
"175 631 OFFCURVE",
"206 631 CURVE SMOOTH",
"437 631 LINE SMOOTH",
"524 631 OFFCURVE",
"569 589 OFFCURVE",
"569 508 CURVE SMOOTH",
"569 436 OFFCURVE",
"521 391 OFFCURVE",
"444 391 CURVE SMOOTH",
"154 391 LINE"
);
}
);
width = 712;
},
{
anchors = (
{
name = bottom;
position = "{312, 0}";
},
{
name = top;
position = "{435, 700}";
}
);
layerId = "6D0DA379-F071-4911-97B5-1F20F456FBFD";
paths = (
{
closed = 1;
nodes = (
"410 0 LINE SMOOTH",
"547 0 OFFCURVE",
"647 98 OFFCURVE",
"647 231 CURVE SMOOTH",
"647 290 OFFCURVE",
"616 334 OFFCURVE",
"558 355 CURVE",
"558 356 LINE",
"641 388 OFFCURVE",
"691 462 OFFCURVE",
"691 552 CURVE SMOOTH",
"691 646 OFFCURVE",
"627 700 OFFCURVE",
"518 700 CURVE SMOOTH",
"278 700 LINE SMOOTH",
"203 700 OFFCURVE",
"155 661 OFFCURVE",
"143 590 CURVE SMOOTH",
"58 110 LINE SMOOTH",
"49 39 OFFCURVE",
"84 0 OFFCURVE",
"155 0 CURVE SMOOTH"
);
},
{
closed = 1;
nodes = (
"119 47 OFFCURVE",
"104 66 OFFCURVE",
"111 107 CURVE SMOOTH",
"151 335 LINE",
"464 335 LINE SMOOTH",
"546 335 OFFCURVE",
"593 296 OFFCURVE",
"593 228 CURVE SMOOTH",
"593 121 OFFCURVE",
"520 47 OFFCURVE",
"415 47 CURVE SMOOTH",
"157 47 LINE SMOOTH"
);
},
{
closed = 1;
nodes = (
"197 593 LINE SMOOTH",
"203 627 OFFCURVE",
"231 653 OFFCURVE",
"264 653 CURVE SMOOTH",
"510 653 LINE SMOOTH",
"599 653 OFFCURVE",
"637 623 OFFCURVE",
"637 555 CURVE SMOOTH",
"637 450 OFFCURVE",
"572 382 OFFCURVE",
"474 382 CURVE SMOOTH",
"159 382 LINE"
);
}
);
width = 706;
},
{
anchors = (
{
name = bottom;
position = "{317, 0}";
},
{
name = top;
position = "{440, 700}";
}
);
layerId = "71BB0B28-5B77-4945-A3C0-334755DB3BD8";
paths = (
{
closed = 1;
nodes = (
"411 -4 LINE SMOOTH",
"555 -4 OFFCURVE",
"664 97 OFFCURVE",
"664 230 CURVE SMOOTH",
"664 285 OFFCURVE",
"633 329 OFFCURVE",
"577 354 CURVE",
"577 356 LINE",
"656 386 OFFCURVE",
"707 461 OFFCURVE",
"707 545 CURVE SMOOTH",
"707 642 OFFCURVE",
"636 700 OFFCURVE",
"519 700 CURVE SMOOTH",
"279 700 LINE SMOOTH",
"198 700 OFFCURVE",
"144 655 OFFCURVE",
"130 575 CURVE SMOOTH",
"51 123 LINE SMOOTH",
"35 50 OFFCURVE",
"82 -4 OFFCURVE",
"162 -4 CURVE SMOOTH"
);
},
{
closed = 1;
nodes = (
"146 65 OFFCURVE",
"127 91 OFFCURVE",
"134 121 CURVE SMOOTH",
"170 323 LINE",
"459 323 LINE SMOOTH",
"534 323 OFFCURVE",
"577 288 OFFCURVE",
"577 226 CURVE SMOOTH",
"577 129 OFFCURVE",
"512 65 OFFCURVE",
"414 65 CURVE SMOOTH",
"176 65 LINE SMOOTH"
);
},
{
closed = 1;
nodes = (
"214 575 LINE SMOOTH",
"220 608 OFFCURVE",
"245 631 OFFCURVE",
"276 631 CURVE SMOOTH",
"507 631 LINE SMOOTH",
"582 631 OFFCURVE",
"621 600 OFFCURVE",
"621 539 CURVE SMOOTH",
"621 451 OFFCURVE",
"560 391 OFFCURVE",
"472 391 CURVE SMOOTH",
"182 391 LINE"
);
}
);
width = 712;
},
{
anchors = (
{
name = bottom;
position = "{320, 0}";
},
{
name = top;
position = "{443, 700}";
}
);
layerId = "D92B54DD-6BE9-4383-803D-42A15BF32189";
paths = (
{
closed = 1;
nodes = (
"403 -10 LINE SMOOTH",
"572 -10 OFFCURVE",
"685 85 OFFCURVE",
"685 229 CURVE SMOOTH",
"685 285 OFFCURVE",
"652 335 OFFCURVE",
"601 357 CURVE",
"601 358 LINE",
"675 389 OFFCURVE",
"727 464 OFFCURVE",
"727 541 CURVE SMOOTH",
"727 639 OFFCURVE",
"646 700 OFFCURVE",
"516 700 CURVE SMOOTH",
"285 700 LINE SMOOTH",
"181 700 OFFCURVE",
"124 653 OFFCURVE",
"106 552 CURVE SMOOTH",
"34 142 LINE SMOOTH",
"17 55 OFFCURVE",
"74 -10 OFFCURVE",
"167 -10 CURVE SMOOTH"
);
},
{
closed = 1;
nodes = (
"173 92 OFFCURVE",
"159 111 OFFCURVE",
"165 141 CURVE SMOOTH",
"194 304 LINE",
"447 304 LINE SMOOTH",
"513 304 OFFCURVE",
"551 274 OFFCURVE",
"551 224 CURVE SMOOTH",
"551 144 OFFCURVE",
"495 92 OFFCURVE",
"409 92 CURVE SMOOTH",
"199 92 LINE SMOOTH"
);
},
{
closed = 1;
nodes = (
"237 549 LINE SMOOTH",
"242 580 OFFCURVE",
"261 598 OFFCURVE",
"288 598 CURVE SMOOTH",
"498 598 LINE SMOOTH",
"561 598 OFFCURVE",
"592 574 OFFCURVE",
"592 527 CURVE SMOOTH",
"592 454 OFFCURVE",
"540 405 OFFCURVE",
"464 405 CURVE SMOOTH",
"211 405 LINE"
);
}
);
width = 728;
}
);
leftKerningGroup = B;
note = B;
rightKerningGroup = B;
unicode = 0042;
},
{
glyphname = C;
lastChange = "2018-05-14 07:21:24 +0000";
layers = (
{
anchors = (
{
name = bottom;
position = "{396, 0}";
},
{
name = top;
position = "{396, 700}";
}
);
layerId = "0B1DFD06-3317-40CA-B510-4969A0718C16";
paths = (
{
closed = 1;
nodes = (
"509 -10 OFFCURVE",
"616 31 OFFCURVE",
"669 97 CURVE SMOOTH",
"678 108 OFFCURVE",
"678 123 OFFCURVE",
"667 133 CURVE SMOOTH",
"656 143 OFFCURVE",
"637 140 OFFCURVE",
"628 128 CURVE SMOOTH",
"586 71 OFFCURVE",
"501 39 OFFCURVE",
"394 39 CURVE SMOOTH",
"218 39 OFFCURVE",
"109 157 OFFCURVE",
"109 349 CURVE SMOOTH",
"109 541 OFFCURVE",
"218 661 OFFCURVE",
"394 661 CURVE SMOOTH",
"492 661 OFFCURVE",
"577 628 OFFCURVE",
"618 572 CURVE SMOOTH",
"626 561 OFFCURVE",
"644 558 OFFCURVE",
"657 567 CURVE SMOOTH",
"668 574 OFFCURVE",
"669 591 OFFCURVE",
"659 603 CURVE SMOOTH",
"604 670 OFFCURVE",
"506 710 OFFCURVE",
"394 710 CURVE SMOOTH",
"191 710 OFFCURVE",
"55 565 OFFCURVE",
"55 349 CURVE SMOOTH",
"55 134 OFFCURVE",
"191 -10 OFFCURVE",
"394 -10 CURVE SMOOTH"
);
}
);
width = 731;
},
{
anchors = (
{
name = bottom;
position = "{407, 0}";
},
{
name = top;
position = "{421, 690}";
}
);
layerId = "258BB4CE-589F-454F-8E39-237B943AA0B4";
paths = (
{
closed = 1;
nodes = (
"539 -10 OFFCURVE",
"650 33 OFFCURVE",
"708 107 CURVE SMOOTH",
"729 134 OFFCURVE",
"725 164 OFFCURVE",
"698 186 CURVE SMOOTH",
"672 206 OFFCURVE",
"640 200 OFFCURVE",
"608 169 CURVE SMOOTH",
"557 119 OFFCURVE",
"491 95 OFFCURVE",
"407 95 CURVE SMOOTH",
"261 95 OFFCURVE",
"174 189 OFFCURVE",
"174 349 CURVE SMOOTH",
"174 510 OFFCURVE",
"260 605 OFFCURVE",
"405 605 CURVE SMOOTH",
"492 605 OFFCURVE",
"549 583 OFFCURVE",
"594 531 CURVE SMOOTH",
"616 506 OFFCURVE",
"656 498 OFFCURVE",
"679 515 CURVE SMOOTH",
"708 536 OFFCURVE",
"714 565 OFFCURVE",
"694 593 CURVE SMOOTH",
"643 664 OFFCURVE",
"529 710 OFFCURVE",
"405 710 CURVE SMOOTH",
"179 710 OFFCURVE",
"40 572 OFFCURVE",
"40 349 CURVE SMOOTH",
"40 126 OFFCURVE",
"179 -10 OFFCURVE",
"407 -10 CURVE SMOOTH"
);
}
);
width = 761;
},
{
anchors = (
{
name = bottom;
position = "{396, 0}";
},
{
name = top;
position = "{402, 696}";
}
);
layerId = "8ED59CAD-D047-43C0-8308-3370007B39AA";
paths = (
{
closed = 1;
nodes = (
"518 -10 OFFCURVE",
"626 32 OFFCURVE",
"681 101 CURVE SMOOTH",
"695 119 OFFCURVE",
"692 140 OFFCURVE",
"675 154 CURVE SMOOTH",
"659 168 OFFCURVE",
"635 164 OFFCURVE",
"616 144 CURVE SMOOTH",
"571 90 OFFCURVE",
"493 61 OFFCURVE",
"395 61 CURVE SMOOTH",
"231 61 OFFCURVE",
"131 170 OFFCURVE",
"131 349 CURVE SMOOTH",
"131 529 OFFCURVE",
"231 639 OFFCURVE",
"394 639 CURVE SMOOTH",
"488 639 OFFCURVE",
"561 610 OFFCURVE",
"604 556 CURVE SMOOTH",
"618 539 OFFCURVE",
"645 534 OFFCURVE",
"662 546 CURVE SMOOTH",
"680 559 OFFCURVE",
"683 581 OFFCURVE",
"669 599 CURVE SMOOTH",
"616 668 OFFCURVE",
"511 710 OFFCURVE",
"394 710 CURVE SMOOTH",
"182 710 OFFCURVE",
"45 568 OFFCURVE",
"45 349 CURVE SMOOTH",
"45 131 OFFCURVE",
"182 -10 OFFCURVE",
"395 -10 CURVE SMOOTH"
);
}
);
width = 735;
},
{
anchors = (
{
name = bottom;
position = "{354, 0}";
},
{
name = top;
position = "{477, 700}";
}
);
layerId = "6D0DA379-F071-4911-97B5-1F20F456FBFD";
paths = (
{
closed = 1;
nodes = (
"466 -10 OFFCURVE",
"579 31 OFFCURVE",
"644 97 CURVE SMOOTH",
"651 104 OFFCURVE",
"654 111 OFFCURVE",
"654 118 CURVE SMOOTH",
"654 130 OFFCURVE",
"645 139 OFFCURVE",
"633 139 CURVE SMOOTH",
"624 139 OFFCURVE",
"615 135 OFFCURVE",
"609 128 CURVE SMOOTH",
"554 70 OFFCURVE",
"467 39 OFFCURVE",
"359 39 CURVE SMOOTH",
"206 39 OFFCURVE",
"121 121 OFFCURVE",
"121 267 CURVE SMOOTH",
"121 499 OFFCURVE",
"264 661 OFFCURVE",
"469 661 CURVE SMOOTH",
"578 661 OFFCURVE",
"642 634 OFFCURVE",
"677 572 CURVE SMOOTH",
"681 566 OFFCURVE",
"688 562 OFFCURVE",
"698 562 CURVE SMOOTH",
"715 562 OFFCURVE",
"727 574 OFFCURVE",
"727 589 CURVE SMOOTH",
"727 595 OFFCURVE",
"726 599 OFFCURVE",
"723 603 CURVE SMOOTH",
"681 670 OFFCURVE",
"589 710 OFFCURVE",
"477 710 CURVE SMOOTH",
"240 710 OFFCURVE",
"68 525 OFFCURVE",
"68 271 CURVE SMOOTH",
"68 99 OFFCURVE",
"177 -10 OFFCURVE",
"350 -10 CURVE SMOOTH"
);
}
);
width = 730;
},
{
anchors = (
{
name = bottom;
position = "{354, 0}";
},
{
name = top;
position = "{483, 696}";
}
);
layerId = "71BB0B28-5B77-4945-A3C0-334755DB3BD8";
paths = (
{
closed = 1;
nodes = (
"474 -10 OFFCURVE",
"590 32 OFFCURVE",
"657 101 CURVE SMOOTH",
"666 111 OFFCURVE",
"671 121 OFFCURVE",
"671 131 CURVE SMOOTH",
"671 147 OFFCURVE",
"656 162 OFFCURVE",
"640 162 CURVE SMOOTH",
"627 162 OFFCURVE",
"613 156 OFFCURVE",
"599 144 CURVE SMOOTH",
"545 90 OFFCURVE",
"462 61 OFFCURVE",
"364 61 CURVE SMOOTH",
"220 61 OFFCURVE",
"143 134 OFFCURVE",
"143 270 CURVE SMOOTH",
"143 480 OFFCURVE",
"282 639 OFFCURVE",
"465 639 CURVE SMOOTH",
"564 639 OFFCURVE",
"625 613 OFFCURVE",
"660 556 CURVE SMOOTH",
"667 546 OFFCURVE",
"679 539 OFFCURVE",
"693 539 CURVE SMOOTH",
"715 539 OFFCURVE",
"738 560 OFFCURVE",
"738 581 CURVE SMOOTH",
"738 586 OFFCURVE",
"736 592 OFFCURVE",
"733 599 CURVE",
"691 668 OFFCURVE",
"594 710 OFFCURVE",
"477 710 CURVE SMOOTH",
"233 710 OFFCURVE",
"58 526 OFFCURVE",
"58 271 CURVE SMOOTH",
"58 99 OFFCURVE",
"171 -10 OFFCURVE",
"351 -10 CURVE SMOOTH"
);
}
);
width = 734;
},
{
anchors = (
{
name = bottom;
position = "{365, 0}";
},
{
name = top;
position = "{501, 690}";
}
);
layerId = "D92B54DD-6BE9-4383-803D-42A15BF32189";
paths = (
{
closed = 1;
nodes = (
"504 -10 OFFCURVE",
"611 30 OFFCURVE",
"685 107 CURVE SMOOTH",
"698 120 OFFCURVE",
"705 135 OFFCURVE",
"705 150 CURVE SMOOTH",
"705 176 OFFCURVE",
"684 198 OFFCURVE",
"659 198 CURVE SMOOTH",
"640 198 OFFCURVE",
"619 188 OFFCURVE",
"596 169 CURVE SMOOTH",
"536 119 OFFCURVE",
"467 95 OFFCURVE",
"382 95 CURVE SMOOTH",
"253 95 OFFCURVE",
"186 157 OFFCURVE",
"186 276 CURVE SMOOTH",
"186 472 OFFCURVE",
"301 605 OFFCURVE",
"470 605 CURVE SMOOTH",
"557 605 OFFCURVE",
"609 583 OFFCURVE",
"646 531 CURVE SMOOTH",
"656 516 OFFCURVE",
"676 506 OFFCURVE",
"696 506 CURVE SMOOTH",
"730 506 OFFCURVE",
"763 537 OFFCURVE",
"763 569 CURVE SMOOTH",
"763 577 OFFCURVE",
"761 585 OFFCURVE",
"757 593 CURVE SMOOTH",
"719 662 OFFCURVE",
"606 710 OFFCURVE",
"480 710 CURVE SMOOTH",
"224 710 OFFCURVE",
"53 537 OFFCURVE",
"53 279 CURVE SMOOTH",
"53 104 OFFCURVE",
"178 -10 OFFCURVE",
"370 -10 CURVE SMOOTH"
);
}
);
width = 761;
}
);
leftKerningGroup = C;
note = C;
rightKerningGroup = C;
unicode = 0043;
},
{
glyphname = D;
lastChange = "2018-05-14 09:49:29 +0000";
layers = (
{
anchors = (
{
name = bottom;
position = "{362, 0}";
},
{
name = center;
position = "{362, 350}";
},
{
name = top;
position = "{332, 700}";
}
);
layerId = "0B1DFD06-3317-40CA-B510-4969A0718C16";
paths = (
{
closed = 1;
nodes = (
"337 0 LINE SMOOTH",
"538 0 OFFCURVE",
"669 138 OFFCURVE",
"669 349 CURVE SMOOTH",
"669 561 OFFCURVE",
"537 700 OFFCURVE",
"337 700 CURVE SMOOTH",
"196 700 LINE",
"123 700 OFFCURVE",
"80 659 OFFCURVE",
"80 590 CURVE SMOOTH",
"80 110 LINE SMOOTH",
"80 41 OFFCURVE",
"123 0 OFFCURVE",
"196 0 CURVE SMOOTH"
);
},
{
closed = 1;
nodes = (
"155 47 OFFCURVE",
"133 71 OFFCURVE",
"133 107 CURVE SMOOTH",
"133 593 LINE SMOOTH",
"133 629 OFFCURVE",
"155 653 OFFCURVE",
"190 653 CURVE SMOOTH",
"327 653 LINE SMOOTH",
"506 653 OFFCURVE",
"615 538 OFFCURVE",
"615 349 CURVE SMOOTH",
"615 160 OFFCURVE",
"507 47 OFFCURVE",
"327 47 CURVE SMOOTH",
"190 47 LINE"
);
}
);
width = 724;
},
{
anchors = (
{
name = bottom;
position = "{378, 0}";
},
{
name = center;
position = "{378, 350}";
},
{
name = top;
position = "{358, 690}";
}
);
layerId = "258BB4CE-589F-454F-8E39-237B943AA0B4";
paths = (
{
closed = 1;
nodes = (
"343 0 LINE SMOOTH",
"576 0 OFFCURVE",
"715 130 OFFCURVE",
"715 349 CURVE SMOOTH",
"715 568 OFFCURVE",
"575 700 OFFCURVE",
"343 700 CURVE SMOOTH",
"203 700 LINE SMOOTH",
"107 700 OFFCURVE",
"50 645 OFFCURVE",
"50 552 CURVE SMOOTH",
"50 152 LINE SMOOTH",
"50 56 OFFCURVE",
"109 0 OFFCURVE",
"210 0 CURVE SMOOTH"
);
},
{
closed = 1;
nodes = (
"199 103 OFFCURVE",
"183 121 OFFCURVE",
"183 152 CURVE SMOOTH",
"183 548 LINE SMOOTH",
"183 579 OFFCURVE",
"199 597 OFFCURVE",
"226 597 CURVE SMOOTH",
"333 597 LINE SMOOTH",
"499 597 OFFCURVE",
"580 515 OFFCURVE",
"580 349 CURVE SMOOTH",
"580 183 OFFCURVE",
"500 103 OFFCURVE",
"333 103 CURVE SMOOTH",
"226 103 LINE SMOOTH"
);
}
);
width = 755;
},
{
anchors = (
{
name = bottom;
position = "{370, 0}";
},
{
name = center;
position = "{370, 350}";
},
{
name = top;
position = "{340, 696}";
}
);
layerId = "8ED59CAD-D047-43C0-8308-3370007B39AA";
paths = (
{
closed = 1;
nodes = (
"341 0 LINE SMOOTH",
"555 0 OFFCURVE",
"689 134 OFFCURVE",
"689 349 CURVE SMOOTH",
"689 564 OFFCURVE",
"554 700 OFFCURVE",
"341 700 CURVE SMOOTH",
"201 700 LINE",
"119 700 OFFCURVE",
"70 653 OFFCURVE",
"70 575 CURVE SMOOTH",
"70 127 LINE SMOOTH",
"70 47 OFFCURVE",
"119 0 OFFCURVE",
"204 0 CURVE SMOOTH"
);
},
{
closed = 1;
nodes = (
"175 69 OFFCURVE",
"155 91 OFFCURVE",
"155 125 CURVE SMOOTH",
"155 575 LINE SMOOTH",
"155 609 OFFCURVE",
"175 631 OFFCURVE",
"206 631 CURVE SMOOTH",
"331 631 LINE SMOOTH",
"505 631 OFFCURVE",
"603 529 OFFCURVE",
"603 349 CURVE SMOOTH",
"603 169 OFFCURVE",
"506 69 OFFCURVE",
"331 69 CURVE SMOOTH",
"206 69 LINE"
);
}
);
width = 734;
},
{
anchors = (
{
name = bottom;
position = "{321, 0}";
},
{
name = center;
position = "{383, 350}";
},
{
name = top;
position = "{414, 700}";
}
);
layerId = "6D0DA379-F071-4911-97B5-1F20F456FBFD";
paths = (
{
closed = 1;
nodes = (
"301 0 LINE SMOOTH",
"529 0 OFFCURVE",
"698 183 OFFCURVE",
"698 430 CURVE SMOOTH",
"698 595 OFFCURVE",
"589 700 OFFCURVE",
"417 700 CURVE SMOOTH",
"278 700 LINE SMOOTH",
"202 700 OFFCURVE",
"156 663 OFFCURVE",
"143 590 CURVE SMOOTH",
"58 110 LINE SMOOTH",
"48 41 OFFCURVE",
"85 0 OFFCURVE",
"155 0 CURVE SMOOTH"
);
},
{
closed = 1;
nodes = (
"123 47 OFFCURVE",
"104 72 OFFCURVE",
"111 107 CURVE SMOOTH",
"197 593 LINE SMOOTH",
"203 629 OFFCURVE",
"229 653 OFFCURVE",
"264 653 CURVE SMOOTH",
"401 653 LINE SMOOTH",
"560 653 OFFCURVE",
"643 577 OFFCURVE",
"643 432 CURVE SMOOTH",
"643 198 OFFCURVE",
"506 47 OFFCURVE",
"294 47 CURVE SMOOTH",
"157 47 LINE"
);
}
);
width = 725;
},
{
anchors = (
{
name = bottom;
position = "{329, 0}";
},
{
name = center;
position = "{391, 350}";
},
{
name = top;
position = "{422, 696}";
}
);
layerId = "71BB0B28-5B77-4945-A3C0-334755DB3BD8";
paths = (
{
closed = 1;
nodes = (
"308 0 LINE SMOOTH",
"546 0 OFFCURVE",
"717 179 OFFCURVE",
"717 428 CURVE SMOOTH",
"717 597 OFFCURVE",
"606 700 OFFCURVE",
"423 700 CURVE SMOOTH",
"283 700 LINE",
"201 700 OFFCURVE",
"144 654 OFFCURVE",
"130 575 CURVE SMOOTH",
"51 127 LINE SMOOTH",
"36 49 OFFCURVE",
"79 0 OFFCURVE",
"163 0 CURVE SMOOTH"
);
},
{
closed = 1;
nodes = (
"146 69 OFFCURVE",
"130 92 OFFCURVE",
"136 125 CURVE SMOOTH",
"215 575 LINE SMOOTH",
"221 609 OFFCURVE",
"245 631 OFFCURVE",
"276 631 CURVE SMOOTH",
"401 631 LINE SMOOTH",
"558 631 OFFCURVE",
"632 567 OFFCURVE",
"632 433 CURVE SMOOTH",
"632 211 OFFCURVE",
"503 69 OFFCURVE",
"302 69 CURVE SMOOTH",
"177 69 LINE"
);
}
);
width = 735;
},
{
anchors = (
{
name = bottom;
position = "{337, 0}";
},
{
name = center;
position = "{399, 350}";
},
{
name = top;
position = "{439, 690}";
}
);
layerId = "D92B54DD-6BE9-4383-803D-42A15BF32189";
paths = (
{
closed = 1;
nodes = (
"307 0 LINE SMOOTH",
"573 0 OFFCURVE",
"743 165 OFFCURVE",
"743 422 CURVE SMOOTH",
"743 594 OFFCURVE",
"620 700 OFFCURVE",
"420 700 CURVE SMOOTH",
"285 700 LINE SMOOTH",
"182 700 OFFCURVE",
"124 653 OFFCURVE",
"106 552 CURVE SMOOTH",
"36 152 LINE SMOOTH",
"21 54 OFFCURVE",
"68 0 OFFCURVE",
"169 0 CURVE SMOOTH"
);
},
{
closed = 1;
nodes = (
"177 103 OFFCURVE",
"163 122 OFFCURVE",
"169 152 CURVE SMOOTH",
"239 548 LINE SMOOTH",
"244 579 OFFCURVE",
"263 597 OFFCURVE",
"290 597 CURVE SMOOTH",
"397 597 LINE SMOOTH",
"538 597 OFFCURVE",
"607 538 OFFCURVE",
"607 418 CURVE SMOOTH",
"607 218 OFFCURVE",
"499 103 OFFCURVE",
"310 103 CURVE SMOOTH",
"203 103 LINE SMOOTH"
);
}
);
width = 756;
}
);
note = D;
rightKerningGroup = D;
unicode = 0044;
},
{
glyphname = E;
lastChange = "2018-05-14 09:51:03 +0000";
layers = (
{
anchors = (
{
name = bottom;
position = "{307, 0}";
},
{
name = ogonek;
position = "{509, 10}";
},
{
name = top;
position = "{327, 700}";
},
{
name = topleft;
position = "{25, 700}";
}
);
layerId = "0B1DFD06-3317-40CA-B510-4969A0718C16";
paths = (
{
closed = 1;
nodes = (
"528 0 LINE SMOOTH",
"548 0 OFFCURVE",
"558 8 OFFCURVE",
"558 23 CURVE SMOOTH",
"558 40 OFFCURVE",
"549 47 OFFCURVE",
"528 47 CURVE SMOOTH",
"190 47 LINE SMOOTH",
"155 47 OFFCURVE",
"133 71 OFFCURVE",
"133 107 CURVE SMOOTH",
"133 334 LINE",
"430 334 LINE SMOOTH",
"450 334 OFFCURVE",
"460 342 OFFCURVE",
"460 357 CURVE SMOOTH",
"460 374 OFFCURVE",
"451 381 OFFCURVE",
"430 381 CURVE SMOOTH",
"133 381 LINE",
"133 593 LINE SMOOTH",
"133 629 OFFCURVE",
"155 653 OFFCURVE",
"190 653 CURVE SMOOTH",
"506 653 LINE SMOOTH",
"526 653 OFFCURVE",
"536 661 OFFCURVE",
"536 676 CURVE SMOOTH",
"536 693 OFFCURVE",
"527 700 OFFCURVE",
"506 700 CURVE SMOOTH",
"196 700 LINE SMOOTH",
"123 700 OFFCURVE",
"80 659 OFFCURVE",
"80 590 CURVE SMOOTH",
"80 110 LINE SMOOTH",
"80 41 OFFCURVE",
"123 0 OFFCURVE",
"196 0 CURVE SMOOTH"
);
}
);
width = 613;
},
{
anchors = (
{
name = bottom;
position = "{317, 0}";
},
{
name = ogonek;
position = "{454, 10}";
},
{
name = top;
position = "{337, 690}";
},
{
name = topleft;
position = "{35, 700}";
}
);
layerId = "258BB4CE-589F-454F-8E39-237B943AA0B4";
paths = (
{
closed = 1;
nodes = (
"536 0 LINE SMOOTH",
"575 0 OFFCURVE",
"598 19 OFFCURVE",
"598 51 CURVE SMOOTH",
"598 84 OFFCURVE",
"576 103 OFFCURVE",
"536 103 CURVE SMOOTH",
"226 103 LINE SMOOTH",
"199 103 OFFCURVE",
"183 121 OFFCURVE",
"183 152 CURVE SMOOTH",
"183 306 LINE",
"438 306 LINE SMOOTH",
"477 306 OFFCURVE",
"500 325 OFFCURVE",
"500 357 CURVE SMOOTH",
"500 390 OFFCURVE",
"478 409 OFFCURVE",
"438 409 CURVE SMOOTH",
"183 409 LINE",
"183 548 LINE SMOOTH",
"183 579 OFFCURVE",
"199 597 OFFCURVE",
"226 597 CURVE SMOOTH",
"514 597 LINE SMOOTH",
"553 597 OFFCURVE",
"576 616 OFFCURVE",
"576 648 CURVE SMOOTH",
"576 681 OFFCURVE",
"554 700 OFFCURVE",
"514 700 CURVE SMOOTH",
"203 700 LINE SMOOTH",
"107 700 OFFCURVE",
"50 645 OFFCURVE",
"50 552 CURVE SMOOTH",
"50 152 LINE SMOOTH",
"50 56 OFFCURVE",
"109 0 OFFCURVE",
"210 0 CURVE SMOOTH"
);
}
);
width = 638;
},
{
anchors = (
{
name = bottom;
position = "{313, 0}";
},
{
name = ogonek;
position = "{489, 10}";
},
{
name = top;
position = "{333, 696}";
},
{
name = topleft;
position = "{31, 700}";
}
);
layerId = "8ED59CAD-D047-43C0-8308-3370007B39AA";
paths = (
{
closed = 1;
nodes = (
"533 0 LINE SMOOTH",
"560 0 OFFCURVE",
"576 12 OFFCURVE",
"576 34 CURVE SMOOTH",
"576 57 OFFCURVE",
"562 69 OFFCURVE",
"533 69 CURVE SMOOTH",
"206 69 LINE SMOOTH",
"175 69 OFFCURVE",
"155 91 OFFCURVE",
"155 125 CURVE SMOOTH",
"155 323 LINE",
"435 323 LINE SMOOTH",
"463 323 OFFCURVE",
"478 335 OFFCURVE",
"478 357 CURVE SMOOTH",
"478 380 OFFCURVE",
"464 392 OFFCURVE",
"435 392 CURVE SMOOTH",
"155 392 LINE",
"155 575 LINE SMOOTH",
"155 609 OFFCURVE",
"175 631 OFFCURVE",
"206 631 CURVE SMOOTH",
"511 631 LINE SMOOTH",
"539 631 OFFCURVE",
"554 643 OFFCURVE",
"554 665 CURVE SMOOTH",
"554 688 OFFCURVE",
"540 700 OFFCURVE",
"511 700 CURVE SMOOTH",
"201 700 LINE SMOOTH",
"119 700 OFFCURVE",
"70 653 OFFCURVE",
"70 575 CURVE SMOOTH",
"70 127 LINE SMOOTH",
"70 47 OFFCURVE",
"119 0 OFFCURVE",
"204 0 CURVE SMOOTH"
);
}
);
width = 621;
},
{
anchors = (
{
name = bottom;
position = "{265, 0}";
},
{
name = ogonek;
position = "{469, 10}";
},
{
name = top;
position = "{408, 700}";
},
{
name = topleft;
position = "{106, 700}";
}
);
layerId = "6D0DA379-F071-4911-97B5-1F20F456FBFD";
paths = (
{
closed = 1;
nodes = (
"487 0 LINE SMOOTH",
"507 0 OFFCURVE",
"518 8 OFFCURVE",
"521 23 CURVE SMOOTH",
"525 39 OFFCURVE",
"516 47 OFFCURVE",
"495 47 CURVE SMOOTH",
"157 47 LINE SMOOTH",
"119 47 OFFCURVE",
"104 66 OFFCURVE",
"111 107 CURVE SMOOTH",
"151 334 LINE",
"448 334 LINE SMOOTH",
"468 334 OFFCURVE",
"479 342 OFFCURVE",
"482 357 CURVE SMOOTH",
"486 373 OFFCURVE",
"477 381 OFFCURVE",
"456 381 CURVE SMOOTH",
"159 381 LINE",
"197 593 LINE SMOOTH",
"203 629 OFFCURVE",
"229 653 OFFCURVE",
"264 653 CURVE SMOOTH",
"580 653 LINE SMOOTH",
"600 653 OFFCURVE",
"612 661 OFFCURVE",
"614 676 CURVE SMOOTH",
"616 693 OFFCURVE",
"608 700 OFFCURVE",
"588 700 CURVE SMOOTH",
"273 700 LINE SMOOTH",
"202 700 OFFCURVE",
"156 661 OFFCURVE",
"143 590 CURVE SMOOTH",
"58 110 LINE SMOOTH",
"46 44 OFFCURVE",
"85 0 OFFCURVE",
"155 0 CURVE SMOOTH"
);
}
);
width = 613;
},
{
anchors = (
{
name = bottom;
position = "{272, 0}";
},
{
name = ogonek;
position = "{450, 10}";
},
{
name = top;
position = "{415, 696}";
},
{
name = topleft;
position = "{113, 700}";
}
);
layerId = "71BB0B28-5B77-4945-A3C0-334755DB3BD8";
paths = (
{
closed = 1;
nodes = (
"492 0 LINE SMOOTH",
"519 0 OFFCURVE",
"537 12 OFFCURVE",
"541 34 CURVE SMOOTH",
"545 58 OFFCURVE",
"533 69 OFFCURVE",
"504 69 CURVE SMOOTH",
"177 69 LINE SMOOTH",
"146 69 OFFCURVE",
"130 91 OFFCURVE",
"136 125 CURVE SMOOTH",
"171 323 LINE",
"451 323 LINE SMOOTH",
"479 323 OFFCURVE",
"496 335 OFFCURVE",
"500 357 CURVE SMOOTH",
"504 381 OFFCURVE",
"492 392 OFFCURVE",
"463 392 CURVE SMOOTH",
"183 392 LINE",
"215 575 LINE SMOOTH",
"221 609 OFFCURVE",
"245 631 OFFCURVE",
"276 631 CURVE SMOOTH",
"581 631 LINE SMOOTH",
"609 631 OFFCURVE",
"626 643 OFFCURVE",
"630 665 CURVE SMOOTH",
"635 688 OFFCURVE",
"622 700 OFFCURVE",
"593 700 CURVE SMOOTH",
"273 700 LINE SMOOTH",
"194 700 OFFCURVE",
"145 657 OFFCURVE",
"130 575 CURVE SMOOTH",
"51 127 LINE SMOOTH",
"38 49 OFFCURVE",
"81 0 OFFCURVE",
"163 0 CURVE SMOOTH"
);
}
);
width = 621;
},
{
anchors = (
{
name = bottom;
position = "{276, 0}";
},
{
name = ogonek;
position = "{415, 10}";
},
{
name = top;
position = "{418, 690}";
},
{
name = topleft;
position = "{117, 700}";
}
);
layerId = "D92B54DD-6BE9-4383-803D-42A15BF32189";
paths = (
{
closed = 1;
nodes = (
"495 0 LINE SMOOTH",
"534 0 OFFCURVE",
"560 19 OFFCURVE",
"566 51 CURVE SMOOTH",
"572 84 OFFCURVE",
"553 103 OFFCURVE",
"513 103 CURVE SMOOTH",
"203 103 LINE SMOOTH",
"176 103 OFFCURVE",
"163 121 OFFCURVE",
"169 152 CURVE SMOOTH",
"196 306 LINE",
"451 306 LINE SMOOTH",
"490 306 OFFCURVE",
"516 325 OFFCURVE",
"522 357 CURVE SMOOTH",
"528 390 OFFCURVE",
"509 409 OFFCURVE",
"469 409 CURVE SMOOTH",
"214 409 LINE",
"239 548 LINE SMOOTH",
"244 579 OFFCURVE",
"263 597 OFFCURVE",
"290 597 CURVE SMOOTH",
"578 597 LINE SMOOTH",
"617 597 OFFCURVE",
"643 616 OFFCURVE",
"649 648 CURVE SMOOTH",
"655 681 OFFCURVE",
"636 700 OFFCURVE",
"596 700 CURVE SMOOTH",
"276 700 LINE SMOOTH",
"183 700 OFFCURVE",
"124 648 OFFCURVE",
"106 552 CURVE SMOOTH",
"36 152 LINE SMOOTH",
"19 56 OFFCURVE",
"68 0 OFFCURVE",
"169 0 CURVE SMOOTH"
);
}
);
width = 638;
}
);
note = E;
rightKerningGroup = E;
unicode = 0045;
},
{
glyphname = F;
lastChange = "2018-05-14 07:23:34 +0000";
layers = (
{
anchors = (
{
name = bottom;
position = "{296, 0}";
},
{
name = top;
position = "{296, 700}";
}
);
layerId = "0B1DFD06-3317-40CA-B510-4969A0718C16";
paths = (
{
closed = 1;
nodes = (
"123 -10 OFFCURVE",
"133 1 OFFCURVE",
"133 22 CURVE SMOOTH",
"133 324 LINE",
"430 324 LINE SMOOTH",
"450 324 OFFCURVE",
"460 332 OFFCURVE",
"460 347 CURVE SMOOTH",
"460 364 OFFCURVE",
"451 371 OFFCURVE",
"430 371 CURVE SMOOTH",
"133 371 LINE",
"133 593 LINE SMOOTH",
"133 629 OFFCURVE",
"155 653 OFFCURVE",
"190 653 CURVE SMOOTH",
"506 653 LINE SMOOTH",
"526 653 OFFCURVE",
"536 661 OFFCURVE",
"536 676 CURVE SMOOTH",
"536 693 OFFCURVE",
"527 700 OFFCURVE",
"506 700 CURVE SMOOTH",
"196 700 LINE SMOOTH",
"123 700 OFFCURVE",
"80 659 OFFCURVE",
"80 590 CURVE SMOOTH",
"80 22 LINE SMOOTH",
"80 1 OFFCURVE",
"89 -10 OFFCURVE",
"106 -10 CURVE SMOOTH"
);
}
);
width = 591;
},
{
anchors = (
{
name = bottom;
position = "{296, 0}";
},
{
name = top;
position = "{296, 700}";
}
);
layerId = "258BB4CE-589F-454F-8E39-237B943AA0B4";
paths = (
{
closed = 1;
nodes = (
"156 -10 OFFCURVE",
"183 14 OFFCURVE",
"183 50 CURVE SMOOTH",
"183 296 LINE",
"438 296 LINE SMOOTH",
"477 296 OFFCURVE",
"500 315 OFFCURVE",
"500 347 CURVE SMOOTH",
"500 380 OFFCURVE",
"478 399 OFFCURVE",
"438 399 CURVE SMOOTH",
"183 399 LINE",
"183 548 LINE SMOOTH",
"183 579 OFFCURVE",
"199 597 OFFCURVE",
"226 597 CURVE SMOOTH",
"514 597 LINE SMOOTH",
"553 597 OFFCURVE",
"576 616 OFFCURVE",
"576 648 CURVE SMOOTH",
"576 681 OFFCURVE",
"554 700 OFFCURVE",
"514 700 CURVE SMOOTH",
"203 700 LINE SMOOTH",
"107 700 OFFCURVE",
"50 645 OFFCURVE",
"50 552 CURVE SMOOTH",
"50 50 LINE SMOOTH",
"50 13 OFFCURVE",
"76 -10 OFFCURVE",
"116 -10 CURVE SMOOTH"
);
}
);
width = 606;
},
{
anchors = (
{
name = bottom;
position = "{298, 0}";
},
{
name = top;
position = "{298, 700}";
}
);
layerId = "8ED59CAD-D047-43C0-8308-3370007B39AA";
paths = (
{
closed = 1;
nodes = (
"139 -10 OFFCURVE",
"155 7 OFFCURVE",
"155 33 CURVE SMOOTH",
"155 313 LINE",
"435 313 LINE SMOOTH",
"463 313 OFFCURVE",
"478 325 OFFCURVE",
"478 347 CURVE SMOOTH",
"478 370 OFFCURVE",
"464 382 OFFCURVE",
"435 382 CURVE SMOOTH",
"155 382 LINE",
"155 575 LINE SMOOTH",
"155 609 OFFCURVE",
"175 631 OFFCURVE",
"206 631 CURVE SMOOTH",
"511 631 LINE SMOOTH",
"539 631 OFFCURVE",
"554 643 OFFCURVE",
"554 665 CURVE SMOOTH",
"554 688 OFFCURVE",
"540 700 OFFCURVE",
"511 700 CURVE SMOOTH",
"201 700 LINE SMOOTH",
"119 700 OFFCURVE",
"70 653 OFFCURVE",
"70 575 CURVE SMOOTH",
"70 33 LINE SMOOTH",
"70 6 OFFCURVE",
"86 -10 OFFCURVE",
"112 -10 CURVE SMOOTH"
);
}
);
width = 599;
},
{
anchors = (
{
name = bottom;
position = "{255, 0}";
},
{
name = top;
position = "{378, 700}";
}
);
layerId = "6D0DA379-F071-4911-97B5-1F20F456FBFD";
paths = (
{
closed = 1;
nodes = (
"80 -10 OFFCURVE",
"92 1 OFFCURVE",
"96 22 CURVE SMOOTH",
"149 324 LINE",
"446 324 LINE SMOOTH",
"466 324 OFFCURVE",
"478 332 OFFCURVE",
"480 347 CURVE SMOOTH",
"483 364 OFFCURVE",
"475 371 OFFCURVE",
"454 371 CURVE SMOOTH",
"157 371 LINE",
"197 593 LINE SMOOTH",
"203 629 OFFCURVE",
"229 653 OFFCURVE",
"264 653 CURVE SMOOTH",
"580 653 LINE SMOOTH",
"600 653 OFFCURVE",
"612 661 OFFCURVE",
"614 676 CURVE SMOOTH",
"617 693 OFFCURVE",
"609 700 OFFCURVE",
"588 700 CURVE SMOOTH",
"278 700 LINE SMOOTH",
"203 700 OFFCURVE",
"156 662 OFFCURVE",
"143 590 CURVE SMOOTH",
"43 22 LINE SMOOTH",
"39 1 OFFCURVE",
"46 -10 OFFCURVE",
"63 -10 CURVE SMOOTH"
);
}
);
width = 591;
},
{
anchors = (
{
name = bottom;
position = "{257, 0}";
},
{
name = top;
position = "{380, 700}";
}
);
layerId = "71BB0B28-5B77-4945-A3C0-334755DB3BD8";
paths = (
{
closed = 1;
nodes = (
"96 -10 OFFCURVE",
"115 7 OFFCURVE",
"120 33 CURVE SMOOTH",
"169 313 LINE",
"449 313 LINE SMOOTH",
"477 313 OFFCURVE",
"494 325 OFFCURVE",
"498 347 CURVE SMOOTH",
"503 370 OFFCURVE",
"490 382 OFFCURVE",
"461 382 CURVE SMOOTH",
"181 382 LINE",
"215 575 LINE SMOOTH",
"221 609 OFFCURVE",
"245 631 OFFCURVE",
"276 631 CURVE SMOOTH",
"581 631 LINE SMOOTH",
"609 631 OFFCURVE",
"626 643 OFFCURVE",
"630 665 CURVE SMOOTH",
"635 688 OFFCURVE",
"622 700 OFFCURVE",
"593 700 CURVE SMOOTH",
"273 700 LINE SMOOTH",
"194 700 OFFCURVE",
"145 657 OFFCURVE",
"130 575 CURVE SMOOTH",
"35 33 LINE SMOOTH",
"30 6 OFFCURVE",
"43 -10 OFFCURVE",
"69 -10 CURVE SMOOTH"
);
}
);
width = 599;
},
{
anchors = (
{
name = bottom;
position = "{255, 0}";
},
{
name = top;
position = "{378, 700}";
}
);
layerId = "D92B54DD-6BE9-4383-803D-42A15BF32189";
paths = (
{
closed = 1;
nodes = (
"113 -10 OFFCURVE",
"144 14 OFFCURVE",
"151 50 CURVE SMOOTH",
"194 296 LINE",
"449 296 LINE SMOOTH",
"488 296 OFFCURVE",
"514 315 OFFCURVE",
"520 347 CURVE SMOOTH",
"526 380 OFFCURVE",
"507 399 OFFCURVE",
"467 399 CURVE SMOOTH",
"212 399 LINE",
"239 548 LINE SMOOTH",
"244 579 OFFCURVE",
"263 597 OFFCURVE",
"290 597 CURVE SMOOTH",
"578 597 LINE SMOOTH",
"617 597 OFFCURVE",
"643 616 OFFCURVE",
"649 648 CURVE SMOOTH",
"655 681 OFFCURVE",
"636 700 OFFCURVE",
"596 700 CURVE SMOOTH",
"275 700 LINE SMOOTH",
"182 700 OFFCURVE",
"124 649 OFFCURVE",
"106 552 CURVE SMOOTH",
"18 50 LINE SMOOTH",
"11 13 OFFCURVE",
"33 -10 OFFCURVE",
"73 -10 CURVE SMOOTH"
);
}
);
width = 606;
}
);
note = F;
unicode = 0046;
},
{
glyphname = G;
lastChange = "2018-05-14 07:25:11 +0000";
layers = (
{
anchors = (
{
name = bottom;
position = "{376, 0}";
},
{
name = top;
position = "{376, 700}";
}
);
layerId = "0B1DFD06-3317-40CA-B510-4969A0718C16";
paths = (
{
closed = 1;
nodes = (
"565 -10 OFFCURVE",
"696 93 OFFCURVE",
"696 223 CURVE SMOOTH",
"696 261 LINE SMOOTH",
"696 330 OFFCURVE",
"659 363 OFFCURVE",
"583 363 CURVE SMOOTH",
"429 363 LINE SMOOTH",
"408 363 OFFCURVE",
"399 356 OFFCURVE",
"399 339 CURVE SMOOTH",
"399 324 OFFCURVE",
"409 316 OFFCURVE",
"429 316 CURVE SMOOTH",
"589 316 LINE SMOOTH",
"629 316 OFFCURVE",
"643 302 OFFCURVE",
"643 260 CURVE SMOOTH",
"643 222 LINE SMOOTH",
"643 116 OFFCURVE",
"539 39 OFFCURVE",
"398 39 CURVE SMOOTH",
"218 39 OFFCURVE",
"109 156 OFFCURVE",
"109 349 CURVE SMOOTH",
"109 542 OFFCURVE",
"219 661 OFFCURVE",
"399 661 CURVE SMOOTH",
"497 661 OFFCURVE",
"582 628 OFFCURVE",
"623 572 CURVE SMOOTH",
"631 561 OFFCURVE",
"649 558 OFFCURVE",
"662 567 CURVE SMOOTH",
"673 574 OFFCURVE",
"674 591 OFFCURVE",
"664 603 CURVE SMOOTH",
"609 670 OFFCURVE",
"511 710 OFFCURVE",
"399 710 CURVE SMOOTH",
"192 710 OFFCURVE",
"55 566 OFFCURVE",
"55 349 CURVE SMOOTH",
"55 132 OFFCURVE",
"191 -10 OFFCURVE",
"398 -10 CURVE SMOOTH"
);
}
);
width = 751;
},
{
anchors = (
{
name = bottom;
position = "{406, 0}";
},
{
name = top;
position = "{406, 690}";
}
);
layerId = "258BB4CE-589F-454F-8E39-237B943AA0B4";
paths = (
{
closed = 1;
nodes = (
"601 -10 OFFCURVE",
"734 95 OFFCURVE",
"734 248 CURVE SMOOTH",
"734 287 LINE SMOOTH",
"734 357 OFFCURVE",
"699 389 OFFCURVE",
"622 389 CURVE SMOOTH",
"428 389 LINE SMOOTH",
"390 389 OFFCURVE",
"368 370 OFFCURVE",
"368 337 CURVE SMOOTH",
"368 305 OFFCURVE",
"390 286 OFFCURVE",
"428 286 CURVE SMOOTH",
"559 286 LINE SMOOTH",
"590 286 OFFCURVE",
"601 277 OFFCURVE",
"601 249 CURVE SMOOTH",
"601 227 LINE SMOOTH",
"601 144 OFFCURVE",
"529 95 OFFCURVE",
"407 95 CURVE SMOOTH",
"261 95 OFFCURVE",
"174 189 OFFCURVE",
"174 349 CURVE SMOOTH",
"174 510 OFFCURVE",
"260 605 OFFCURVE",
"405 605 CURVE SMOOTH",
"492 605 OFFCURVE",
"549 583 OFFCURVE",
"594 531 CURVE SMOOTH",
"616 506 OFFCURVE",
"656 498 OFFCURVE",
"679 515 CURVE SMOOTH",
"708 536 OFFCURVE",
"714 565 OFFCURVE",
"694 593 CURVE SMOOTH",
"643 664 OFFCURVE",
"529 710 OFFCURVE",
"405 710 CURVE SMOOTH",
"179 710 OFFCURVE",
"40 572 OFFCURVE",
"40 349 CURVE SMOOTH",
"40 126 OFFCURVE",
"179 -10 OFFCURVE",
"407 -10 CURVE SMOOTH"
);
}
);
width = 774;
},
{
anchors = (
{
name = bottom;
position = "{384, 0}";
},
{
name = top;
position = "{384, 696}";
}
);
layerId = "8ED59CAD-D047-43C0-8308-3370007B39AA";
paths = (
{
closed = 1;
nodes = (
"575 -10 OFFCURVE",
"707 94 OFFCURVE",
"707 233 CURVE SMOOTH",
"707 271 LINE SMOOTH",
"707 340 OFFCURVE",
"671 373 OFFCURVE",
"595 373 CURVE SMOOTH",
"425 373 LINE SMOOTH",
"397 373 OFFCURVE",
"383 361 OFFCURVE",
"383 338 CURVE SMOOTH",
"383 316 OFFCURVE",
"397 304 OFFCURVE",
"425 304 CURVE SMOOTH",
"573 304 LINE SMOOTH",
"610 304 OFFCURVE",
"622 292 OFFCURVE",
"622 256 CURVE SMOOTH",
"622 224 LINE SMOOTH",
"622 127 OFFCURVE",
"531 61 OFFCURVE",
"398 61 CURVE SMOOTH",
"231 61 OFFCURVE",
"131 169 OFFCURVE",
"131 349 CURVE SMOOTH",
"131 529 OFFCURVE",
"232 639 OFFCURVE",
"397 639 CURVE SMOOTH",
"491 639 OFFCURVE",
"564 610 OFFCURVE",
"607 556 CURVE SMOOTH",
"621 539 OFFCURVE",
"648 534 OFFCURVE",
"665 546 CURVE SMOOTH",
"683 559 OFFCURVE",
"686 581 OFFCURVE",
"672 599 CURVE SMOOTH",
"619 668 OFFCURVE",
"514 710 OFFCURVE",
"397 710 CURVE SMOOTH",
"183 710 OFFCURVE",
"45 569 OFFCURVE",
"45 349 CURVE SMOOTH",
"45 130 OFFCURVE",
"182 -10 OFFCURVE",
"398 -10 CURVE SMOOTH"
);
}
);
width = 752;
},
{
anchors = (
{
name = bottom;
position = "{334, 0}";
},
{
name = top;
position = "{457, 700}";
}
);
layerId = "6D0DA379-F071-4911-97B5-1F20F456FBFD";
paths = (
{
closed = 1;
nodes = (
"536 -10 OFFCURVE",
"668 83 OFFCURVE",
"693 223 CURVE SMOOTH",
"700 261 LINE SMOOTH",
"702 280 OFFCURVE",
"702 279 OFFCURVE",
"702 284 CURVE SMOOTH",
"702 335 OFFCURVE",
"667 363 OFFCURVE",
"605 363 CURVE SMOOTH",
"451 363 LINE SMOOTH",
"427 363 OFFCURVE",
"416 354 OFFCURVE",
"416 334 CURVE SMOOTH",
"416 322 OFFCURVE",
"426 316 OFFCURVE",
"443 316 CURVE SMOOTH",
"603 316 LINE SMOOTH",
"644 316 OFFCURVE",
"653 304 OFFCURVE",
"647 260 CURVE SMOOTH",
"640 222 LINE SMOOTH",
"622 115 OFFCURVE",
"511 39 OFFCURVE",
"373 39 CURVE SMOOTH",
"213 39 OFFCURVE",
"121 122 OFFCURVE",
"121 266 CURVE SMOOTH",
"121 496 OFFCURVE",
"268 661 OFFCURVE",
"474 661 CURVE SMOOTH",
"578 661 OFFCURVE",
"648 631 OFFCURVE",
"682 572 CURVE SMOOTH",
"686 566 OFFCURVE",
"693 562 OFFCURVE",
"702 562 CURVE SMOOTH",
"719 562 OFFCURVE",
"732 574 OFFCURVE",
"732 589 CURVE SMOOTH",
"732 595 OFFCURVE",
"731 599 OFFCURVE",
"728 603 CURVE SMOOTH",
"686 670 OFFCURVE",
"594 710 OFFCURVE",
"482 710 CURVE SMOOTH",
"242 710 OFFCURVE",
"68 524 OFFCURVE",
"68 268 CURVE SMOOTH",
"68 99 OFFCURVE",
"184 -10 OFFCURVE",
"364 -10 CURVE SMOOTH"
);
}
);
width = 750;
},
{
anchors = (
{
name = bottom;
position = "{342, 0}";
},
{
name = top;
position = "{465, 696}";
}
);
layerId = "71BB0B28-5B77-4945-A3C0-334755DB3BD8";
paths = (
{
closed = 1;
nodes = (
"541 -10 OFFCURVE",
"680 88 OFFCURVE",
"706 233 CURVE SMOOTH",
"713 271 LINE SMOOTH",
"714 281 OFFCURVE",
"715 289 OFFCURVE",
"715 298 CURVE SMOOTH",
"715 349 OFFCURVE",
"684 373 OFFCURVE",
"619 373 CURVE SMOOTH",
"449 373 LINE SMOOTH",
"417 373 OFFCURVE",
"400 358 OFFCURVE",
"400 330 CURVE SMOOTH",
"400 313 OFFCURVE",
"413 304 OFFCURVE",
"437 304 CURVE SMOOTH",
"585 304 LINE SMOOTH",
"622 304 OFFCURVE",
"631 293 OFFCURVE",
"625 256 CURVE SMOOTH",
"619 224 LINE SMOOTH",
"602 127 OFFCURVE",
"500 61 OFFCURVE",
"367 61 CURVE SMOOTH",
"225 61 OFFCURVE",
"144 139 OFFCURVE",
"144 276 CURVE SMOOTH",
"144 488 OFFCURVE",
"279 639 OFFCURVE",
"468 639 CURVE SMOOTH",
"566 639 OFFCURVE",
"628 613 OFFCURVE",
"663 556 CURVE SMOOTH",
"670 545 OFFCURVE",
"683 539 OFFCURVE",
"696 539 CURVE SMOOTH",
"718 539 OFFCURVE",
"741 560 OFFCURVE",
"741 581 CURVE SMOOTH",
"741 585 OFFCURVE",
"739 591 OFFCURVE",
"736 599 CURVE SMOOTH",
"695 667 OFFCURVE",
"593 710 OFFCURVE",
"475 710 CURVE SMOOTH",
"233 710 OFFCURVE",
"58 527 OFFCURVE",
"58 273 CURVE SMOOTH",
"58 101 OFFCURVE",
"176 -10 OFFCURVE",
"359 -10 CURVE SMOOTH"
);
}
);
width = 752;
},
{
anchors = (
{
name = bottom;
position = "{364, 0}";
},
{
name = top;
position = "{486, 690}";
}
);
layerId = "D92B54DD-6BE9-4383-803D-42A15BF32189";
paths = (
{
closed = 1;
nodes = (
"559 -10 OFFCURVE",
"708 94 OFFCURVE",
"736 248 CURVE SMOOTH",
"743 287 LINE SMOOTH",
"745 297 OFFCURVE",
"746 307 OFFCURVE",
"746 316 CURVE SMOOTH",
"746 366 OFFCURVE",
"715 389 OFFCURVE",
"649 389 CURVE SMOOTH",
"455 389 LINE SMOOTH",
"412 389 OFFCURVE",
"384 365 OFFCURVE",
"384 327 CURVE SMOOTH",
"384 301 OFFCURVE",
"403 286 OFFCURVE",
"436 286 CURVE SMOOTH",
"567 286 LINE SMOOTH",
"598 286 OFFCURVE",
"608 276 OFFCURVE",
"603 249 CURVE SMOOTH",
"599 227 LINE SMOOTH",
"584 144 OFFCURVE",
"504 95 OFFCURVE",
"382 95 CURVE SMOOTH",
"251 95 OFFCURVE",
"186 153 OFFCURVE",
"186 270 CURVE SMOOTH",
"186 468 OFFCURVE",
"302 605 OFFCURVE",
"470 605 CURVE SMOOTH",
"557 605 OFFCURVE",
"609 583 OFFCURVE",
"646 531 CURVE SMOOTH",
"656 516 OFFCURVE",
"676 506 OFFCURVE",
"697 506 CURVE SMOOTH",
"730 506 OFFCURVE",
"763 538 OFFCURVE",
"763 569 CURVE SMOOTH",
"763 577 OFFCURVE",
"761 585 OFFCURVE",
"757 593 CURVE SMOOTH",
"719 663 OFFCURVE",
"609 710 OFFCURVE",
"484 710 CURVE SMOOTH",
"229 710 OFFCURVE",
"53 532 OFFCURVE",
"53 274 CURVE SMOOTH",
"53 101 OFFCURVE",
"175 -10 OFFCURVE",
"366 -10 CURVE SMOOTH"
);
}
);
width = 774;
}
);
leftKerningGroup = C;
note = G;
rightKerningGroup = C;
unicode = 0047;
},
{
glyphname = H;
lastChange = "2018-05-14 07:25:28 +0000";
layers = (
{
anchors = (
{
name = bottom;
position = "{373, 0}";
},
{
name = center;
position = "{373, 350}";
},
{
name = top;
position = "{373, 700}";
},
{
name = topleft;
position = "{25, 700}";
}
);
layerId = "0B1DFD06-3317-40CA-B510-4969A0718C16";
paths = (
{
closed = 1;
nodes = (
"128 -10 OFFCURVE",
"138 1 OFFCURVE",
"138 22 CURVE SMOOTH",
"138 336 LINE",
"607 336 LINE",
"607 22 LINE SMOOTH",
"607 1 OFFCURVE",
"617 -10 OFFCURVE",
"634 -10 CURVE SMOOTH",
"651 -10 OFFCURVE",
"660 1 OFFCURVE",
"660 22 CURVE SMOOTH",
"660 678 LINE SMOOTH",
"660 699 OFFCURVE",
"651 710 OFFCURVE",
"634 710 CURVE SMOOTH",
"617 710 OFFCURVE",
"607 699 OFFCURVE",
"607 678 CURVE SMOOTH",
"607 383 LINE",
"138 383 LINE",
"138 678 LINE SMOOTH",
"138 699 OFFCURVE",
"128 710 OFFCURVE",
"111 710 CURVE SMOOTH",
"94 710 OFFCURVE",
"85 699 OFFCURVE",
"85 678 CURVE SMOOTH",
"85 22 LINE SMOOTH",
"85 1 OFFCURVE",
"94 -10 OFFCURVE",
"111 -10 CURVE SMOOTH"
);
}
);
width = 745;
},
{
anchors = (
{
name = bottom;
position = "{378, 0}";
},
{
name = center;
position = "{378, 350}";
},
{
name = top;
position = "{378, 690}";
},
{
name = topleft;
position = "{30, 700}";
}
);
layerId = "258BB4CE-589F-454F-8E39-237B943AA0B4";
paths = (
{
closed = 1;
nodes = (
"156 -10 OFFCURVE",
"183 14 OFFCURVE",
"183 50 CURVE SMOOTH",
"183 308 LINE",
"542 308 LINE",
"542 50 LINE SMOOTH",
"542 14 OFFCURVE",
"569 -10 OFFCURVE",
"609 -10 CURVE SMOOTH",
"649 -10 OFFCURVE",
"675 13 OFFCURVE",
"675 50 CURVE SMOOTH",
"675 650 LINE SMOOTH",
"675 687 OFFCURVE",
"649 710 OFFCURVE",
"609 710 CURVE SMOOTH",
"569 710 OFFCURVE",
"542 686 OFFCURVE",
"542 650 CURVE SMOOTH",
"542 411 LINE",
"183 411 LINE",
"183 650 LINE SMOOTH",
"183 686 OFFCURVE",
"156 710 OFFCURVE",
"116 710 CURVE SMOOTH",
"76 710 OFFCURVE",
"50 687 OFFCURVE",
"50 650 CURVE SMOOTH",
"50 50 LINE SMOOTH",
"50 13 OFFCURVE",
"76 -10 OFFCURVE",
"116 -10 CURVE SMOOTH"
);
}
);
width = 725;
},
{
anchors = (
{
name = bottom;
position = "{374, 0}";
},
{
name = center;
position = "{374, 350}";
},
{
name = top;
position = "{374, 696}";
},
{
name = topleft;
position = "{26, 700}";
}
);
layerId = "8ED59CAD-D047-43C0-8308-3370007B39AA";
paths = (
{
closed = 1;
nodes = (
"139 -10 OFFCURVE",
"155 7 OFFCURVE",
"155 33 CURVE SMOOTH",
"155 325 LINE",
"580 325 LINE",
"580 33 LINE SMOOTH",
"580 7 OFFCURVE",
"597 -10 OFFCURVE",
"623 -10 CURVE SMOOTH",
"649 -10 OFFCURVE",
"665 6 OFFCURVE",
"665 33 CURVE SMOOTH",
"665 667 LINE SMOOTH",
"665 694 OFFCURVE",
"649 710 OFFCURVE",
"623 710 CURVE SMOOTH",
"597 710 OFFCURVE",
"580 694 OFFCURVE",
"580 667 CURVE SMOOTH",
"580 394 LINE",
"155 394 LINE",
"155 667 LINE SMOOTH",
"155 694 OFFCURVE",
"139 710 OFFCURVE",
"112 710 CURVE SMOOTH",
"86 710 OFFCURVE",
"70 694 OFFCURVE",
"70 667 CURVE SMOOTH",
"70 33 LINE SMOOTH",
"70 6 OFFCURVE",
"86 -10 OFFCURVE",
"112 -10 CURVE SMOOTH"
);
}
);
width = 735;
},
{
anchors = (
{
name = bottom;
position = "{337, 0}";
},
{
name = center;
position = "{393, 350}";
},
{
name = top;
position = "{454, 700}";
},
{
name = topleft;
position = "{106, 700}";
}
);
layerId = "6D0DA379-F071-4911-97B5-1F20F456FBFD";
paths = (
{
closed = 1;
nodes = (
"84 -10 OFFCURVE",
"96 1 OFFCURVE",
"100 22 CURVE SMOOTH",
"155 336 LINE",
"624 336 LINE",
"569 22 LINE SMOOTH",
"565 1 OFFCURVE",
"572 -10 OFFCURVE",
"590 -10 CURVE SMOOTH",
"607 -10 OFFCURVE",
"618 1 OFFCURVE",
"622 22 CURVE SMOOTH",
"738 678 LINE SMOOTH",
"741 699 OFFCURVE",
"734 710 OFFCURVE",
"717 710 CURVE SMOOTH",
"700 710 OFFCURVE",
"688 699 OFFCURVE",
"685 678 CURVE SMOOTH",
"633 383 LINE",
"164 383 LINE",
"216 678 LINE SMOOTH",
"219 699 OFFCURVE",
"211 710 OFFCURVE",
"194 710 CURVE SMOOTH",
"177 710 OFFCURVE",
"166 699 OFFCURVE",
"163 678 CURVE SMOOTH",
"47 22 LINE SMOOTH",
"43 1 OFFCURVE",
"50 -10 OFFCURVE",
"67 -10 CURVE SMOOTH"
);
}
);
width = 745;
},
{
anchors = (
{
name = bottom;
position = "{332, 0}";
},
{
name = center;
position = "{394, 350}";
},
{
name = top;
position = "{455, 696}";
},
{
name = topleft;
position = "{107, 700}";
}
);
layerId = "71BB0B28-5B77-4945-A3C0-334755DB3BD8";
paths = (
{
closed = 1;
nodes = (
"95 -10 OFFCURVE",
"114 7 OFFCURVE",
"119 33 CURVE SMOOTH",
"170 325 LINE",
"595 325 LINE",
"544 33 LINE SMOOTH",
"539 6 OFFCURVE",
"553 -10 OFFCURVE",
"579 -10 CURVE SMOOTH",
"605 -10 OFFCURVE",
"624 6 OFFCURVE",
"629 33 CURVE SMOOTH",
"741 667 LINE SMOOTH",
"745 694 OFFCURVE",
"732 710 OFFCURVE",
"706 710 CURVE SMOOTH",
"679 710 OFFCURVE",
"660 693 OFFCURVE",
"656 667 CURVE SMOOTH",
"607 394 LINE",
"182 394 LINE",
"231 667 LINE SMOOTH",
"235 694 OFFCURVE",
"221 710 OFFCURVE",
"195 710 CURVE SMOOTH",
"169 710 OFFCURVE",
"150 694 OFFCURVE",
"146 667 CURVE SMOOTH",
"34 33 LINE SMOOTH",
"29 6 OFFCURVE",
"42 -10 OFFCURVE",
"68 -10 CURVE SMOOTH"
);
}
);
width = 735;
},
{
anchors = (
{
name = bottom;
position = "{336, 0}";
},
{
name = center;
position = "{398, 350}";
},
{
name = top;
position = "{458, 690}";
},
{
name = topleft;
position = "{111, 700}";
}
);
layerId = "D92B54DD-6BE9-4383-803D-42A15BF32189";
paths = (
{
closed = 1;
nodes = (
"112 -10 OFFCURVE",
"143 14 OFFCURVE",
"150 50 CURVE SMOOTH",
"195 308 LINE",
"554 308 LINE",
"509 50 LINE SMOOTH",
"502 14 OFFCURVE",
"525 -10 OFFCURVE",
"565 -10 CURVE SMOOTH",
"605 -10 OFFCURVE",
"635 13 OFFCURVE",
"642 50 CURVE SMOOTH",
"748 650 LINE SMOOTH",
"754 687 OFFCURVE",
"732 710 OFFCURVE",
"692 710 CURVE SMOOTH",
"652 710 OFFCURVE",
"621 686 OFFCURVE",
"615 650 CURVE SMOOTH",
"572 411 LINE",
"213 411 LINE",
"256 650 LINE SMOOTH",
"262 686 OFFCURVE",
"239 710 OFFCURVE",
"199 710 CURVE SMOOTH",
"158 710 OFFCURVE",
"129 687 OFFCURVE",
"123 650 CURVE SMOOTH",
"17 50 LINE SMOOTH",
"10 13 OFFCURVE",
"32 -10 OFFCURVE",
"72 -10 CURVE SMOOTH"
);
}
);
width = 725;
}
);
leftKerningGroup = H;
note = H;
rightKerningGroup = H;
unicode = 0048;
},
{
glyphname = I;
lastChange = "2018-05-14 07:16:00 +0000";
layers = (
{
anchors = (
{
name = bottom;
position = "{112, 0}";
},
{
name = ogonek;
position = "{127, 10}";
},
{
name = top;
position = "{112, 700}";
},
{
name = topleft;
position = "{25, 700}";
}
);
layerId = "0B1DFD06-3317-40CA-B510-4969A0718C16";
paths = (
{
closed = 1;
nodes = (
"129 -10 OFFCURVE",
"138 2 OFFCURVE",
"138 22 CURVE SMOOTH",
"138 678 LINE SMOOTH",
"138 698 OFFCURVE",
"129 710 OFFCURVE",
"111 710 CURVE SMOOTH",
"93 710 OFFCURVE",
"85 698 OFFCURVE",
"85 678 CURVE SMOOTH",
"85 22 LINE SMOOTH",
"85 2 OFFCURVE",
"93 -10 OFFCURVE",
"111 -10 CURVE SMOOTH"
);
}
);
width = 223;
},
{
anchors = (
{
name = bottom;
position = "{112, 0}";
},
{
name = ogonek;
position = "{136, 10}";
},
{
name = top;
position = "{112, 690}";
},
{
name = topleft;
position = "{25, 700}";
}
);
layerId = "258BB4CE-589F-454F-8E39-237B943AA0B4";
paths = (
{
closed = 1;
nodes = (
"154 -10 OFFCURVE",
"183 12 OFFCURVE",
"183 50 CURVE SMOOTH",
"183 650 LINE SMOOTH",
"183 688 OFFCURVE",
"154 710 OFFCURVE",
"116 710 CURVE SMOOTH",
"77 710 OFFCURVE",
"50 688 OFFCURVE",
"50 650 CURVE SMOOTH",
"50 50 LINE SMOOTH",
"50 12 OFFCURVE",
"77 -10 OFFCURVE",
"116 -10 CURVE SMOOTH"
);
}
);
width = 233;
},
{
anchors = (
{
name = bottom;
position = "{111, 0}";
},
{
name = ogonek;
position = "{130, 10}";
},
{
name = top;
position = "{111, 696}";
},
{
name = topleft;
position = "{24, 700}";
}
);
layerId = "8ED59CAD-D047-43C0-8308-3370007B39AA";
paths = (
{
closed = 1;
nodes = (
"138 -10 OFFCURVE",
"155 6 OFFCURVE",
"155 33 CURVE SMOOTH",
"155 667 LINE SMOOTH",
"155 694 OFFCURVE",
"138 710 OFFCURVE",
"112 710 CURVE SMOOTH",
"86 710 OFFCURVE",
"70 694 OFFCURVE",
"70 667 CURVE SMOOTH",
"70 33 LINE SMOOTH",
"70 6 OFFCURVE",
"86 -10 OFFCURVE",
"112 -10 CURVE SMOOTH"
);
}
);
width = 225;
},
{
anchors = (
{
name = bottom;
position = "{70, 0}";
},
{
name = ogonek;
position = "{87, 10}";
},
{
name = top;
position = "{193, 700}";
},
{
name = topleft;
position = "{106, 700}";
}
);
layerId = "6D0DA379-F071-4911-97B5-1F20F456FBFD";
paths = (
{
closed = 1;
nodes = (
"85 -10 OFFCURVE",
"96 2 OFFCURVE",
"100 22 CURVE SMOOTH",
"216 678 LINE SMOOTH",
"219 698 OFFCURVE",
"212 710 OFFCURVE",
"194 710 CURVE SMOOTH",
"176 710 OFFCURVE",
"166 698 OFFCURVE",
"163 678 CURVE SMOOTH",
"47 22 LINE SMOOTH",
"43 2 OFFCURVE",
"49 -10 OFFCURVE",
"67 -10 CURVE SMOOTH"
);
}
);
width = 223;
},
{
anchors = (
{
name = bottom;
position = "{69, 0}";
},
{
name = ogonek;
position = "{90, 10}";
},
{
name = top;
position = "{192, 696}";
},
{
name = topleft;
position = "{105, 700}";
}
);
layerId = "71BB0B28-5B77-4945-A3C0-334755DB3BD8";
paths = (
{
closed = 1;
nodes = (
"94 -10 OFFCURVE",
"114 6 OFFCURVE",
"119 33 CURVE SMOOTH",
"231 667 LINE SMOOTH",
"235 694 OFFCURVE",
"221 710 OFFCURVE",
"195 710 CURVE SMOOTH",
"169 710 OFFCURVE",
"150 694 OFFCURVE",
"146 667 CURVE SMOOTH",
"34 33 LINE SMOOTH",
"29 6 OFFCURVE",
"42 -10 OFFCURVE",
"68 -10 CURVE SMOOTH"
);
}
);
width = 225;
},
{
anchors = (
{
name = bottom;
position = "{70, 0}";
},
{
name = ogonek;
position = "{96, 10}";
},
{
name = top;
position = "{192, 690}";
},
{
name = topleft;
position = "{106, 700}";
}
);
layerId = "D92B54DD-6BE9-4383-803D-42A15BF32189";
paths = (
{
closed = 1;
nodes = (
"110 -10 OFFCURVE",
"143 12 OFFCURVE",
"150 50 CURVE SMOOTH",
"256 650 LINE SMOOTH",
"262 688 OFFCURVE",
"237 710 OFFCURVE",
"199 710 CURVE SMOOTH",
"160 710 OFFCURVE",
"129 688 OFFCURVE",
"123 650 CURVE SMOOTH",
"17 50 LINE SMOOTH",
"10 12 OFFCURVE",
"33 -10 OFFCURVE",
"72 -10 CURVE SMOOTH"
);
}
);
width = 233;
}
);
note = I;
unicode = 0049;
},
{
glyphname = J;
lastChange = "2018-05-14 07:25:44 +0000";
layers = (
{
anchors = (
{
name = bottom;
position = "{292, 0}";
},
{
name = top;
position = "{477, 700}";
}
);
layerId = "0B1DFD06-3317-40CA-B510-4969A0718C16";
paths = (
{
closed = 1;
nodes = (
"414 -10 OFFCURVE",
"504 84 OFFCURVE",
"504 215 CURVE SMOOTH",
"504 678 LINE SMOOTH",
"504 699 OFFCURVE",
"494 710 OFFCURVE",
"477 710 CURVE SMOOTH",
"460 710 OFFCURVE",
"451 699 OFFCURVE",
"451 678 CURVE SMOOTH",
"451 211 LINE SMOOTH",
"451 103 OFFCURVE",
"390 40 OFFCURVE",
"287 40 CURVE SMOOTH",
"196 40 OFFCURVE",
"143 65 OFFCURVE",
"93 134 CURVE SMOOTH",
"84 147 OFFCURVE",
"66 150 OFFCURVE",
"54 139 CURVE SMOOTH",
"43 129 OFFCURVE",
"42 117 OFFCURVE",
"52 103 CURVE SMOOTH",
"109 26 OFFCURVE",
"183 -10 OFFCURVE",
"287 -10 CURVE SMOOTH"
);
}
);
width = 584;
},
{
anchors = (
{
name = bottom;
position = "{294, 0}";
},
{
name = top;
position = "{479, 700}";
}
);
layerId = "258BB4CE-589F-454F-8E39-237B943AA0B4";
paths = (
{
closed = 1;
nodes = (
"448 -10 OFFCURVE",
"546 87 OFFCURVE",
"546 238 CURVE SMOOTH",
"546 650 LINE SMOOTH",
"546 686 OFFCURVE",
"519 710 OFFCURVE",
"479 710 CURVE SMOOTH",
"439 710 OFFCURVE",
"413 687 OFFCURVE",
"413 650 CURVE SMOOTH",
"413 234 LINE SMOOTH",
"413 140 OFFCURVE",
"375 96 OFFCURVE",
"294 96 CURVE SMOOTH",
"226 96 OFFCURVE",
"166 123 OFFCURVE",
"133 168 CURVE SMOOTH",
"109 201 OFFCURVE",
"72 208 OFFCURVE",
"43 185 CURVE SMOOTH",
"16 163 OFFCURVE",
"12 133 OFFCURVE",
"33 106 CURVE SMOOTH",
"90 33 OFFCURVE",
"187 -10 OFFCURVE",
"294 -10 CURVE SMOOTH"
);
}
);
width = 591;
},
{
anchors = (
{
name = bottom;
position = "{293, 0}";
},
{
name = top;
position = "{478, 700}";
}
);
layerId = "8ED59CAD-D047-43C0-8308-3370007B39AA";
paths = (
{
closed = 1;
nodes = (
"428 -10 OFFCURVE",
"521 84 OFFCURVE",
"521 224 CURVE SMOOTH",
"521 667 LINE SMOOTH",
"521 694 OFFCURVE",
"505 710 OFFCURVE",
"478 710 CURVE SMOOTH",
"451 710 OFFCURVE",
"436 694 OFFCURVE",
"436 667 CURVE SMOOTH",
"436 220 LINE SMOOTH",
"436 118 OFFCURVE",
"384 62 OFFCURVE",
"290 62 CURVE SMOOTH",
"208 62 OFFCURVE",
"152 89 OFFCURVE",
"109 148 CURVE SMOOTH",
"94 169 OFFCURVE",
"68 173 OFFCURVE",
"50 157 CURVE SMOOTH",
"32 143 OFFCURVE",
"30 123 OFFCURVE",
"44 104 CURVE SMOOTH",
"101 29 OFFCURVE",
"185 -10 OFFCURVE",
"290 -10 CURVE SMOOTH"
);
}
);
width = 586;
},
{
anchors = (
{
name = bottom;
position = "{251, 0}";
},
{
name = top;
position = "{559, 700}";
}
);
layerId = "6D0DA379-F071-4911-97B5-1F20F456FBFD";
paths = (
{
closed = 1;
nodes = (
"380 -10 OFFCURVE",
"476 74 OFFCURVE",
"501 215 CURVE SMOOTH",
"583 678 LINE SMOOTH",
"586 699 OFFCURVE",
"578 710 OFFCURVE",
"561 710 CURVE SMOOTH",
"544 710 OFFCURVE",
"533 699 OFFCURVE",
"530 678 CURVE SMOOTH",
"447 211 LINE SMOOTH",
"428 104 OFFCURVE",
"356 40 OFFCURVE",
"253 40 CURVE SMOOTH",
"157 40 OFFCURVE",
"115 62 OFFCURVE",
"76 134 CURVE SMOOTH",
"68 147 OFFCURVE",
"51 150 OFFCURVE",
"38 139 CURVE SMOOTH",
"25 129 OFFCURVE",
"21 116 OFFCURVE",
"29 103 CURVE SMOOTH",
"76 28 OFFCURVE",
"147 -10 OFFCURVE",
"244 -10 CURVE SMOOTH"
);
}
);
width = 585;
},
{
anchors = (
{
name = bottom;
position = "{252, 0}";
},
{
name = top;
position = "{560, 700}";
}
);
layerId = "71BB0B28-5B77-4945-A3C0-334755DB3BD8";
paths = (
{
closed = 1;
nodes = (
"393 -10 OFFCURVE",
"494 78 OFFCURVE",
"519 224 CURVE SMOOTH",
"598 667 LINE SMOOTH",
"602 694 OFFCURVE",
"588 710 OFFCURVE",
"562 710 CURVE SMOOTH",
"535 710 OFFCURVE",
"517 694 OFFCURVE",
"513 667 CURVE SMOOTH",
"434 220 LINE SMOOTH",
"416 118 OFFCURVE",
"354 62 OFFCURVE",
"260 62 CURVE SMOOTH",
"178 62 OFFCURVE",
"126 89 OFFCURVE",
"94 148 CURVE SMOOTH",
"82 169 OFFCURVE",
"57 173 OFFCURVE",
"37 157 CURVE SMOOTH",
"17 143 OFFCURVE",
"11 124 OFFCURVE",
"21 104 CURVE SMOOTH",
"62 34 OFFCURVE",
"151 -10 OFFCURVE",
"252 -10 CURVE SMOOTH"
);
}
);
width = 587;
},
{
anchors = (
{
name = bottom;
position = "{254, 0}";
},
{
name = top;
position = "{562, 700}";
}
);
layerId = "D92B54DD-6BE9-4383-803D-42A15BF32189";
paths = (
{
closed = 1;
nodes = (
"416 -10 OFFCURVE",
"519 77 OFFCURVE",
"548 238 CURVE SMOOTH",
"621 650 LINE SMOOTH",
"627 686 OFFCURVE",
"604 710 OFFCURVE",
"564 710 CURVE SMOOTH",
"523 710 OFFCURVE",
"494 687 OFFCURVE",
"488 650 CURVE SMOOTH",
"414 234 LINE SMOOTH",
"398 140 OFFCURVE",
"352 96 OFFCURVE",
"271 96 CURVE SMOOTH",
"203 96 OFFCURVE",
"148 123 OFFCURVE",
"123 168 CURVE SMOOTH",
"104 201 OFFCURVE",
"68 208 OFFCURVE",
"36 185 CURVE SMOOTH",
"3 162 OFFCURVE",
"-6 131 OFFCURVE",
"12 106 CURVE SMOOTH",
"66 30 OFFCURVE",
"149 -10 OFFCURVE",
"252 -10 CURVE SMOOTH"
);
}
);
width = 593;
}
);
leftKerningGroup = J;
note = J;
rightKerningGroup = J;
unicode = 004A;
},
{
glyphname = K;
lastChange = "2018-05-14 07:26:32 +0000";
layers = (
{
anchors = (
{
name = bottom;
position = "{336, 0}";
},
{
name = top;
position = "{336, 700}";
}
);
layerId = "0B1DFD06-3317-40CA-B510-4969A0718C16";
paths = (
{
closed = 1;
nodes = (
"611 -11 OFFCURVE",
"618 2 OFFCURVE",
"615 17 CURVE SMOOTH",
"578 189 OFFCURVE",
"498 294 OFFCURVE",
"312 415 CURVE",
"593 661 LINE SMOOTH",
"604 671 OFFCURVE",
"604 685 OFFCURVE",
"594 696 CURVE SMOOTH",
"584 706 OFFCURVE",
"571 707 OFFCURVE",
"562 699 CURVE SMOOTH",
"138 335 LINE",
"138 678 LINE SMOOTH",
"138 699 OFFCURVE",
"128 710 OFFCURVE",
"111 710 CURVE SMOOTH",
"94 710 OFFCURVE",
"85 699 OFFCURVE",
"85 678 CURVE SMOOTH",
"85 22 LINE SMOOTH",
"85 1 OFFCURVE",
"94 -10 OFFCURVE",
"111 -10 CURVE SMOOTH",
"128 -10 OFFCURVE",
"138 1 OFFCURVE",
"138 22 CURVE SMOOTH",
"138 271 LINE",
"273 383 LINE",
"451 275 OFFCURVE",
"526 179 OFFCURVE",
"568 7 CURVE SMOOTH",
"571 -8 OFFCURVE",
"583 -17 OFFCURVE",
"597 -14 CURVE SMOOTH"
);
}
);
width = 671;
},
{
anchors = (
{
name = bottom;
position = "{341, 0}";
},
{
name = top;
position = "{341, 700}";
}
);
layerId = "258BB4CE-589F-454F-8E39-237B943AA0B4";
paths = (
{
closed = 1;
nodes = (
"622 -10 OFFCURVE",
"647 20 OFFCURVE",
"643 54 CURVE SMOOTH",
"627 189 OFFCURVE",
"520 326 OFFCURVE",
"366 409 CURVE",
"597 610 LINE SMOOTH",
"627 636 OFFCURVE",
"628 663 OFFCURVE",
"602 691 CURVE SMOOTH",
"579 716 OFFCURVE",
"545 717 OFFCURVE",
"518 693 CURVE SMOOTH",
"183 401 LINE",
"183 650 LINE SMOOTH",
"183 686 OFFCURVE",
"156 710 OFFCURVE",
"116 710 CURVE SMOOTH",
"76 710 OFFCURVE",
"50 687 OFFCURVE",
"50 650 CURVE SMOOTH",
"50 50 LINE SMOOTH",
"50 13 OFFCURVE",
"76 -10 OFFCURVE",
"116 -10 CURVE SMOOTH",
"156 -10 OFFCURVE",
"183 14 OFFCURVE",
"183 50 CURVE SMOOTH",
"183 256 LINE",
"282 338 LINE",
"422 266 OFFCURVE",
"492 176 OFFCURVE",
"518 34 CURVE SMOOTH",
"523 5 OFFCURVE",
"548 -10 OFFCURVE",
"589 -10 CURVE SMOOTH"
);
}
);
width = 683;
},
{
anchors = (
{
name = bottom;
position = "{337, 0}";
},
{
name = top;
position = "{337, 700}";
}
);
layerId = "8ED59CAD-D047-43C0-8308-3370007B39AA";
paths = (
{
closed = 1;
nodes = (
"614 -11 OFFCURVE",
"629 9 OFFCURVE",
"625 32 CURVE SMOOTH",
"595 191 OFFCURVE",
"505 309 OFFCURVE",
"333 413 CURVE",
"594 641 LINE SMOOTH",
"612 657 OFFCURVE",
"612 676 OFFCURVE",
"596 694 CURVE SMOOTH",
"582 709 OFFCURVE",
"561 711 OFFCURVE",
"543 697 CURVE SMOOTH",
"155 361 LINE",
"155 667 LINE SMOOTH",
"155 694 OFFCURVE",
"139 710 OFFCURVE",
"112 710 CURVE SMOOTH",
"86 710 OFFCURVE",
"70 694 OFFCURVE",
"70 667 CURVE SMOOTH",
"70 33 LINE SMOOTH",
"70 6 OFFCURVE",
"86 -10 OFFCURVE",
"112 -10 CURVE SMOOTH",
"139 -10 OFFCURVE",
"155 7 OFFCURVE",
"155 33 CURVE SMOOTH",
"155 265 LINE",
"276 365 LINE",
"437 273 OFFCURVE",
"511 179 OFFCURVE",
"547 18 CURVE SMOOTH",
"551 -3 OFFCURVE",
"568 -14 OFFCURVE",
"593 -12 CURVE SMOOTH"
);
}
);
width = 671;
},
{
anchors = (
{
name = bottom;
position = "{294, 0}";
},
{
name = top;
position = "{417, 700}";
}
);
layerId = "6D0DA379-F071-4911-97B5-1F20F456FBFD";
paths = (
{
closed = 1;
nodes = (
"567 -11 OFFCURVE",
"577 2 OFFCURVE",
"576 17 CURVE SMOOTH",
"569 189 OFFCURVE",
"508 294 OFFCURVE",
"343 415 CURVE",
"668 661 LINE SMOOTH",
"680 671 OFFCURVE",
"683 685 OFFCURVE",
"675 696 CURVE SMOOTH",
"667 706 OFFCURVE",
"654 707 OFFCURVE",
"643 699 CURVE SMOOTH",
"155 335 LINE",
"216 678 LINE SMOOTH",
"219 699 OFFCURVE",
"211 710 OFFCURVE",
"194 710 CURVE SMOOTH",
"177 710 OFFCURVE",
"166 699 OFFCURVE",
"163 678 CURVE SMOOTH",
"47 22 LINE SMOOTH",
"43 1 OFFCURVE",
"50 -10 OFFCURVE",
"67 -10 CURVE SMOOTH",
"84 -10 OFFCURVE",
"96 1 OFFCURVE",
"100 22 CURVE SMOOTH",
"144 271 LINE",
"299 383 LINE",
"460 280 OFFCURVE",
"516 188 OFFCURVE",
"527 7 CURVE SMOOTH",
"528 -8 OFFCURVE",
"538 -17 OFFCURVE",
"553 -14 CURVE SMOOTH"
);
}
);
width = 670;
},
{
anchors = (
{
name = bottom;
position = "{295, 0}";
},
{
name = top;
position = "{418, 700}";
}
);
layerId = "71BB0B28-5B77-4945-A3C0-334755DB3BD8";
paths = (
{
closed = 1;
nodes = (
"570 -11 OFFCURVE",
"589 9 OFFCURVE",
"589 32 CURVE SMOOTH",
"587 191 OFFCURVE",
"518 309 OFFCURVE",
"364 413 CURVE",
"665 641 LINE SMOOTH",
"685 657 OFFCURVE",
"689 675 OFFCURVE",
"676 694 CURVE SMOOTH",
"664 709 OFFCURVE",
"644 711 OFFCURVE",
"624 697 CURVE SMOOTH",
"177 361 LINE",
"231 667 LINE SMOOTH",
"235 694 OFFCURVE",
"221 710 OFFCURVE",
"195 710 CURVE SMOOTH",
"169 710 OFFCURVE",
"150 694 OFFCURVE",
"146 667 CURVE SMOOTH",
"34 33 LINE SMOOTH",
"29 6 OFFCURVE",
"42 -10 OFFCURVE",
"68 -10 CURVE SMOOTH",
"95 -10 OFFCURVE",
"114 7 OFFCURVE",
"119 33 CURVE SMOOTH",
"160 265 LINE",
"298 365 LINE",
"451 268 OFFCURVE",
"503 182 OFFCURVE",
"508 18 CURVE SMOOTH",
"509 -3 OFFCURVE",
"525 -14 OFFCURVE",
"549 -12 CURVE SMOOTH"
);
}
);
width = 670;
},
{
anchors = (
{
name = bottom;
position = "{299, 0}";
},
{
name = top;
position = "{422, 700}";
}
);
layerId = "D92B54DD-6BE9-4383-803D-42A15BF32189";
paths = (
{
closed = 1;
nodes = (
"578 -10 OFFCURVE",
"609 20 OFFCURVE",
"611 54 CURVE SMOOTH",
"618 180 OFFCURVE",
"545 320 OFFCURVE",
"396 409 CURVE",
"663 610 LINE SMOOTH",
"696 635 OFFCURVE",
"704 662 OFFCURVE",
"682 691 CURVE SMOOTH",
"661 719 OFFCURVE",
"626 714 OFFCURVE",
"598 693 CURVE SMOOTH",
"212 401 LINE",
"256 650 LINE SMOOTH",
"262 688 OFFCURVE",
"237 710 OFFCURVE",
"199 710 CURVE SMOOTH",
"160 710 OFFCURVE",
"129 688 OFFCURVE",
"123 650 CURVE SMOOTH",
"17 50 LINE SMOOTH",
"10 12 OFFCURVE",
"33 -10 OFFCURVE",
"72 -10 CURVE SMOOTH",
"110 -10 OFFCURVE",
"143 12 OFFCURVE",
"150 50 CURVE SMOOTH",
"186 256 LINE",
"300 338 LINE",
"433 262 OFFCURVE",
"481 169 OFFCURVE",
"482 34 CURVE SMOOTH",
"482 2 OFFCURVE",
"509 -10 OFFCURVE",
"545 -10 CURVE SMOOTH"
);
}
);
width = 683;
}
);
note = K;
rightKerningGroup = K;
unicode = 004B;
},
{
glyphname = L;
lastChange = "2018-05-14 07:26:56 +0000";
layers = (
{
anchors = (
{
name = bottom;
position = "{304, 0}";
},
{
name = center;
position = "{304, 350}";
},
{
name = top;
position = "{304, 700}";
},
{
name = topright;
position = "{583, 700}";
}
);
layerId = "0B1DFD06-3317-40CA-B510-4969A0718C16";
paths = (
{
closed = 1;
nodes = (
"533 0 LINE SMOOTH",
"553 0 OFFCURVE",
"563 8 OFFCURVE",
"563 23 CURVE SMOOTH",
"563 40 OFFCURVE",
"554 47 OFFCURVE",
"533 47 CURVE SMOOTH",
"195 47 LINE SMOOTH",
"160 47 OFFCURVE",
"138 71 OFFCURVE",
"138 107 CURVE SMOOTH",
"138 678 LINE SMOOTH",
"138 699 OFFCURVE",
"128 710 OFFCURVE",
"111 710 CURVE SMOOTH",
"94 710 OFFCURVE",
"85 699 OFFCURVE",
"85 678 CURVE SMOOTH",
"85 110 LINE SMOOTH",
"85 41 OFFCURVE",
"128 0 OFFCURVE",
"201 0 CURVE SMOOTH"
);
}
);
width = 608;
},
{
anchors = (
{
name = bottom;
position = "{304, 0}";
},
{
name = center;
position = "{304, 350}";
},
{
name = top;
position = "{304, 700}";
},
{
name = topright;
position = "{583, 700}";
}
);
layerId = "258BB4CE-589F-454F-8E39-237B943AA0B4";
paths = (
{
closed = 1;
nodes = (
"546 0 LINE SMOOTH",
"585 0 OFFCURVE",
"608 19 OFFCURVE",
"608 51 CURVE SMOOTH",
"608 84 OFFCURVE",
"586 103 OFFCURVE",
"546 103 CURVE SMOOTH",
"226 103 LINE SMOOTH",
"199 103 OFFCURVE",
"183 121 OFFCURVE",
"183 152 CURVE SMOOTH",
"183 650 LINE SMOOTH",
"183 686 OFFCURVE",
"156 710 OFFCURVE",
"116 710 CURVE SMOOTH",
"76 710 OFFCURVE",
"50 687 OFFCURVE",
"50 650 CURVE SMOOTH",
"50 152 LINE SMOOTH",
"50 56 OFFCURVE",
"109 0 OFFCURVE",
"210 0 CURVE SMOOTH"
);
}
);
width = 628;
},
{
anchors = (
{
name = bottom;
position = "{303, 0}";
},
{
name = center;
position = "{303, 350}";
},
{
name = top;
position = "{303, 700}";
},
{
name = topright;
position = "{582, 700}";
}
);
layerId = "8ED59CAD-D047-43C0-8308-3370007B39AA";
paths = (
{
closed = 1;
nodes = (
"537 0 LINE SMOOTH",
"564 0 OFFCURVE",
"580 12 OFFCURVE",
"580 34 CURVE SMOOTH",
"580 57 OFFCURVE",
"566 69 OFFCURVE",
"537 69 CURVE SMOOTH",
"206 69 LINE SMOOTH",
"175 69 OFFCURVE",
"155 91 OFFCURVE",
"155 125 CURVE SMOOTH",
"155 667 LINE SMOOTH",
"155 694 OFFCURVE",
"139 710 OFFCURVE",
"112 710 CURVE SMOOTH",
"86 710 OFFCURVE",
"70 694 OFFCURVE",
"70 667 CURVE SMOOTH",
"70 127 LINE SMOOTH",
"70 47 OFFCURVE",
"119 0 OFFCURVE",
"204 0 CURVE SMOOTH"
);
}
);
width = 615;
},
{
anchors = (
{
name = bottom;
position = "{262, 0}";
},
{
name = center;
position = "{324, 350}";
},
{
name = top;
position = "{385, 700}";
},
{
name = topright;
position = "{664, 700}";
}
);
layerId = "6D0DA379-F071-4911-97B5-1F20F456FBFD";
paths = (
{
closed = 1;
nodes = (
"492 0 LINE SMOOTH",
"512 0 OFFCURVE",
"523 8 OFFCURVE",
"526 23 CURVE SMOOTH",
"530 39 OFFCURVE",
"521 47 OFFCURVE",
"500 47 CURVE SMOOTH",
"162 47 LINE SMOOTH",
"128 47 OFFCURVE",
"110 70 OFFCURVE",
"116 107 CURVE SMOOTH",
"217 678 LINE SMOOTH",
"221 698 OFFCURVE",
"213 710 OFFCURVE",
"195 710 CURVE SMOOTH",
"178 710 OFFCURVE",
"168 700 OFFCURVE",
"164 678 CURVE SMOOTH",
"63 110 LINE SMOOTH",
"51 44 OFFCURVE",
"90 0 OFFCURVE",
"160 0 CURVE SMOOTH"
);
}
);
width = 608;
},
{
anchors = (
{
name = bottom;
position = "{262, 0}";
},
{
name = center;
position = "{324, 350}";
},
{
name = top;
position = "{385, 700}";
},
{
name = topright;
position = "{664, 700}";
}
);
layerId = "71BB0B28-5B77-4945-A3C0-334755DB3BD8";
paths = (
{
closed = 1;
nodes = (
"496 0 LINE SMOOTH",
"523 0 OFFCURVE",
"541 12 OFFCURVE",
"545 34 CURVE SMOOTH",
"549 58 OFFCURVE",
"537 69 OFFCURVE",
"508 69 CURVE SMOOTH",
"177 69 LINE SMOOTH",
"146 69 OFFCURVE",
"130 91 OFFCURVE",
"136 125 CURVE SMOOTH",
"232 667 LINE SMOOTH",
"236 694 OFFCURVE",
"222 710 OFFCURVE",
"196 710 CURVE SMOOTH",
"170 710 OFFCURVE",
"151 694 OFFCURVE",
"147 667 CURVE SMOOTH",
"51 127 LINE SMOOTH",
"38 52 OFFCURVE",
"83 0 OFFCURVE",
"163 0 CURVE SMOOTH"
);
}
);
width = 615;
},
{
anchors = (
{
name = bottom;
position = "{262, 0}";
},
{
name = center;
position = "{324, 350}";
},
{
name = top;
position = "{385, 700}";
},
{
name = topright;
position = "{664, 700}";
}
);
layerId = "D92B54DD-6BE9-4383-803D-42A15BF32189";
paths = (
{
closed = 1;
nodes = (
"504 0 LINE SMOOTH",
"543 0 OFFCURVE",
"569 19 OFFCURVE",
"575 51 CURVE SMOOTH",
"581 84 OFFCURVE",
"562 103 OFFCURVE",
"522 103 CURVE SMOOTH",
"202 103 LINE SMOOTH",
"175 103 OFFCURVE",
"162 121 OFFCURVE",
"168 152 CURVE SMOOTH",
"256 650 LINE SMOOTH",
"262 686 OFFCURVE",
"239 710 OFFCURVE",
"199 710 CURVE SMOOTH",
"158 710 OFFCURVE",
"129 687 OFFCURVE",
"123 650 CURVE SMOOTH",
"35 152 LINE SMOOTH",
"18 56 OFFCURVE",
"67 0 OFFCURVE",
"168 0 CURVE SMOOTH"
);
}
);
width = 627;
}
);
note = L;
rightKerningGroup = L;
unicode = 004C;
},
{
glyphname = M;
lastChange = "2018-05-14 07:27:22 +0000";
layers = (
{
anchors = (
{
name = bottom;
position = "{486, 0}";
},
{
name = top;
position = "{486, 700}";
}
);
layerId = "0B1DFD06-3317-40CA-B510-4969A0718C16";
paths = (
{
closed = 1;
nodes = (
"123 -10 OFFCURVE",
"133 1 OFFCURVE",
"133 22 CURVE SMOOTH",
"133 490 LINE SMOOTH",
"133 605 OFFCURVE",
"186 660 OFFCURVE",
"296 660 CURVE SMOOTH",
"395 660 OFFCURVE",
"460 592 OFFCURVE",
"460 490 CURVE SMOOTH",
"460 22 LINE SMOOTH",
"460 1 OFFCURVE",
"469 -10 OFFCURVE",
"485 -10 CURVE SMOOTH",
"502 -10 OFFCURVE",
"511 1 OFFCURVE",
"511 22 CURVE SMOOTH",
"511 490 LINE SMOOTH",
"511 595 OFFCURVE",
"574 660 OFFCURVE",
"675 660 CURVE SMOOTH",
"785 660 OFFCURVE",
"838 605 OFFCURVE",
"838 490 CURVE SMOOTH",
"838 22 LINE SMOOTH",
"838 1 OFFCURVE",
"847 -10 OFFCURVE",
"864 -10 CURVE SMOOTH",
"881 -10 OFFCURVE",
"891 1 OFFCURVE",
"891 22 CURVE SMOOTH",
"891 490 LINE SMOOTH",
"891 627 OFFCURVE",
"810 710 OFFCURVE",
"675 710 CURVE SMOOTH",
"588 710 OFFCURVE",
"514 663 OFFCURVE",
"485 591 CURVE",
"457 662 OFFCURVE",
"380 710 OFFCURVE",
"296 710 CURVE SMOOTH",
"161 710 OFFCURVE",
"80 627 OFFCURVE",
"80 490 CURVE SMOOTH",
"80 22 LINE SMOOTH",
"80 1 OFFCURVE",
"89 -10 OFFCURVE",
"106 -10 CURVE SMOOTH"
);
}
);
width = 971;
},
{
anchors = (
{
name = bottom;
position = "{496, 0}";
},
{
name = top;
position = "{496, 700}";
}
);
layerId = "258BB4CE-589F-454F-8E39-237B943AA0B4";
paths = (
{
closed = 1;
nodes = (
"156 -10 OFFCURVE",
"183 14 OFFCURVE",
"183 50 CURVE SMOOTH",
"183 462 LINE SMOOTH",
"183 564 OFFCURVE",
"218 605 OFFCURVE",
"303 605 CURVE SMOOTH",
"379 605 OFFCURVE",
"424 552 OFFCURVE",
"424 462 CURVE SMOOTH",
"424 50 LINE SMOOTH",
"424 13 OFFCURVE",
"449 -10 OFFCURVE",
"489 -10 CURVE SMOOTH",
"529 -10 OFFCURVE",
"555 13 OFFCURVE",
"555 50 CURVE SMOOTH",
"555 462 LINE SMOOTH",
"555 554 OFFCURVE",
"598 605 OFFCURVE",
"676 605 CURVE SMOOTH",
"761 605 OFFCURVE",
"796 564 OFFCURVE",
"796 462 CURVE SMOOTH",
"796 50 LINE SMOOTH",
"796 13 OFFCURVE",
"822 -10 OFFCURVE",
"862 -10 CURVE SMOOTH",
"902 -10 OFFCURVE",
"929 14 OFFCURVE",
"929 50 CURVE SMOOTH",
"929 462 LINE SMOOTH",
"929 617 OFFCURVE",
"836 710 OFFCURVE",
"681 710 CURVE SMOOTH",
"604 710 OFFCURVE",
"536 673 OFFCURVE",
"489 604 CURVE",
"441 672 OFFCURVE",
"373 710 OFFCURVE",
"298 710 CURVE SMOOTH",
"143 710 OFFCURVE",
"50 617 OFFCURVE",
"50 462 CURVE SMOOTH",
"50 50 LINE SMOOTH",
"50 13 OFFCURVE",
"76 -10 OFFCURVE",
"116 -10 CURVE SMOOTH"
);
}
);
width = 979;
},
{
anchors = (
{
name = bottom;
position = "{487, 0}";
},
{
name = top;
position = "{487, 700}";
}
);
layerId = "8ED59CAD-D047-43C0-8308-3370007B39AA";
paths = (
{
closed = 1;
nodes = (
"134 -10 OFFCURVE",
"150 7 OFFCURVE",
"150 33 CURVE SMOOTH",
"150 479 LINE SMOOTH",
"150 588 OFFCURVE",
"196 638 OFFCURVE",
"296 638 CURVE SMOOTH",
"385 638 OFFCURVE",
"443 576 OFFCURVE",
"443 479 CURVE SMOOTH",
"443 33 LINE SMOOTH",
"443 6 OFFCURVE",
"458 -10 OFFCURVE",
"484 -10 CURVE SMOOTH",
"510 -10 OFFCURVE",
"526 6 OFFCURVE",
"526 33 CURVE SMOOTH",
"526 479 LINE SMOOTH",
"526 579 OFFCURVE",
"580 638 OFFCURVE",
"672 638 CURVE SMOOTH",
"772 638 OFFCURVE",
"818 588 OFFCURVE",
"818 479 CURVE SMOOTH",
"818 33 LINE SMOOTH",
"818 6 OFFCURVE",
"834 -10 OFFCURVE",
"860 -10 CURVE SMOOTH",
"887 -10 OFFCURVE",
"903 7 OFFCURVE",
"903 33 CURVE SMOOTH",
"903 479 LINE SMOOTH",
"903 624 OFFCURVE",
"817 710 OFFCURVE",
"674 710 CURVE SMOOTH",
"591 710 OFFCURVE",
"520 667 OFFCURVE",
"484 596 CURVE",
"447 666 OFFCURVE",
"374 710 OFFCURVE",
"294 710 CURVE SMOOTH",
"151 710 OFFCURVE",
"65 623 OFFCURVE",
"65 479 CURVE SMOOTH",
"65 33 LINE SMOOTH",
"65 6 OFFCURVE",
"81 -10 OFFCURVE",
"107 -10 CURVE SMOOTH"
);
}
);
width = 968;
},
{
anchors = (
{
name = bottom;
position = "{445, 0}";
},
{
name = top;
position = "{568, 700}";
}
);
layerId = "6D0DA379-F071-4911-97B5-1F20F456FBFD";
paths = (
{
closed = 1;
nodes = (
"80 -10 OFFCURVE",
"92 1 OFFCURVE",
"96 22 CURVE SMOOTH",
"178 490 LINE SMOOTH",
"198 602 OFFCURVE",
"264 660 OFFCURVE",
"371 660 CURVE SMOOTH",
"470 660 OFFCURVE",
"523 592 OFFCURVE",
"505 490 CURVE SMOOTH",
"423 22 LINE SMOOTH",
"419 1 OFFCURVE",
"426 -10 OFFCURVE",
"442 -10 CURVE SMOOTH",
"459 -10 OFFCURVE",
"470 1 OFFCURVE",
"474 22 CURVE SMOOTH",
"556 490 LINE SMOOTH",
"575 595 OFFCURVE",
"649 660 OFFCURVE",
"750 660 CURVE SMOOTH",
"860 660 OFFCURVE",
"903 605 OFFCURVE",
"883 490 CURVE SMOOTH",
"801 22 LINE SMOOTH",
"797 1 OFFCURVE",
"804 -10 OFFCURVE",
"821 -10 CURVE SMOOTH",
"838 -10 OFFCURVE",
"850 1 OFFCURVE",
"854 22 CURVE SMOOTH",
"936 490 LINE SMOOTH",
"961 627 OFFCURVE",
"894 710 OFFCURVE",
"759 710 CURVE SMOOTH",
"671 710 OFFCURVE",
"585 662 OFFCURVE",
"544 591 CURVE",
"529 659 OFFCURVE",
"457 710 OFFCURVE",
"376 710 CURVE SMOOTH",
"239 710 OFFCURVE",
"150 632 OFFCURVE",
"125 490 CURVE SMOOTH",
"43 22 LINE SMOOTH",
"39 1 OFFCURVE",
"46 -10 OFFCURVE",
"63 -10 CURVE SMOOTH"
);
}
);
width = 972;
},
{
anchors = (
{
name = bottom;
position = "{446, 0}";
},
{
name = top;
position = "{569, 700}";
}
);
layerId = "71BB0B28-5B77-4945-A3C0-334755DB3BD8";
paths = (
{
closed = 1;
nodes = (
"91 -10 OFFCURVE",
"110 7 OFFCURVE",
"115 33 CURVE SMOOTH",
"193 479 LINE SMOOTH",
"213 589 OFFCURVE",
"267 638 OFFCURVE",
"367 638 CURVE SMOOTH",
"457 638 OFFCURVE",
"504 575 OFFCURVE",
"486 479 CURVE SMOOTH",
"408 33 LINE SMOOTH",
"403 6 OFFCURVE",
"415 -10 OFFCURVE",
"441 -10 CURVE SMOOTH",
"467 -10 OFFCURVE",
"486 6 OFFCURVE",
"491 33 CURVE SMOOTH",
"569 479 LINE SMOOTH",
"587 579 OFFCURVE",
"652 638 OFFCURVE",
"743 638 CURVE SMOOTH",
"844 638 OFFCURVE",
"881 588 OFFCURVE",
"861 479 CURVE SMOOTH",
"783 33 LINE SMOOTH",
"778 6 OFFCURVE",
"791 -10 OFFCURVE",
"817 -10 CURVE SMOOTH",
"844 -10 OFFCURVE",
"863 7 OFFCURVE",
"868 33 CURVE SMOOTH",
"946 479 LINE SMOOTH",
"971 619 OFFCURVE",
"894 710 OFFCURVE",
"753 710 CURVE SMOOTH",
"671 710 OFFCURVE",
"593 668 OFFCURVE",
"543 596 CURVE",
"519 666 OFFCURVE",
"453 710 OFFCURVE",
"373 710 CURVE SMOOTH",
"225 710 OFFCURVE",
"135 631 OFFCURVE",
"108 479 CURVE SMOOTH",
"30 33 LINE SMOOTH",
"25 6 OFFCURVE",
"38 -10 OFFCURVE",
"64 -10 CURVE SMOOTH"
);
}
);
width = 969;
},
{
anchors = (
{
name = bottom;
position = "{455, 0}";
},
{
name = top;
position = "{578, 700}";
}
);
layerId = "D92B54DD-6BE9-4383-803D-42A15BF32189";
paths = (
{
closed = 1;
nodes = (
"113 -10 OFFCURVE",
"144 14 OFFCURVE",
"151 50 CURVE SMOOTH",
"223 462 LINE SMOOTH",
"241 564 OFFCURVE",
"283 605 OFFCURVE",
"369 605 CURVE SMOOTH",
"445 605 OFFCURVE",
"480 551 OFFCURVE",
"464 462 CURVE SMOOTH",
"392 50 LINE SMOOTH",
"385 13 OFFCURVE",
"406 -10 OFFCURVE",
"446 -10 CURVE SMOOTH",
"486 -10 OFFCURVE",
"516 13 OFFCURVE",
"523 50 CURVE SMOOTH",
"595 462 LINE SMOOTH",
"612 554 OFFCURVE",
"664 605 OFFCURVE",
"742 605 CURVE SMOOTH",
"827 605 OFFCURVE",
"854 564 OFFCURVE",
"836 462 CURVE SMOOTH",
"764 50 LINE SMOOTH",
"757 13 OFFCURVE",
"779 -10 OFFCURVE",
"819 -10 CURVE SMOOTH",
"859 -10 OFFCURVE",
"890 14 OFFCURVE",
"897 50 CURVE SMOOTH",
"969 462 LINE SMOOTH",
"995 612 OFFCURVE",
"913 710 OFFCURVE",
"761 710 CURVE SMOOTH",
"684 710 OFFCURVE",
"609 672 OFFCURVE",
"551 604 CURVE",
"514 673 OFFCURVE",
"453 710 OFFCURVE",
"378 710 CURVE SMOOTH",
"218 710 OFFCURVE",
"119 625 OFFCURVE",
"90 462 CURVE SMOOTH",
"18 50 LINE SMOOTH",
"11 13 OFFCURVE",
"33 -10 OFFCURVE",
"73 -10 CURVE SMOOTH"
);
}
);
width = 980;
}
);
leftKerningGroup = M;
note = M;
rightKerningGroup = M;
unicode = 004D;
},
{
glyphname = N;
lastChange = "2018-05-14 09:56:15 +0000";
layers = (
{
anchors = (
{
name = bottom;
position = "{361, 0}";
},
{
name = top;
position = "{361, 700}";
}
);
background = {
paths = (
{
closed = 1;
nodes = (
"124 -10 OFFCURVE",
"133 2 OFFCURVE",
"133 22 CURVE SMOOTH",
"133 557 LINE SMOOTH",
"133 622 OFFCURVE",
"163 659 OFFCURVE",
"229 659 CURVE SMOOTH",
"358 659 OFFCURVE",
"412 500 OFFCURVE",
"539 246 CURVE SMOOTH",
"584 156 LINE",
"584 22 LINE SMOOTH",
"584 2 OFFCURVE",
"592 -10 OFFCURVE",
"610 -10 CURVE SMOOTH",
"628 -10 OFFCURVE",
"637 2 OFFCURVE",
"637 22 CURVE SMOOTH",
"637 678 LINE SMOOTH",
"637 698 OFFCURVE",
"628 710 OFFCURVE",
"610 710 CURVE SMOOTH",
"592 710 OFFCURVE",
"584 698 OFFCURVE",
"584 678 CURVE SMOOTH",
"584 269 LINE",
"559 320 LINE SMOOTH",
"454 535 OFFCURVE",
"382 710 OFFCURVE",
"229 710 CURVE SMOOTH",
"152 710 OFFCURVE",
"80 662 OFFCURVE",
"80 557 CURVE SMOOTH",
"80 22 LINE SMOOTH",
"80 2 OFFCURVE",
"88 -10 OFFCURVE",
"106 -10 CURVE SMOOTH"
);
}
);
};
layerId = "0B1DFD06-3317-40CA-B510-4969A0718C16";
paths = (
{
closed = 1;
nodes = (
"123 -10 OFFCURVE",
"133 1 OFFCURVE",
"133 22 CURVE SMOOTH",
"133 444 LINE SMOOTH",
"133 583 OFFCURVE",
"217 661 OFFCURVE",
"365 661 CURVE SMOOTH",
"513 661 OFFCURVE",
"597 583 OFFCURVE",
"597 444 CURVE SMOOTH",
"597 22 LINE SMOOTH",
"597 1 OFFCURVE",
"607 -10 OFFCURVE",
"624 -10 CURVE SMOOTH",
"641 -10 OFFCURVE",
"650 1 OFFCURVE",
"650 22 CURVE SMOOTH",
"650 441 LINE SMOOTH",
"650 610 OFFCURVE",
"544 710 OFFCURVE",
"365 710 CURVE SMOOTH",
"186 710 OFFCURVE",
"80 610 OFFCURVE",
"80 441 CURVE SMOOTH",
"80 22 LINE SMOOTH",
"80 1 OFFCURVE",
"89 -10 OFFCURVE",
"106 -10 CURVE SMOOTH"
);
}
);
width = 730;
},
{
anchors = (
{
name = bottom;
position = "{362, 0}";
},
{
name = top;
position = "{362, 690}";
}
);
layerId = "258BB4CE-589F-454F-8E39-237B943AA0B4";
paths = (
{
closed = 1;
nodes = (
"151 -10 OFFCURVE",
"178 14 OFFCURVE",
"178 50 CURVE SMOOTH",
"178 430 LINE SMOOTH",
"178 544 OFFCURVE",
"241 605 OFFCURVE",
"358 605 CURVE SMOOTH",
"475 605 OFFCURVE",
"538 544 OFFCURVE",
"538 430 CURVE SMOOTH",
"538 50 LINE SMOOTH",
"538 14 OFFCURVE",
"565 -10 OFFCURVE",
"605 -10 CURVE SMOOTH",
"645 -10 OFFCURVE",
"671 13 OFFCURVE",
"671 50 CURVE SMOOTH",
"671 427 LINE SMOOTH",
"671 604 OFFCURVE",
"554 710 OFFCURVE",
"358 710 CURVE SMOOTH",
"162 710 OFFCURVE",
"45 604 OFFCURVE",
"45 427 CURVE SMOOTH",
"45 50 LINE SMOOTH",
"45 13 OFFCURVE",
"71 -10 OFFCURVE",
"111 -10 CURVE SMOOTH"
);
}
);
width = 716;
},
{
anchors = (
{
name = bottom;
position = "{360, 0}";
},
{
name = top;
position = "{360, 696}";
}
);
layerId = "8ED59CAD-D047-43C0-8308-3370007B39AA";
paths = (
{
closed = 1;
nodes = (
"134 -10 OFFCURVE",
"150 7 OFFCURVE",
"150 33 CURVE SMOOTH",
"150 439 LINE SMOOTH",
"150 561 OFFCURVE",
"232 639 OFFCURVE",
"360 639 CURVE SMOOTH",
"491 639 OFFCURVE",
"569 565 OFFCURVE",
"569 439 CURVE SMOOTH",
"569 33 LINE SMOOTH",
"569 7 OFFCURVE",
"586 -10 OFFCURVE",
"612 -10 CURVE SMOOTH",
"639 -10 OFFCURVE",
"654 6 OFFCURVE",
"654 33 CURVE SMOOTH",
"654 436 LINE SMOOTH",
"654 604 OFFCURVE",
"540 710 OFFCURVE",
"360 710 CURVE SMOOTH",
"179 710 OFFCURVE",
"65 604 OFFCURVE",
"65 436 CURVE SMOOTH",
"65 33 LINE SMOOTH",
"65 6 OFFCURVE",
"81 -10 OFFCURVE",
"107 -10 CURVE SMOOTH"
);
}
);
width = 719;
},
{
anchors = (
{
name = bottom;
position = "{330, 0}";
},
{
name = top;
position = "{445, 690}";
}
);
layerId = "6D0DA379-F071-4911-97B5-1F20F456FBFD";
paths = (
{
closed = 1;
nodes = (
"79 -10 OFFCURVE",
"91 1 OFFCURVE",
"95 22 CURVE SMOOTH",
"170 444 LINE SMOOTH",
"195 586 OFFCURVE",
"288 661 OFFCURVE",
"440 661 CURVE SMOOTH",
"595 661 OFFCURVE",
"660 589 OFFCURVE",
"634 444 CURVE SMOOTH",
"559 22 LINE SMOOTH",
"555 1 OFFCURVE",
"562 -10 OFFCURVE",
"580 -10 CURVE SMOOTH",
"597 -10 OFFCURVE",
"608 1 OFFCURVE",
"612 22 CURVE SMOOTH",
"686 441 LINE SMOOTH",
"716 608 OFFCURVE",
"624 710 OFFCURVE",
"443 710 CURVE SMOOTH",
"262 710 OFFCURVE",
"147 615 OFFCURVE",
"116 441 CURVE SMOOTH",
"42 22 LINE SMOOTH",
"38 1 OFFCURVE",
"45 -10 OFFCURVE",
"62 -10 CURVE SMOOTH"
);
}
);
width = 730;
},
{
anchors = (
{
name = bottom;
position = "{327, 0}";
},
{
name = top;
position = "{433, 696}";
}
);
layerId = "71BB0B28-5B77-4945-A3C0-334755DB3BD8";
paths = (
{
closed = 1;
nodes = (
"90 -10 OFFCURVE",
"109 7 OFFCURVE",
"114 33 CURVE SMOOTH",
"185 439 LINE SMOOTH",
"207 561 OFFCURVE",
"303 639 OFFCURVE",
"431 639 CURVE SMOOTH",
"565 639 OFFCURVE",
"627 567 OFFCURVE",
"604 439 CURVE SMOOTH",
"533 33 LINE SMOOTH",
"528 6 OFFCURVE",
"542 -10 OFFCURVE",
"568 -10 CURVE SMOOTH",
"595 -10 OFFCURVE",
"613 6 OFFCURVE",
"618 33 CURVE SMOOTH",
"689 436 LINE SMOOTH",
"718 600 OFFCURVE",
"616 710 OFFCURVE",
"436 710 CURVE SMOOTH",
"255 710 OFFCURVE",
"131 609 OFFCURVE",
"100 436 CURVE SMOOTH",
"29 33 LINE SMOOTH",
"24 6 OFFCURVE",
"37 -10 OFFCURVE",
"63 -10 CURVE SMOOTH"
);
}
);
width = 719;
},
{
anchors = (
{
name = bottom;
position = "{319, 0}";
},
{
name = top;
position = "{431, 690}";
}
);
layerId = "D92B54DD-6BE9-4383-803D-42A15BF32189";
paths = (
{
closed = 1;
nodes = (
"108 -10 OFFCURVE",
"139 14 OFFCURVE",
"146 50 CURVE SMOOTH",
"213 430 LINE SMOOTH",
"233 544 OFFCURVE",
"307 605 OFFCURVE",
"424 605 CURVE SMOOTH",
"543 605 OFFCURVE",
"594 546 OFFCURVE",
"573 430 CURVE SMOOTH",
"506 50 LINE SMOOTH",
"499 14 OFFCURVE",
"522 -10 OFFCURVE",
"562 -10 CURVE SMOOTH",
"602 -10 OFFCURVE",
"632 13 OFFCURVE",
"639 50 CURVE SMOOTH",
"705 427 LINE SMOOTH",
"734 596 OFFCURVE",
"626 710 OFFCURVE",
"436 710 CURVE SMOOTH",
"232 710 OFFCURVE",
"112 615 OFFCURVE",
"79 427 CURVE SMOOTH",
"13 50 LINE SMOOTH",
"6 13 OFFCURVE",
"28 -10 OFFCURVE",
"68 -10 CURVE SMOOTH"
);
}
);
width = 717;
}
);
leftKerningGroup = N;
note = N;
rightKerningGroup = N;
unicode = 004E;
},
{
glyphname = O;
lastChange = "2018-05-14 09:58:29 +0000";
layers = (
{
anchors = (
{
name = bottom;
position = "{404, 0}";
},
{
name = center;
position = "{404, 350}";
},
{
name = ogonek;
position = "{723, 10}";
},
{
name = top;
position = "{404, 700}";
},
{
name = topleft;
position = "{25, 700}";
},
{
name = topright;
position = "{644, 645}";
}
);
layerId = "0B1DFD06-3317-40CA-B510-4969A0718C16";
paths = (
{
closed = 1;
nodes = (
"592 -10 OFFCURVE",
"753 127 OFFCURVE",
"753 350 CURVE SMOOTH",
"753 573 OFFCURVE",
"592 710 OFFCURVE",
"404 710 CURVE SMOOTH",
"216 710 OFFCURVE",
"55 573 OFFCURVE",
"55 350 CURVE SMOOTH",
"55 127 OFFCURVE",
"216 -10 OFFCURVE",
"404 -10 CURVE SMOOTH"
);
},
{
closed = 1;
nodes = (
"241 39 OFFCURVE",
"108 147 OFFCURVE",
"108 350 CURVE SMOOTH",
"108 553 OFFCURVE",
"241 661 OFFCURVE",
"404 661 CURVE SMOOTH",
"567 661 OFFCURVE",
"700 553 OFFCURVE",
"700 350 CURVE SMOOTH",
"700 147 OFFCURVE",
"567 39 OFFCURVE",
"404 39 CURVE SMOOTH"
);
}
);
width = 808;
},
{
anchors = (
{
name = bottom;
position = "{414, 0}";
},
{
name = center;
position = "{429, 350}";
},
{
name = ogonek;
position = "{748, 10}";
},
{
name = top;
position = "{414, 690}";
},
{
name = topleft;
position = "{50, 700}";
},
{
name = topright;
position = "{671, 637}";
}
);
layerId = "258BB4CE-589F-454F-8E39-237B943AA0B4";
paths = (
{
closed = 1;
nodes = (
"652 -10 OFFCURVE",
"788 139 OFFCURVE",
"788 350 CURVE SMOOTH",
"788 561 OFFCURVE",
"652 710 OFFCURVE",
"414 710 CURVE SMOOTH",
"176 710 OFFCURVE",
"40 561 OFFCURVE",
"40 350 CURVE SMOOTH",
"40 139 OFFCURVE",
"176 -10 OFFCURVE",
"414 -10 CURVE SMOOTH"
);
},
{
closed = 1;
nodes = (
"260 95 OFFCURVE",
"174 195 OFFCURVE",
"174 350 CURVE SMOOTH",
"174 505 OFFCURVE",
"260 610 OFFCURVE",
"414 605 CURVE SMOOTH",
"568 600 OFFCURVE",
"654 505 OFFCURVE",
"654 350 CURVE SMOOTH",
"654 195 OFFCURVE",
"568 95 OFFCURVE",
"414 95 CURVE SMOOTH"
);
}
);
width = 828;
},
{
anchors = (
{
name = bottom;
position = "{404, 0}";
},
{
name = center;
position = "{410, 350}";
},
{
name = ogonek;
position = "{729, 10}";
},
{
name = top;
position = "{404, 696}";
},
{
name = topleft;
position = "{31, 700}";
},
{
name = topright;
position = "{651, 642}";
}
);
layerId = "8ED59CAD-D047-43C0-8308-3370007B39AA";
paths = (
{
closed = 1;
nodes = (
"612 -10 OFFCURVE",
"763 132 OFFCURVE",
"763 350 CURVE SMOOTH",
"763 568 OFFCURVE",
"612 710 OFFCURVE",
"404 710 CURVE SMOOTH",
"196 710 OFFCURVE",
"45 568 OFFCURVE",
"45 350 CURVE SMOOTH",
"45 132 OFFCURVE",
"196 -10 OFFCURVE",
"404 -10 CURVE SMOOTH"
);
},
{
closed = 1;
nodes = (
"245 61 OFFCURVE",
"130 166 OFFCURVE",
"130 350 CURVE SMOOTH",
"130 534 OFFCURVE",
"245 641 OFFCURVE",
"404 639 CURVE SMOOTH",
"563 637 OFFCURVE",
"678 534 OFFCURVE",
"678 350 CURVE SMOOTH",
"678 166 OFFCURVE",
"563 61 OFFCURVE",
"404 61 CURVE SMOOTH"
);
}
);
width = 808;
},
{
anchors = (
{
name = bottom;
position = "{362, 0}";
},
{
name = center;
position = "{424, 350}";
},
{
name = ogonek;
position = "{683, 10}";
},
{
name = top;
position = "{485, 700}";
},
{
name = topleft;
position = "{106, 700}";
},
{
name = topright;
position = "{695, 645}";
}
);
layerId = "6D0DA379-F071-4911-97B5-1F20F456FBFD";
paths = (
{
closed = 1;
nodes = (
"597 -10 OFFCURVE",
"780 185 OFFCURVE",
"780 414 CURVE SMOOTH",
"780 598 OFFCURVE",
"661 710 OFFCURVE",
"484 710 CURVE SMOOTH",
"250 710 OFFCURVE",
"68 516 OFFCURVE",
"68 287 CURVE SMOOTH",
"68 101 OFFCURVE",
"187 -10 OFFCURVE",
"363 -10 CURVE SMOOTH"
);
},
{
closed = 1;
nodes = (
"216 39 OFFCURVE",
"121 128 OFFCURVE",
"121 288 CURVE SMOOTH",
"121 492 OFFCURVE",
"276 661 OFFCURVE",
"482 661 CURVE SMOOTH",
"632 661 OFFCURVE",
"727 572 OFFCURVE",
"727 412 CURVE SMOOTH",
"727 208 OFFCURVE",
"572 39 OFFCURVE",
"366 39 CURVE SMOOTH"
);
}
);
width = 808;
},
{
anchors = (
{
name = bottom;
position = "{362, 0}";
},
{
name = center;
position = "{430, 350}";
},
{
name = ogonek;
position = "{689, 10}";
},
{
name = top;
position = "{485, 696}";
},
{
name = topleft;
position = "{112, 700}";
},
{
name = topright;
position = "{692, 642}";
}
);
layerId = "71BB0B28-5B77-4945-A3C0-334755DB3BD8";
paths = (
{
closed = 1;
nodes = (
"602 -10 OFFCURVE",
"789 176 OFFCURVE",
"789 410 CURVE SMOOTH",
"789 593 OFFCURVE",
"668 710 OFFCURVE",
"479 710 CURVE SMOOTH",
"245 710 OFFCURVE",
"58 523 OFFCURVE",
"58 289 CURVE SMOOTH",
"58 106 OFFCURVE",
"178 -10 OFFCURVE",
"368 -10 CURVE SMOOTH"
);
},
{
closed = 1;
nodes = (
"227 61 OFFCURVE",
"144 145 OFFCURVE",
"144 290 CURVE SMOOTH",
"144 487 OFFCURVE",
"288 639 OFFCURVE",
"475 639 CURVE SMOOTH",
"619 639 OFFCURVE",
"704 554 OFFCURVE",
"704 409 CURVE SMOOTH",
"704 212 OFFCURVE",
"559 61 OFFCURVE",
"371 61 CURVE SMOOTH"
);
}
);
width = 808;
},
{
anchors = (
{
name = bottom;
position = "{372, 0}";
},
{
name = center;
position = "{449, 350}";
},
{
name = ogonek;
position = "{708, 10}";
},
{
name = top;
position = "{494, 690}";
},
{
name = topleft;
position = "{131, 700}";
},
{
name = topright;
position = "{742, 637}";
}
);
layerId = "D92B54DD-6BE9-4383-803D-42A15BF32189";
paths = (
{
closed = 1;
nodes = (
"632 -10 OFFCURVE",
"814 164 OFFCURVE",
"814 404 CURVE SMOOTH",
"814 597 OFFCURVE",
"694 710 OFFCURVE",
"488 710 CURVE SMOOTH",
"236 710 OFFCURVE",
"54 537 OFFCURVE",
"54 297 CURVE SMOOTH",
"54 104 OFFCURVE",
"175 -10 OFFCURVE",
"381 -10 CURVE SMOOTH"
);
},
{
closed = 1;
nodes = (
"258 95 OFFCURVE",
"188 165 OFFCURVE",
"188 294 CURVE SMOOTH",
"188 473 OFFCURVE",
"310 605 OFFCURVE",
"477 605 CURVE SMOOTH",
"607 605 OFFCURVE",
"680 532 OFFCURVE",
"680 401 CURVE SMOOTH",
"680 226 OFFCURVE",
"554 95 OFFCURVE",
"385 95 CURVE SMOOTH"
);
}
);
width = 828;
}
);
leftKerningGroup = O;
note = O;
rightKerningGroup = O;
unicode = 004F;
},
{
glyphname = P;
lastChange = "2018-05-14 07:32:30 +0000";
layers = (
{
anchors = (
{
name = bottom;
position = "{349, 0}";
},
{
name = top;
position = "{349, 700}";
}
);
layerId = "0B1DFD06-3317-40CA-B510-4969A0718C16";
paths = (
{
closed = 1;
nodes = (
"123 -10 OFFCURVE",
"133 1 OFFCURVE",
"133 22 CURVE SMOOTH",
"133 245 LINE",
"368 245 LINE SMOOTH",
"543 245 OFFCURVE",
"642 324 OFFCURVE",
"642 464 CURVE SMOOTH",
"642 622 OFFCURVE",
"552 700 OFFCURVE",
"367 700 CURVE SMOOTH",
"196 700 LINE SMOOTH",
"123 700 OFFCURVE",
"80 659 OFFCURVE",
"80 590 CURVE SMOOTH",
"80 22 LINE SMOOTH",
"80 1 OFFCURVE",
"89 -10 OFFCURVE",
"106 -10 CURVE SMOOTH"
);
},
{
closed = 1;
nodes = (
"133 292 LINE",
"133 593 LINE SMOOTH",
"133 629 OFFCURVE",
"155 653 OFFCURVE",
"190 653 CURVE SMOOTH",
"372 653 LINE SMOOTH",
"520 653 OFFCURVE",
"588 594 OFFCURVE",
"588 464 CURVE SMOOTH",
"588 352 OFFCURVE",
"512 292 OFFCURVE",
"370 292 CURVE SMOOTH"
);
}
);
width = 697;
},
{
anchors = (
{
name = bottom;
position = "{359, 0}";
},
{
name = top;
position = "{359, 700}";
}
);
layerId = "258BB4CE-589F-454F-8E39-237B943AA0B4";
paths = (
{
closed = 1;
nodes = (
"156 -11 OFFCURVE",
"183 13 OFFCURVE",
"183 49 CURVE SMOOTH",
"183 204 LINE",
"378 204 LINE SMOOTH",
"578 204 OFFCURVE",
"682 289 OFFCURVE",
"682 452 CURVE SMOOTH",
"682 614 OFFCURVE",
"575 700 OFFCURVE",
"372 700 CURVE SMOOTH",
"203 700 LINE SMOOTH",
"107 700 OFFCURVE",
"50 645 OFFCURVE",
"50 552 CURVE SMOOTH",
"50 49 LINE SMOOTH",
"50 12 OFFCURVE",
"76 -11 OFFCURVE",
"116 -11 CURVE SMOOTH"
);
},
{
closed = 1;
nodes = (
"183 307 LINE",
"183 548 LINE SMOOTH",
"183 579 OFFCURVE",
"199 597 OFFCURVE",
"226 597 CURVE SMOOTH",
"377 597 LINE SMOOTH",
"492 597 OFFCURVE",
"548 549 OFFCURVE",
"548 452 CURVE SMOOTH",
"548 356 OFFCURVE",
"491 307 OFFCURVE",
"377 307 CURVE SMOOTH"
);
}
);
width = 722;
},
{
anchors = (
{
name = bottom;
position = "{355, 0}";
},
{
name = top;
position = "{355, 700}";
}
);
layerId = "8ED59CAD-D047-43C0-8308-3370007B39AA";
paths = (
{
closed = 1;
nodes = (
"139 -10 OFFCURVE",
"155 7 OFFCURVE",
"155 33 CURVE SMOOTH",
"155 227 LINE",
"377 227 LINE SMOOTH",
"560 227 OFFCURVE",
"660 309 OFFCURVE",
"660 460 CURVE SMOOTH",
"660 619 OFFCURVE",
"563 700 OFFCURVE",
"371 700 CURVE SMOOTH",
"201 700 LINE SMOOTH",
"119 700 OFFCURVE",
"70 653 OFFCURVE",
"70 575 CURVE SMOOTH",
"70 33 LINE SMOOTH",
"70 6 OFFCURVE",
"86 -10 OFFCURVE",
"112 -10 CURVE SMOOTH"
);
},
{
closed = 1;
nodes = (
"155 296 LINE",
"155 575 LINE SMOOTH",
"155 609 OFFCURVE",
"175 631 OFFCURVE",
"206 631 CURVE SMOOTH",
"376 631 LINE SMOOTH",
"511 631 OFFCURVE",
"574 576 OFFCURVE",
"574 460 CURVE SMOOTH",
"574 346 OFFCURVE",
"513 296 OFFCURVE",
"376 296 CURVE SMOOTH"
);
}
);
width = 705;
},
{
anchors = (
{
name = bottom;
position = "{267, -10}";
},
{
name = top;
position = "{514, 690}";
}
);
layerId = "6D0DA379-F071-4911-97B5-1F20F456FBFD";
paths = (
{
closed = 1;
nodes = (
"82 -10 OFFCURVE",
"93 1 OFFCURVE",
"96 22 CURVE SMOOTH",
"135 245 LINE",
"382 245 LINE SMOOTH",
"574 245 OFFCURVE",
"688 347 OFFCURVE",
"688 518 CURVE SMOOTH",
"688 637 OFFCURVE",
"605 700 OFFCURVE",
"450 700 CURVE SMOOTH",
"279 700 LINE SMOOTH",
"202 700 OFFCURVE",
"156 663 OFFCURVE",
"143 590 CURVE SMOOTH",
"43 22 LINE SMOOTH",
"40 5 OFFCURVE",
"50 -10 OFFCURVE",
"65 -10 CURVE SMOOTH"
);
},
{
closed = 1;
nodes = (
"144 292 LINE",
"197 593 LINE SMOOTH",
"203 629 OFFCURVE",
"229 653 OFFCURVE",
"264 653 CURVE SMOOTH",
"446 653 LINE SMOOTH",
"575 653 OFFCURVE",
"634 609 OFFCURVE",
"634 514 CURVE SMOOTH",
"634 370 OFFCURVE",
"545 292 OFFCURVE",
"381 292 CURVE SMOOTH"
);
}
);
width = 698;
},
{
anchors = (
{
name = bottom;
position = "{273, 0}";
},
{
name = top;
position = "{519, 700}";
}
);
layerId = "71BB0B28-5B77-4945-A3C0-334755DB3BD8";
paths = (
{
closed = 1;
nodes = (
"96 -10 OFFCURVE",
"115 6 OFFCURVE",
"120 33 CURVE SMOOTH",
"154 227 LINE",
"386 227 LINE SMOOTH",
"586 227 OFFCURVE",
"705 334 OFFCURVE",
"705 513 CURVE SMOOTH",
"705 635 OFFCURVE",
"617 700 OFFCURVE",
"453 700 CURVE SMOOTH",
"283 700 LINE SMOOTH",
"201 700 OFFCURVE",
"144 654 OFFCURVE",
"130 575 CURVE SMOOTH",
"35 33 LINE SMOOTH",
"31 9 OFFCURVE",
"46 -10 OFFCURVE",
"70 -10 CURVE SMOOTH"
);
},
{
closed = 1;
nodes = (
"166 296 LINE",
"215 575 LINE SMOOTH",
"221 609 OFFCURVE",
"245 631 OFFCURVE",
"276 631 CURVE SMOOTH",
"446 631 LINE SMOOTH",
"563 631 OFFCURVE",
"618 590 OFFCURVE",
"618 505 CURVE SMOOTH",
"618 366 OFFCURVE",
"540 296 OFFCURVE",
"387 296 CURVE SMOOTH"
);
}
);
width = 705;
},
{
anchors = (
{
name = bottom;
position = "{277, 0}";
},
{
name = top;
position = "{523, 700}";
}
);
layerId = "D92B54DD-6BE9-4383-803D-42A15BF32189";
paths = (
{
closed = 1;
nodes = (
"116 -11 OFFCURVE",
"144 12 OFFCURVE",
"151 49 CURVE SMOOTH",
"178 204 LINE",
"390 204 LINE SMOOTH",
"590 204 OFFCURVE",
"726 324 OFFCURVE",
"726 502 CURVE SMOOTH",
"726 640 OFFCURVE",
"643 700 OFFCURVE",
"454 700 CURVE SMOOTH",
"285 700 LINE SMOOTH",
"189 700 OFFCURVE",
"123 645 OFFCURVE",
"106 552 CURVE SMOOTH",
"18 49 LINE SMOOTH",
"12 15 OFFCURVE",
"37 -11 OFFCURVE",
"77 -11 CURVE SMOOTH"
);
},
{
closed = 1;
nodes = (
"196 307 LINE",
"239 548 LINE SMOOTH",
"244 579 OFFCURVE",
"263 597 OFFCURVE",
"290 597 CURVE SMOOTH",
"450 597 LINE SMOOTH",
"554 597 OFFCURVE",
"591 570 OFFCURVE",
"591 492 CURVE SMOOTH",
"591 380 OFFCURVE",
"512 307 OFFCURVE",
"390 307 CURVE SMOOTH"
);
}
);
width = 723;
}
);
note = P;
rightKerningGroup = P;
unicode = 0050;
},
{
glyphname = Q;
lastChange = "2018-05-14 07:35:11 +0000";
layers = (
{
anchors = (
{
name = bottom;
position = "{404, 0}";
},
{
name = top;
position = "{404, 700}";
}
);
layerId = "0B1DFD06-3317-40CA-B510-4969A0718C16";
paths = (
{
closed = 1;
nodes = (
"685 -29 OFFCURVE",
"686 -19 OFFCURVE",
"678 -1 CURVE SMOOTH",
"664 30 OFFCURVE",
"653 48 OFFCURVE",
"638 78 CURVE",
"708 140 OFFCURVE",
"753 234 OFFCURVE",
"753 350 CURVE SMOOTH",
"753 573 OFFCURVE",
"592 710 OFFCURVE",
"404 710 CURVE SMOOTH",
"216 710 OFFCURVE",
"55 573 OFFCURVE",
"55 350 CURVE SMOOTH",
"55 127 OFFCURVE",
"216 -10 OFFCURVE",
"404 -10 CURVE SMOOTH",
"478 -10 OFFCURVE",
"541 10 OFFCURVE",
"598 49 CURVE",
"612 24 OFFCURVE",
"630 -9 OFFCURVE",
"640 -29 CURVE SMOOTH",
"646 -41 OFFCURVE",
"661 -43 OFFCURVE",
"673 -36 CURVE SMOOTH"
);
},
{
closed = 1;
nodes = (
"343 39 OFFCURVE",
"285 55 OFFCURVE",
"238 85 CURVE",
"269 139 OFFCURVE",
"326 182 OFFCURVE",
"413 182 CURVE SMOOTH",
"494 182 OFFCURVE",
"541 142 OFFCURVE",
"575 89 CURVE",
"527 57 OFFCURVE",
"469 39 OFFCURVE",
"404 39 CURVE SMOOTH"
);
},
{
closed = 1;
nodes = (
"144 166 OFFCURVE",
"108 246 OFFCURVE",
"108 350 CURVE SMOOTH",
"108 553 OFFCURVE",
"241 661 OFFCURVE",
"404 661 CURVE SMOOTH",
"567 661 OFFCURVE",
"700 553 OFFCURVE",
"700 350 CURVE SMOOTH",
"700 249 OFFCURVE",
"666 171 OFFCURVE",
"613 119 CURVE",
"571 184 OFFCURVE",
"508 231 OFFCURVE",
"411 231 CURVE SMOOTH",
"315 231 OFFCURVE",
"240 180 OFFCURVE",
"199 114 CURVE"
);
}
);
width = 808;
},
{
anchors = (
{
name = bottom;
position = "{404, 0}";
},
{
name = top;
position = "{404, 700}";
}
);
layerId = "258BB4CE-589F-454F-8E39-237B943AA0B4";
paths = (
{
closed = 1;
nodes = (
"725 -14 OFFCURVE",
"729 14 OFFCURVE",
"712 47 CURVE SMOOTH",
"705 61 OFFCURVE",
"696 71 OFFCURVE",
"687 89 CURVE",
"753 152 OFFCURVE",
"788 243 OFFCURVE",
"788 350 CURVE SMOOTH",
"788 561 OFFCURVE",
"652 710 OFFCURVE",
"414 710 CURVE SMOOTH",
"176 710 OFFCURVE",
"40 561 OFFCURVE",
"40 350 CURVE SMOOTH",
"40 139 OFFCURVE",
"176 -13 OFFCURVE",
"414 -10 CURVE SMOOTH",
"483 -9 OFFCURVE",
"544 4 OFFCURVE",
"595 27 CURVE",
"604 11 OFFCURVE",
"612 -2 OFFCURVE",
"618 -14 CURVE SMOOTH",
"631 -40 OFFCURVE",
"666 -48 OFFCURVE",
"692 -33 CURVE SMOOTH"
);
},
{
closed = 1;
nodes = (
"366 95 OFFCURVE",
"325 105 OFFCURVE",
"291 123 CURVE",
"320 159 OFFCURVE",
"365 180 OFFCURVE",
"413 180 CURVE SMOOTH",
"460 180 OFFCURVE",
"504 158 OFFCURVE",
"533 121 CURVE",
"500 104 OFFCURVE",
"460 95 OFFCURVE",
"414 95 CURVE SMOOTH"
);
},
{
closed = 1;
nodes = (
"187 237 OFFCURVE",
"174 289 OFFCURVE",
"174 350 CURVE SMOOTH",
"174 505 OFFCURVE",
"260 610 OFFCURVE",
"414 605 CURVE SMOOTH",
"568 600 OFFCURVE",
"654 505 OFFCURVE",
"654 350 CURVE SMOOTH",
"654 288 OFFCURVE",
"640 235 OFFCURVE",
"614 193 CURVE",
"563 249 OFFCURVE",
"488 281 OFFCURVE",
"411 281 CURVE SMOOTH",
"340 281 OFFCURVE",
"267 249 OFFCURVE",
"212 196 CURVE"
);
}
);
width = 828;
},
{
anchors = (
{
name = bottom;
position = "{400, 0}";
},
{
name = top;
position = "{400, 700}";
}
);
layerId = "8ED59CAD-D047-43C0-8308-3370007B39AA";
paths = (
{
closed = 1;
nodes = (
"697 -23 OFFCURVE",
"699 -6 OFFCURVE",
"688 18 CURVE SMOOTH",
"676 42 OFFCURVE",
"666 57 OFFCURVE",
"654 82 CURVE",
"722 145 OFFCURVE",
"763 238 OFFCURVE",
"763 350 CURVE SMOOTH",
"763 568 OFFCURVE",
"612 710 OFFCURVE",
"404 710 CURVE SMOOTH",
"196 710 OFFCURVE",
"45 568 OFFCURVE",
"45 350 CURVE SMOOTH",
"45 132 OFFCURVE",
"196 -11 OFFCURVE",
"404 -10 CURVE SMOOTH",
"476 -10 OFFCURVE",
"538 8 OFFCURVE",
"593 40 CURVE",
"605 19 OFFCURVE",
"619 -6 OFFCURVE",
"627 -23 CURVE SMOOTH",
"636 -41 OFFCURVE",
"659 -45 OFFCURVE",
"677 -35 CURVE SMOOTH"
);
},
{
closed = 1;
nodes = (
"348 61 OFFCURVE",
"297 75 OFFCURVE",
"255 100 CURVE",
"285 147 OFFCURVE",
"338 181 OFFCURVE",
"409 181 CURVE SMOOTH",
"476 181 OFFCURVE",
"522 148 OFFCURVE",
"554 102 CURVE",
"512 76 OFFCURVE",
"461 61 OFFCURVE",
"404 61 CURVE SMOOTH"
);
},
{
closed = 1;
nodes = (
"157 194 OFFCURVE",
"130 263 OFFCURVE",
"130 350 CURVE SMOOTH",
"130 534 OFFCURVE",
"245 641 OFFCURVE",
"404 639 CURVE SMOOTH",
"563 637 OFFCURVE",
"678 534 OFFCURVE",
"678 350 CURVE SMOOTH",
"678 265 OFFCURVE",
"652 197 OFFCURVE",
"609 149 CURVE",
"564 210 OFFCURVE",
"496 251 OFFCURVE",
"407 251 CURVE SMOOTH",
"321 251 OFFCURVE",
"247 208 OFFCURVE",
"200 147 CURVE"
);
}
);
width = 808;
},
{
anchors = (
{
name = bottom;
position = "{362, 0}";
},
{
name = top;
position = "{485, 700}";
}
);
layerId = "6D0DA379-F071-4911-97B5-1F20F456FBFD";
paths = (
{
closed = 1;
nodes = (
"623 -40 OFFCURVE",
"638 -33 OFFCURVE",
"638 -15 CURVE SMOOTH",
"638 -11 OFFCURVE",
"636 0 OFFCURVE",
"634 5 CURVE SMOOTH",
"625 36 OFFCURVE",
"619 48 OFFCURVE",
"610 78 CURVE",
"715 158 OFFCURVE",
"779 289 OFFCURVE",
"779 422 CURVE SMOOTH",
"779 602 OFFCURVE",
"649 710 OFFCURVE",
"487 710 CURVE SMOOTH",
"249 710 OFFCURVE",
"69 516 OFFCURVE",
"69 280 CURVE SMOOTH",
"69 99 OFFCURVE",
"205 -10 OFFCURVE",
"360 -10 CURVE SMOOTH",
"441 -10 OFFCURVE",
"507 10 OFFCURVE",
"565 49 CURVE",
"574 24 OFFCURVE",
"585 -9 OFFCURVE",
"593 -29 CURVE SMOOTH",
"596 -36 OFFCURVE",
"604 -40 OFFCURVE",
"612 -40 CURVE SMOOTH"
);
},
{
closed = 1;
nodes = (
"308 39 OFFCURVE",
"252 54 OFFCURVE",
"210 84 CURVE",
"251 138 OFFCURVE",
"316 182 OFFCURVE",
"403 182 CURVE SMOOTH",
"486 182 OFFCURVE",
"524 143 OFFCURVE",
"549 89 CURVE",
"495 57 OFFCURVE",
"434 39 OFFCURVE",
"369 39 CURVE SMOOTH"
);
},
{
closed = 1;
nodes = (
"139 155 OFFCURVE",
"120 207 OFFCURVE",
"120 271 CURVE SMOOTH",
"120 482 OFFCURVE",
"264 661 OFFCURVE",
"479 661 CURVE SMOOTH",
"622 661 OFFCURVE",
"727 578 OFFCURVE",
"727 422 CURVE SMOOTH",
"727 311 OFFCURVE",
"680 193 OFFCURVE",
"592 119 CURVE",
"561 186 OFFCURVE",
"495 231 OFFCURVE",
"410 231 CURVE SMOOTH",
"314 231 OFFCURVE",
"229 179 OFFCURVE",
"176 113 CURVE"
);
}
);
width = 808;
},
{
anchors = (
{
name = bottom;
position = "{358, 0}";
},
{
name = top;
position = "{481, 700}";
}
);
layerId = "71BB0B28-5B77-4945-A3C0-334755DB3BD8";
paths = (
{
closed = 1;
nodes = (
"631 -40 OFFCURVE",
"652 -23 OFFCURVE",
"652 0 CURVE SMOOTH",
"652 5 OFFCURVE",
"651 11 OFFCURVE",
"649 18 CURVE SMOOTH",
"641 42 OFFCURVE",
"634 57 OFFCURVE",
"626 82 CURVE",
"728 163 OFFCURVE",
"790 294 OFFCURVE",
"790 425 CURVE SMOOTH",
"790 600 OFFCURVE",
"669 710 OFFCURVE",
"479 710 CURVE SMOOTH",
"233 710 OFFCURVE",
"59 525 OFFCURVE",
"59 281 CURVE SMOOTH",
"59 103 OFFCURVE",
"194 -10 OFFCURVE",
"365 -10 CURVE SMOOTH",
"437 -10 OFFCURVE",
"497 8 OFFCURVE",
"558 40 CURVE",
"566 19 OFFCURVE",
"575 -6 OFFCURVE",
"581 -23 CURVE SMOOTH",
"585 -35 OFFCURVE",
"595 -40 OFFCURVE",
"608 -40 CURVE SMOOTH"
);
},
{
closed = 1;
nodes = (
"317 61 OFFCURVE",
"268 75 OFFCURVE",
"231 100 CURVE",
"269 147 OFFCURVE",
"328 181 OFFCURVE",
"399 181 CURVE SMOOTH",
"475 181 OFFCURVE",
"506 148 OFFCURVE",
"530 102 CURVE",
"483 76 OFFCURVE",
"430 61 OFFCURVE",
"373 61 CURVE SMOOTH"
);
},
{
closed = 1;
nodes = (
"158 181 OFFCURVE",
"144 227 OFFCURVE",
"144 283 CURVE SMOOTH",
"144 477 OFFCURVE",
"276 639 OFFCURVE",
"475 639 CURVE SMOOTH",
"618 639 OFFCURVE",
"704 561 OFFCURVE",
"704 420 CURVE SMOOTH",
"704 319 OFFCURVE",
"665 216 OFFCURVE",
"593 149 CURVE",
"559 210 OFFCURVE",
"498 251 OFFCURVE",
"409 251 CURVE SMOOTH",
"323 251 OFFCURVE",
"242 208 OFFCURVE",
"184 147 CURVE"
);
}
);
width = 808;
},
{
anchors = (
{
name = bottom;
position = "{362, 0}";
},
{
name = top;
position = "{485, 700}";
}
);
layerId = "D92B54DD-6BE9-4383-803D-42A15BF32189";
paths = (
{
closed = 1;
nodes = (
"657 -41 OFFCURVE",
"683 -10 OFFCURVE",
"683 20 CURVE SMOOTH",
"683 30 OFFCURVE",
"681 38 OFFCURVE",
"678 47 CURVE SMOOTH",
"677 51 OFFCURVE",
"668 76 OFFCURVE",
"661 89 CURVE",
"754 165 OFFCURVE",
"814 294 OFFCURVE",
"814 416 CURVE SMOOTH",
"814 593 OFFCURVE",
"686 710 OFFCURVE",
"482 710 CURVE SMOOTH",
"228 710 OFFCURVE",
"54 529 OFFCURVE",
"54 299 CURVE SMOOTH",
"54 100 OFFCURVE",
"184 -10 OFFCURVE",
"376 -10 CURVE SMOOTH",
"440 -10 OFFCURVE",
"498 2 OFFCURVE",
"558 27 CURVE",
"565 9 OFFCURVE",
"572 -8 OFFCURVE",
"574 -14 CURVE SMOOTH",
"576 -20 OFFCURVE",
"588 -41 OFFCURVE",
"623 -41 CURVE SMOOTH"
);
},
{
closed = 1;
nodes = (
"343 95 OFFCURVE",
"303 104 OFFCURVE",
"271 123 CURVE",
"306 159 OFFCURVE",
"355 180 OFFCURVE",
"403 180 CURVE SMOOTH",
"453 180 OFFCURVE",
"495 159 OFFCURVE",
"517 121 CURVE",
"483 104 OFFCURVE",
"438 95 OFFCURVE",
"389 95 CURVE SMOOTH"
);
},
{
closed = 1;
nodes = (
"194 223 OFFCURVE",
"188 251 OFFCURVE",
"188 291 CURVE SMOOTH",
"188 470 OFFCURVE",
"305 605 OFFCURVE",
"477 605 CURVE SMOOTH",
"601 605 OFFCURVE",
"680 535 OFFCURVE",
"680 411 CURVE SMOOTH",
"680 336 OFFCURVE",
"651 251 OFFCURVE",
"606 193 CURVE",
"565 248 OFFCURVE",
"495 281 OFFCURVE",
"419 281 CURVE SMOOTH",
"349 281 OFFCURVE",
"270 250 OFFCURVE",
"205 196 CURVE"
);
}
);
width = 828;
}
);
leftKerningGroup = O;
note = Q;
rightKerningGroup = O;
unicode = 0051;
},
{
glyphname = R;
lastChange = "2018-05-14 10:11:10 +0000";
layers = (
{
anchors = (
{
name = bottom;
position = "{333, 0}";
},
{
name = top;
position = "{353, 700}";
}
);
layerId = "0B1DFD06-3317-40CA-B510-4969A0718C16";
paths = (
{
closed = 1;
nodes = (
"123 -10 OFFCURVE",
"133 1 OFFCURVE",
"133 22 CURVE SMOOTH",
"133 593 LINE SMOOTH",
"133 629 OFFCURVE",
"155 653 OFFCURVE",
"190 653 CURVE SMOOTH",
"384 653 LINE SMOOTH",
"527 653 OFFCURVE",
"598 599 OFFCURVE",
"598 490 CURVE SMOOTH",
"598 400 OFFCURVE",
"536 351 OFFCURVE",
"422 351 CURVE SMOOTH",
"385 351 OFFCURVE",
"328 360 OFFCURVE",
"286 372 CURVE SMOOTH",
"272 376 OFFCURVE",
"260 373 OFFCURVE",
"252 361 CURVE SMOOTH",
"243 348 OFFCURVE",
"247 332 OFFCURVE",
"264 315 CURVE SMOOTH",
"570 12 LINE",
"582 -5 OFFCURVE",
"595 -9 OFFCURVE",
"610 -1 CURVE SMOOTH",
"621 5 OFFCURVE",
"624 16 OFFCURVE",
"618 32 CURVE SMOOTH",
"331 312 LINE",
"332 315 LINE",
"365 308 OFFCURVE",
"397 304 OFFCURVE",
"426 304 CURVE SMOOTH",
"563 304 OFFCURVE",
"651 378 OFFCURVE",
"651 492 CURVE SMOOTH",
"651 627 OFFCURVE",
"555 700 OFFCURVE",
"379 700 CURVE SMOOTH",
"196 700 LINE SMOOTH",
"123 700 OFFCURVE",
"80 659 OFFCURVE",
"80 590 CURVE SMOOTH",
"80 22 LINE SMOOTH",
"80 1 OFFCURVE",
"89 -10 OFFCURVE",
"106 -10 CURVE SMOOTH"
);
}
);
width = 706;
},
{
anchors = (
{
name = bottom;
position = "{363, 0}";
},
{
name = top;
position = "{363, 690}";
}
);
layerId = "258BB4CE-589F-454F-8E39-237B943AA0B4";
paths = (
{
closed = 1;
nodes = (
"156 -10 OFFCURVE",
"183 14 OFFCURVE",
"183 50 CURVE SMOOTH",
"183 548 LINE SMOOTH",
"183 579 OFFCURVE",
"199 597 OFFCURVE",
"226 597 CURVE SMOOTH",
"432 597 LINE SMOOTH",
"509 597 OFFCURVE",
"553 558 OFFCURVE",
"553 488 CURVE SMOOTH",
"553 411 OFFCURVE",
"516 372 OFFCURVE",
"441 372 CURVE SMOOTH",
"405 372 OFFCURVE",
"365 377 OFFCURVE",
"330 386 CURVE SMOOTH",
"302 394 OFFCURVE",
"275 386 OFFCURVE",
"259 365 CURVE SMOOTH",
"235 335 OFFCURVE",
"240 299 OFFCURVE",
"272 269 CURVE SMOOTH",
"535 16 LINE SMOOTH",
"568 -15 OFFCURVE",
"604 -18 OFFCURVE",
"636 9 CURVE SMOOTH",
"661 31 OFFCURVE",
"660 65 OFFCURVE",
"632 90 CURVE SMOOTH",
"423 277 LINE",
"424 278 LINE",
"443 274 OFFCURVE",
"466 271 OFFCURVE",
"482 271 CURVE SMOOTH",
"597 271 OFFCURVE",
"686 366 OFFCURVE",
"686 490 CURVE SMOOTH",
"686 618 OFFCURVE",
"585 700 OFFCURVE",
"427 700 CURVE SMOOTH",
"203 700 LINE SMOOTH",
"107 700 OFFCURVE",
"50 645 OFFCURVE",
"50 552 CURVE SMOOTH",
"50 50 LINE SMOOTH",
"50 13 OFFCURVE",
"76 -10 OFFCURVE",
"116 -10 CURVE SMOOTH"
);
}
);
width = 726;
},
{
anchors = (
{
name = bottom;
position = "{359, 0}";
},
{
name = top;
position = "{359, 696}";
}
);
layerId = "8ED59CAD-D047-43C0-8308-3370007B39AA";
paths = (
{
closed = 1;
nodes = (
"139 -10 OFFCURVE",
"155 7 OFFCURVE",
"155 33 CURVE SMOOTH",
"155 575 LINE SMOOTH",
"155 609 OFFCURVE",
"175 631 OFFCURVE",
"206 631 CURVE SMOOTH",
"405 631 LINE SMOOTH",
"522 631 OFFCURVE",
"582 583 OFFCURVE",
"582 489 CURVE SMOOTH",
"582 405 OFFCURVE",
"529 359 OFFCURVE",
"432 359 CURVE SMOOTH",
"396 359 OFFCURVE",
"346 367 OFFCURVE",
"306 378 CURVE SMOOTH",
"285 383 OFFCURVE",
"268 378 OFFCURVE",
"257 363 CURVE SMOOTH",
"242 343 OFFCURVE",
"246 319 OFFCURVE",
"269 297 CURVE SMOOTH",
"558 14 LINE",
"579 -9 OFFCURVE",
"601 -13 OFFCURVE",
"622 3 CURVE SMOOTH",
"639 15 OFFCURVE",
"641 36 OFFCURVE",
"626 55 CURVE SMOOTH",
"370 298 LINE",
"371 300 LINE",
"396 294 OFFCURVE",
"425 291 OFFCURVE",
"450 291 CURVE SMOOTH",
"578 291 OFFCURVE",
"667 373 OFFCURVE",
"667 491 CURVE SMOOTH",
"667 623 OFFCURVE",
"568 700 OFFCURVE",
"400 700 CURVE SMOOTH",
"201 700 LINE SMOOTH",
"119 700 OFFCURVE",
"70 653 OFFCURVE",
"70 575 CURVE SMOOTH",
"70 33 LINE SMOOTH",
"70 6 OFFCURVE",
"86 -10 OFFCURVE",
"112 -10 CURVE SMOOTH"
);
}
);
width = 712;
},
{
anchors = (
{
name = bottom;
position = "{312, 0}";
},
{
name = top;
position = "{435, 700}";
}
);
layerId = "6D0DA379-F071-4911-97B5-1F20F456FBFD";
paths = (
{
closed = 1;
nodes = (
"81 -10 OFFCURVE",
"92 1 OFFCURVE",
"96 22 CURVE SMOOTH",
"197 593 LINE SMOOTH",
"203 629 OFFCURVE",
"229 653 OFFCURVE",
"264 653 CURVE SMOOTH",
"458 653 LINE SMOOTH",
"587 653 OFFCURVE",
"647 614 OFFCURVE",
"647 530 CURVE SMOOTH",
"647 415 OFFCURVE",
"574 351 OFFCURVE",
"443 351 CURVE SMOOTH",
"405 351 OFFCURVE",
"349 360 OFFCURVE",
"311 372 CURVE SMOOTH",
"307 373 OFFCURVE",
"303 374 OFFCURVE",
"300 374 CURVE SMOOTH",
"284 374 OFFCURVE",
"267 357 OFFCURVE",
"267 342 CURVE SMOOTH",
"267 334 OFFCURVE",
"271 325 OFFCURVE",
"279 315 CURVE SMOOTH",
"531 12 LINE SMOOTH",
"541 0 OFFCURVE",
"549 -5 OFFCURVE",
"559 -5 CURVE SMOOTH",
"573 -5 OFFCURVE",
"587 6 OFFCURVE",
"587 18 CURVE SMOOTH",
"587 24 OFFCURVE",
"584 31 OFFCURVE",
"579 37 CURVE SMOOTH",
"345 312 LINE",
"347 315 LINE",
"378 308 OFFCURVE",
"410 304 OFFCURVE",
"439 304 CURVE SMOOTH",
"594 304 OFFCURVE",
"701 398 OFFCURVE",
"701 533 CURVE SMOOTH",
"701 640 OFFCURVE",
"614 700 OFFCURVE",
"461 700 CURVE SMOOTH",
"278 700 LINE SMOOTH",
"199 700 OFFCURVE",
"156 665 OFFCURVE",
"143 590 CURVE SMOOTH",
"43 22 LINE SMOOTH",
"39 0 OFFCURVE",
"46 -10 OFFCURVE",
"64 -10 CURVE SMOOTH"
);
}
);
width = 707;
},
{
anchors = (
{
name = bottom;
position = "{318, 0}";
},
{
name = top;
position = "{441, 696}";
}
);
layerId = "71BB0B28-5B77-4945-A3C0-334755DB3BD8";
paths = (
{
closed = 1;
nodes = (
"96 -10 OFFCURVE",
"115 7 OFFCURVE",
"120 33 CURVE SMOOTH",
"215 575 LINE SMOOTH",
"221 609 OFFCURVE",
"245 631 OFFCURVE",
"276 631 CURVE SMOOTH",
"475 631 LINE SMOOTH",
"580 631 OFFCURVE",
"630 597 OFFCURVE",
"630 525 CURVE SMOOTH",
"630 420 OFFCURVE",
"566 359 OFFCURVE",
"454 359 CURVE SMOOTH",
"415 359 OFFCURVE",
"368 366 OFFCURVE",
"332 378 CURVE SMOOTH",
"327 380 OFFCURVE",
"324 380 OFFCURVE",
"318 380 CURVE SMOOTH",
"292 380 OFFCURVE",
"266 356 OFFCURVE",
"266 331 CURVE SMOOTH",
"266 320 OFFCURVE",
"271 308 OFFCURVE",
"280 297 CURVE SMOOTH",
"519 14 LINE SMOOTH",
"530 0 OFFCURVE",
"541 -7 OFFCURVE",
"554 -7 CURVE SMOOTH",
"577 -7 OFFCURVE",
"601 14 OFFCURVE",
"601 34 CURVE SMOOTH",
"601 42 OFFCURVE",
"599 49 OFFCURVE",
"595 55 CURVE SMOOTH",
"382 298 LINE",
"383 300 LINE",
"405 294 OFFCURVE",
"433 291 OFFCURVE",
"460 291 CURVE SMOOTH",
"604 291 OFFCURVE",
"716 395 OFFCURVE",
"716 529 CURVE SMOOTH",
"716 634 OFFCURVE",
"626 700 OFFCURVE",
"482 700 CURVE SMOOTH",
"283 700 LINE SMOOTH",
"201 700 OFFCURVE",
"144 654 OFFCURVE",
"130 575 CURVE SMOOTH",
"35 33 LINE SMOOTH",
"30 8 OFFCURVE",
"44 -10 OFFCURVE",
"69 -10 CURVE SMOOTH"
);
}
);
width = 713;
},
{
anchors = (
{
name = bottom;
position = "{321, 0}";
},
{
name = top;
position = "{443, 690}";
}
);
layerId = "D92B54DD-6BE9-4383-803D-42A15BF32189";
paths = (
{
closed = 1;
nodes = (
"113 -10 OFFCURVE",
"144 14 OFFCURVE",
"151 50 CURVE SMOOTH",
"239 548 LINE SMOOTH",
"244 579 OFFCURVE",
"263 597 OFFCURVE",
"290 597 CURVE SMOOTH",
"496 597 LINE SMOOTH",
"563 597 OFFCURVE",
"600 567 OFFCURVE",
"600 513 CURVE SMOOTH",
"600 426 OFFCURVE",
"548 372 OFFCURVE",
"466 372 CURVE SMOOTH",
"429 372 OFFCURVE",
"390 377 OFFCURVE",
"357 386 CURVE SMOOTH",
"350 388 OFFCURVE",
"344 389 OFFCURVE",
"337 389 CURVE SMOOTH",
"297 389 OFFCURVE",
"260 353 OFFCURVE",
"260 314 CURVE SMOOTH",
"260 299 OFFCURVE",
"266 283 OFFCURVE",
"278 269 CURVE SMOOTH",
"497 16 LINE SMOOTH",
"510 0 OFFCURVE",
"531 -10 OFFCURVE",
"551 -10 CURVE SMOOTH",
"588 -10 OFFCURVE",
"622 21 OFFCURVE",
"622 54 CURVE SMOOTH",
"622 68 OFFCURVE",
"617 80 OFFCURVE",
"607 90 CURVE SMOOTH",
"431 277 LINE",
"432 278 LINE",
"449 274 OFFCURVE",
"473 271 OFFCURVE",
"489 271 CURVE SMOOTH",
"625 271 OFFCURVE",
"734 384 OFFCURVE",
"734 524 CURVE SMOOTH",
"734 630 OFFCURVE",
"644 700 OFFCURVE",
"509 700 CURVE SMOOTH",
"275 700 LINE SMOOTH",
"182 700 OFFCURVE",
"123 648 OFFCURVE",
"106 552 CURVE SMOOTH",
"18 50 LINE SMOOTH",
"12 14 OFFCURVE",
"34 -10 OFFCURVE",
"73 -10 CURVE SMOOTH"
);
}
);
width = 726;
}
);
leftKerningGroup = R;
note = R;
rightKerningGroup = R;
unicode = 0052;
},
{
glyphname = S;
lastChange = "2018-05-14 07:50:50 +0000";
layers = (
{
anchors = (
{
name = bottom;
position = "{331, 0}";
},
{
name = top;
position = "{331, 700}";
}
);
layerId = "0B1DFD06-3317-40CA-B510-4969A0718C16";
paths = (
{
closed = 1;
nodes = (
"508 -10 OFFCURVE",
"606 62 OFFCURVE",
"606 179 CURVE SMOOTH",
"606 279 OFFCURVE",
"526 340 OFFCURVE",
"336 384 CURVE SMOOTH",
"176 421 OFFCURVE",
"124 457 OFFCURVE",
"124 532 CURVE SMOOTH",
"124 619 OFFCURVE",
"188 660 OFFCURVE",
"323 660 CURVE SMOOTH",
"428 660 OFFCURVE",
"505 628 OFFCURVE",
"540 569 CURVE SMOOTH",
"549 556 OFFCURVE",
"566 551 OFFCURVE",
"579 557 CURVE",
"592 565 OFFCURVE",
"596 578 OFFCURVE",
"589 591 CURVE SMOOTH",
"551 663 OFFCURVE",
"446 710 OFFCURVE",
"323 710 CURVE SMOOTH",
"165 710 OFFCURVE",
"70 643 OFFCURVE",
"70 532 CURVE SMOOTH",
"70 430 OFFCURVE",
"146 372 OFFCURVE",
"336 330 CURVE SMOOTH",
"493 295 OFFCURVE",
"552 254 OFFCURVE",
"552 179 CURVE SMOOTH",
"552 89 OFFCURVE",
"480 40 OFFCURVE",
"349 40 CURVE SMOOTH",
"241 40 OFFCURVE",
"155 73 OFFCURVE",
"104 135 CURVE SMOOTH",
"92 150 OFFCURVE",
"78 154 OFFCURVE",
"67 147 CURVE SMOOTH",
"54 139 OFFCURVE",
"51 123 OFFCURVE",
"60 111 CURVE SMOOTH",
"110 38 OFFCURVE",
"223 -10 OFFCURVE",
"349 -10 CURVE SMOOTH"
);
}
);
width = 661;
},
{
anchors = (
{
name = bottom;
position = "{385, 0}";
},
{
name = top;
position = "{355, 690}";
}
);
layerId = "258BB4CE-589F-454F-8E39-237B943AA0B4";
paths = (
{
closed = 1;
nodes = (
"554 -10 OFFCURVE",
"662 66 OFFCURVE",
"662 181 CURVE SMOOTH",
"662 299 OFFCURVE",
"579 366 OFFCURVE",
"370 415 CURVE SMOOTH",
"243 445 OFFCURVE",
"198 474 OFFCURVE",
"198 524 CURVE SMOOTH",
"198 575 OFFCURVE",
"254 605 OFFCURVE",
"348 605 CURVE SMOOTH",
"424 605 OFFCURVE",
"492 577 OFFCURVE",
"531 530 CURVE SMOOTH",
"552 505 OFFCURVE",
"588 498 OFFCURVE",
"612 515 CURVE SMOOTH",
"640 535 OFFCURVE",
"644 564 OFFCURVE",
"624 594 CURVE SMOOTH",
"574 667 OFFCURVE",
"472 710 OFFCURVE",
"348 710 CURVE SMOOTH",
"180 710 OFFCURVE",
"64 634 OFFCURVE",
"64 524 CURVE SMOOTH",
"64 410 OFFCURVE",
"151 342 OFFCURVE",
"352 298 CURVE SMOOTH",
"481 270 OFFCURVE",
"528 238 OFFCURVE",
"528 181 CURVE SMOOTH",
"528 127 OFFCURVE",
"476 95 OFFCURVE",
"388 95 CURVE SMOOTH",
"296 95 OFFCURVE",
"206 128 OFFCURVE",
"143 185 CURVE SMOOTH",
"111 213 OFFCURVE",
"85 216 OFFCURVE",
"60 192 CURVE SMOOTH",
"35 168 OFFCURVE",
"33 137 OFFCURVE",
"55 116 CURVE SMOOTH",
"139 35 OFFCURVE",
"258 -10 OFFCURVE",
"388 -10 CURVE SMOOTH"
);
}
);
width = 702;
},
{
anchors = (
{
name = bottom;
position = "{349, 0}";
},
{
name = top;
position = "{337, 696}";
}
);
layerId = "8ED59CAD-D047-43C0-8308-3370007B39AA";
paths = (
{
closed = 1;
nodes = (
"522 -10 OFFCURVE",
"624 63 OFFCURVE",
"624 180 CURVE SMOOTH",
"624 287 OFFCURVE",
"543 350 OFFCURVE",
"346 396 CURVE SMOOTH",
"198 431 OFFCURVE",
"150 464 OFFCURVE",
"150 529 CURVE SMOOTH",
"150 602 OFFCURVE",
"210 638 OFFCURVE",
"329 638 CURVE SMOOTH",
"422 638 OFFCURVE",
"496 607 OFFCURVE",
"532 553 CURVE SMOOTH",
"547 535 OFFCURVE",
"571 530 OFFCURVE",
"588 540 CURVE",
"607 553 OFFCURVE",
"611 572 OFFCURVE",
"599 592 CURVE SMOOTH",
"556 664 OFFCURVE",
"451 710 OFFCURVE",
"329 710 CURVE SMOOTH",
"167 710 OFFCURVE",
"64 640 OFFCURVE",
"64 529 CURVE SMOOTH",
"64 422 OFFCURVE",
"143 361 OFFCURVE",
"338 317 CURVE SMOOTH",
"484 285 OFFCURVE",
"538 248 OFFCURVE",
"538 180 CURVE SMOOTH",
"538 105 OFFCURVE",
"474 62 OFFCURVE",
"361 62 CURVE SMOOTH",
"258 62 OFFCURVE",
"171 95 OFFCURVE",
"116 155 CURVE SMOOTH",
"95 175 OFFCURVE",
"76 179 OFFCURVE",
"60 165 CURVE SMOOTH",
"43 150 OFFCURVE",
"40 129 OFFCURVE",
"54 113 CURVE SMOOTH",
"118 36 OFFCURVE",
"233 -10 OFFCURVE",
"361 -10 CURVE SMOOTH"
);
}
);
width = 669;
},
{
anchors = (
{
name = bottom;
position = "{289, 0}";
},
{
name = top;
position = "{412, 700}";
}
);
layerId = "6D0DA379-F071-4911-97B5-1F20F456FBFD";
paths = (
{
closed = 1;
nodes = (
"480 -10 OFFCURVE",
"599 77 OFFCURVE",
"599 202 CURVE SMOOTH",
"599 292 OFFCURVE",
"547 332 OFFCURVE",
"361 384 CURVE SMOOTH",
"202 428 OFFCURVE",
"174 448 OFFCURVE",
"174 515 CURVE SMOOTH",
"174 604 OFFCURVE",
"255 660 OFFCURVE",
"385 660 CURVE SMOOTH",
"484 660 OFFCURVE",
"568 624 OFFCURVE",
"599 568 CURVE SMOOTH",
"606 555 OFFCURVE",
"620 551 OFFCURVE",
"635 557 CURVE SMOOTH",
"650 563 OFFCURVE",
"655 575 OFFCURVE",
"651 591 CURVE SMOOTH",
"636 655 OFFCURVE",
"516 710 OFFCURVE",
"390 710 CURVE SMOOTH",
"231 710 OFFCURVE",
"119 628 OFFCURVE",
"119 510 CURVE SMOOTH",
"119 420 OFFCURVE",
"175 376 OFFCURVE",
"352 330 CURVE SMOOTH",
"506 291 OFFCURVE",
"544 264 OFFCURVE",
"544 195 CURVE SMOOTH",
"544 99 OFFCURVE",
"452 40 OFFCURVE",
"300 40 CURVE SMOOTH",
"195 40 OFFCURVE",
"128 70 OFFCURVE",
"86 135 CURVE SMOOTH",
"76 152 OFFCURVE",
"66 155 OFFCURVE",
"51 147 CURVE SMOOTH",
"37 139 OFFCURVE",
"32 126 OFFCURVE",
"38 111 CURVE SMOOTH",
"62 45 OFFCURVE",
"185 -10 OFFCURVE",
"308 -10 CURVE SMOOTH"
);
}
);
width = 661;
},
{
anchors = (
{
name = bottom;
position = "{307, 0}";
},
{
name = top;
position = "{418, 696}";
}
);
layerId = "71BB0B28-5B77-4945-A3C0-334755DB3BD8";
paths = (
{
closed = 1;
nodes = (
"496 -10 OFFCURVE",
"617 79 OFFCURVE",
"617 208 CURVE SMOOTH",
"617 301 OFFCURVE",
"563 343 OFFCURVE",
"375 396 CURVE SMOOTH",
"228 438 OFFCURVE",
"199 458 OFFCURVE",
"199 515 CURVE SMOOTH",
"199 591 OFFCURVE",
"274 638 OFFCURVE",
"395 638 CURVE SMOOTH",
"492 638 OFFCURVE",
"561 608 OFFCURVE",
"588 553 CURVE",
"600 535 OFFCURVE",
"622 530 OFFCURVE",
"641 540 CURVE",
"664 554 OFFCURVE",
"669 569 OFFCURVE",
"661 592 CURVE SMOOTH",
"635 663 OFFCURVE",
"534 710 OFFCURVE",
"407 710 CURVE SMOOTH",
"234 710 OFFCURVE",
"112 624 OFFCURVE",
"112 502 CURVE SMOOTH",
"112 411 OFFCURVE",
"170 366 OFFCURVE",
"352 317 CURVE SMOOTH",
"498 277 OFFCURVE",
"530 255 OFFCURVE",
"530 195 CURVE SMOOTH",
"530 113 OFFCURVE",
"449 62 OFFCURVE",
"317 62 CURVE SMOOTH",
"227 62 OFFCURVE",
"171 86 OFFCURVE",
"101 154 CURVE SMOOTH",
"76 178 OFFCURVE",
"67 180 OFFCURVE",
"47 165 CURVE SMOOTH",
"27 150 OFFCURVE",
"21 129 OFFCURVE",
"32 113 CURVE SMOOTH",
"66 45 OFFCURVE",
"194 -10 OFFCURVE",
"319 -10 CURVE SMOOTH"
);
}
);
width = 669;
},
{
anchors = (
{
name = bottom;
position = "{344, 0}";
},
{
name = top;
position = "{436, 690}";
}
);
layerId = "D92B54DD-6BE9-4383-803D-42A15BF32189";
paths = (
{
closed = 1;
nodes = (
"539 -10 OFFCURVE",
"657 79 OFFCURVE",
"657 212 CURVE SMOOTH",
"657 314 OFFCURVE",
"600 359 OFFCURVE",
"402 415 CURVE SMOOTH",
"282 448 OFFCURVE",
"248 469 OFFCURVE",
"248 513 CURVE SMOOTH",
"248 569 OFFCURVE",
"313 605 OFFCURVE",
"413 605 CURVE SMOOTH",
"490 605 OFFCURVE",
"545 581 OFFCURVE",
"583 530 CURVE SMOOTH",
"601 506 OFFCURVE",
"635 499 OFFCURVE",
"662 515 CURVE SMOOTH",
"691 533 OFFCURVE",
"701 561 OFFCURVE",
"688 593 CURVE SMOOTH",
"660 662 OFFCURVE",
"552 710 OFFCURVE",
"423 710 CURVE SMOOTH",
"242 710 OFFCURVE",
"112 620 OFFCURVE",
"112 494 CURVE SMOOTH",
"112 399 OFFCURVE",
"183 344 OFFCURVE",
"364 298 CURVE SMOOTH",
"483 267 OFFCURVE",
"520 243 OFFCURVE",
"520 196 CURVE SMOOTH",
"520 135 OFFCURVE",
"452 95 OFFCURVE",
"347 95 CURVE SMOOTH",
"264 95 OFFCURVE",
"210 118 OFFCURVE",
"135 185 CURVE SMOOTH",
"107 210 OFFCURVE",
"74 212 OFFCURVE",
"49 192 CURVE SMOOTH",
"23 172 OFFCURVE",
"18 145 OFFCURVE",
"34 116 CURVE SMOOTH",
"72 45 OFFCURVE",
"215 -10 OFFCURVE",
"362 -10 CURVE SMOOTH"
);
}
);
width = 703;
}
);
leftKerningGroup = S;
note = S;
rightKerningGroup = S;
unicode = 0053;
},
{
glyphname = T;
lastChange = "2018-05-14 07:52:33 +0000";
layers = (
{
anchors = (
{
name = bottom;
position = "{345, 0}";
},
{
name = center;
position = "{345, 350}";
},
{
name = top;
position = "{345, 700}";
}
);
layerId = "0B1DFD06-3317-40CA-B510-4969A0718C16";
paths = (
{
closed = 1;
nodes = (
"361 -10 OFFCURVE",
"371 1 OFFCURVE",
"371 22 CURVE SMOOTH",
"371 653 LINE",
"614 653 LINE SMOOTH",
"634 653 OFFCURVE",
"644 661 OFFCURVE",
"644 676 CURVE SMOOTH",
"644 693 OFFCURVE",
"635 700 OFFCURVE",
"614 700 CURVE SMOOTH",
"75 700 LINE SMOOTH",
"54 700 OFFCURVE",
"45 693 OFFCURVE",
"45 676 CURVE SMOOTH",
"45 661 OFFCURVE",
"55 654 OFFCURVE",
"75 653 CURVE SMOOTH",
"318 653 LINE",
"318 22 LINE SMOOTH",
"318 1 OFFCURVE",
"327 -10 OFFCURVE",
"344 -10 CURVE SMOOTH"
);
}
);
width = 689;
},
{
anchors = (
{
name = bottom;
position = "{342, 0}";
},
{
name = center;
position = "{342, 350}";
},
{
name = top;
position = "{342, 690}";
}
);
layerId = "258BB4CE-589F-454F-8E39-237B943AA0B4";
paths = (
{
closed = 1;
nodes = (
"381 -10 OFFCURVE",
"408 14 OFFCURVE",
"408 50 CURVE SMOOTH",
"408 597 LINE",
"601 597 LINE SMOOTH",
"640 597 OFFCURVE",
"663 616 OFFCURVE",
"663 648 CURVE SMOOTH",
"663 681 OFFCURVE",
"641 700 OFFCURVE",
"601 700 CURVE SMOOTH",
"82 700 LINE SMOOTH",
"42 700 OFFCURVE",
"20 681 OFFCURVE",
"20 648 CURVE SMOOTH",
"20 616 OFFCURVE",
"43 597 OFFCURVE",
"82 597 CURVE SMOOTH",
"275 597 LINE",
"275 50 LINE SMOOTH",
"275 13 OFFCURVE",
"301 -10 OFFCURVE",
"341 -10 CURVE SMOOTH"
);
}
);
width = 683;
},
{
anchors = (
{
name = bottom;
position = "{344, 0}";
},
{
name = center;
position = "{344, 350}";
},
{
name = top;
position = "{344, 696}";
}
);
layerId = "8ED59CAD-D047-43C0-8308-3370007B39AA";
paths = (
{
closed = 1;
nodes = (
"370 -10 OFFCURVE",
"386 7 OFFCURVE",
"386 33 CURVE SMOOTH",
"386 631 LINE",
"609 631 LINE SMOOTH",
"637 631 OFFCURVE",
"652 643 OFFCURVE",
"652 665 CURVE SMOOTH",
"652 688 OFFCURVE",
"637 700 OFFCURVE",
"609 700 CURVE SMOOTH",
"78 700 LINE SMOOTH",
"49 700 OFFCURVE",
"35 688 OFFCURVE",
"35 665 CURVE SMOOTH",
"35 643 OFFCURVE",
"50 631 OFFCURVE",
"78 631 CURVE SMOOTH",
"301 631 LINE",
"301 33 LINE SMOOTH",
"301 6 OFFCURVE",
"316 -10 OFFCURVE",
"343 -10 CURVE SMOOTH"
);
}
);
width = 687;
},
{
anchors = (
{
name = bottom;
position = "{303, 0}";
},
{
name = center;
position = "{365, 350}";
},
{
name = top;
position = "{426, 700}";
}
);
layerId = "6D0DA379-F071-4911-97B5-1F20F456FBFD";
paths = (
{
closed = 1;
nodes = (
"318 -10 OFFCURVE",
"330 1 OFFCURVE",
"334 22 CURVE SMOOTH",
"445 653 LINE",
"688 653 LINE SMOOTH",
"710 653 OFFCURVE",
"722 663 OFFCURVE",
"722 681 CURVE SMOOTH",
"722 694 OFFCURVE",
"714 700 OFFCURVE",
"696 700 CURVE SMOOTH",
"157 700 LINE SMOOTH",
"134 700 OFFCURVE",
"123 691 OFFCURVE",
"123 672 CURVE SMOOTH",
"123 660 OFFCURVE",
"132 653 OFFCURVE",
"149 653 CURVE SMOOTH",
"392 653 LINE",
"281 22 LINE SMOOTH",
"278 1 OFFCURVE",
"285 -10 OFFCURVE",
"301 -10 CURVE SMOOTH"
);
}
);
width = 689;
},
{
anchors = (
{
name = bottom;
position = "{303, 0}";
},
{
name = center;
position = "{365, 350}";
},
{
name = top;
position = "{426, 696}";
}
);
layerId = "71BB0B28-5B77-4945-A3C0-334755DB3BD8";
paths = (
{
closed = 1;
nodes = (
"327 -10 OFFCURVE",
"346 6 OFFCURVE",
"351 33 CURVE SMOOTH",
"456 631 LINE",
"679 631 LINE SMOOTH",
"711 631 OFFCURVE",
"729 647 OFFCURVE",
"729 671 CURVE SMOOTH",
"729 700 OFFCURVE",
"702 700 OFFCURVE",
"691 700 CURVE SMOOTH",
"160 700 LINE SMOOTH",
"131 700 OFFCURVE",
"110 686 OFFCURVE",
"110 664 CURVE SMOOTH",
"110 644 OFFCURVE",
"123 631 OFFCURVE",
"148 631 CURVE SMOOTH",
"371 631 LINE",
"266 33 LINE SMOOTH",
"261 7 OFFCURVE",
"275 -10 OFFCURVE",
"301 -10 CURVE SMOOTH"
);
}
);
width = 687;
},
{
anchors = (
{
name = bottom;
position = "{300, 0}";
},
{
name = center;
position = "{362, 350}";
},
{
name = top;
position = "{422, 690}";
}
);
layerId = "D92B54DD-6BE9-4383-803D-42A15BF32189";
paths = (
{
closed = 1;
nodes = (
"338 -10 OFFCURVE",
"369 14 OFFCURVE",
"376 50 CURVE SMOOTH",
"472 597 LINE",
"665 597 LINE SMOOTH",
"708 597 OFFCURVE",
"737 621 OFFCURVE",
"737 659 CURVE SMOOTH",
"737 685 OFFCURVE",
"718 700 OFFCURVE",
"683 700 CURVE SMOOTH",
"164 700 LINE SMOOTH",
"122 700 OFFCURVE",
"92 677 OFFCURVE",
"92 637 CURVE SMOOTH",
"92 612 OFFCURVE",
"112 597 OFFCURVE",
"146 597 CURVE SMOOTH",
"339 597 LINE",
"243 50 LINE SMOOTH",
"237 17 OFFCURVE",
"256 -10 OFFCURVE",
"298 -10 CURVE SMOOTH"
);
}
);
width = 683;
}
);
leftKerningGroup = T;
note = T;
rightKerningGroup = T;
unicode = 0054;
},
{
glyphname = U;
lastChange = "2018-05-14 07:53:31 +0000";
layers = (
{
anchors = (
{
name = bottom;
position = "{366, 0}";
},
{
name = ogonek;
position = "{395, 10}";
},
{
name = top;
position = "{366, 700}";
},
{
name = topright;
position = "{635, 666}";
}
);
layerId = "0B1DFD06-3317-40CA-B510-4969A0718C16";
paths = (
{
closed = 1;
nodes = (
"542 -10 OFFCURVE",
"652 101 OFFCURVE",
"652 275 CURVE SMOOTH",
"652 678 LINE SMOOTH",
"652 699 OFFCURVE",
"643 710 OFFCURVE",
"626 710 CURVE SMOOTH",
"609 710 OFFCURVE",
"599 699 OFFCURVE",
"599 678 CURVE SMOOTH",
"599 272 LINE SMOOTH",
"599 126 OFFCURVE",
"513 39 OFFCURVE",
"366 39 CURVE SMOOTH",
"217 39 OFFCURVE",
"133 123 OFFCURVE",
"133 272 CURVE SMOOTH",
"133 678 LINE SMOOTH",
"133 699 OFFCURVE",
"123 710 OFFCURVE",
"106 710 CURVE SMOOTH",
"89 710 OFFCURVE",
"80 699 OFFCURVE",
"80 678 CURVE SMOOTH",
"80 275 LINE SMOOTH",
"80 96 OFFCURVE",
"187 -10 OFFCURVE",
"362 -10 CURVE SMOOTH"
);
}
);
width = 732;
},
{
anchors = (
{
name = bottom;
position = "{360, 0}";
},
{
name = ogonek;
position = "{391, 10}";
},
{
name = top;
position = "{360, 700}";
},
{
name = topright;
position = "{645, 640}";
}
);
layerId = "258BB4CE-589F-454F-8E39-237B943AA0B4";
paths = (
{
closed = 1;
nodes = (
"550 -10 OFFCURVE",
"675 115 OFFCURVE",
"675 303 CURVE SMOOTH",
"675 650 LINE SMOOTH",
"675 687 OFFCURVE",
"649 710 OFFCURVE",
"609 710 CURVE SMOOTH",
"569 710 OFFCURVE",
"542 686 OFFCURVE",
"542 650 CURVE SMOOTH",
"542 300 LINE SMOOTH",
"542 170 OFFCURVE",
"476 95 OFFCURVE",
"360 95 CURVE SMOOTH",
"243 95 OFFCURVE",
"178 168 OFFCURVE",
"178 300 CURVE SMOOTH",
"178 650 LINE SMOOTH",
"178 686 OFFCURVE",
"151 710 OFFCURVE",
"111 710 CURVE SMOOTH",
"71 710 OFFCURVE",
"45 687 OFFCURVE",
"45 650 CURVE SMOOTH",
"45 303 LINE SMOOTH",
"45 110 OFFCURVE",
"167 -10 OFFCURVE",
"357 -10 CURVE SMOOTH"
);
}
);
width = 720;
},
{
anchors = (
{
name = bottom;
position = "{363, 0}";
},
{
name = ogonek;
position = "{392, 10}";
},
{
name = top;
position = "{363, 700}";
},
{
name = topright;
position = "{638, 656}";
}
);
layerId = "8ED59CAD-D047-43C0-8308-3370007B39AA";
paths = (
{
closed = 1;
nodes = (
"544 -10 OFFCURVE",
"660 106 OFFCURVE",
"660 286 CURVE SMOOTH",
"660 667 LINE SMOOTH",
"660 694 OFFCURVE",
"645 710 OFFCURVE",
"618 710 CURVE SMOOTH",
"592 710 OFFCURVE",
"575 694 OFFCURVE",
"575 667 CURVE SMOOTH",
"575 283 LINE SMOOTH",
"575 143 OFFCURVE",
"496 61 OFFCURVE",
"360 61 CURVE SMOOTH",
"227 61 OFFCURVE",
"150 140 OFFCURVE",
"150 283 CURVE SMOOTH",
"150 667 LINE SMOOTH",
"150 694 OFFCURVE",
"134 710 OFFCURVE",
"107 710 CURVE SMOOTH",
"81 710 OFFCURVE",
"65 694 OFFCURVE",
"65 667 CURVE SMOOTH",
"65 286 LINE SMOOTH",
"65 101 OFFCURVE",
"178 -10 OFFCURVE",
"359 -10 CURVE SMOOTH"
);
}
);
width = 725;
},
{
anchors = (
{
name = bottom;
position = "{325, 0}";
},
{
name = ogonek;
position = "{356, 10}";
},
{
name = top;
position = "{448, 700}";
},
{
name = topright;
position = "{711, 666}";
}
);
layerId = "6D0DA379-F071-4911-97B5-1F20F456FBFD";
paths = (
{
closed = 1;
nodes = (
"507 -10 OFFCURVE",
"626 88 OFFCURVE",
"659 275 CURVE SMOOTH",
"731 678 LINE SMOOTH",
"735 699 OFFCURVE",
"727 710 OFFCURVE",
"710 710 CURVE SMOOTH",
"692 710 OFFCURVE",
"682 699 OFFCURVE",
"678 678 CURVE SMOOTH",
"606 272 LINE SMOOTH",
"579 121 OFFCURVE",
"492 39 OFFCURVE",
"330 39 CURVE SMOOTH",
"175 39 OFFCURVE",
"112 115 OFFCURVE",
"140 272 CURVE SMOOTH",
"212 678 LINE SMOOTH",
"216 699 OFFCURVE",
"207 710 OFFCURVE",
"190 710 CURVE SMOOTH",
"173 710 OFFCURVE",
"163 699 OFFCURVE",
"159 678 CURVE SMOOTH",
"87 275 LINE SMOOTH",
"56 100 OFFCURVE",
"143 -10 OFFCURVE",
"330 -10 CURVE SMOOTH"
);
}
);
width = 733;
},
{
anchors = (
{
name = bottom;
position = "{322, 0}";
},
{
name = ogonek;
position = "{353, 10}";
},
{
name = top;
position = "{445, 700}";
},
{
name = topright;
position = "{713, 656}";
}
);
layerId = "71BB0B28-5B77-4945-A3C0-334755DB3BD8";
paths = (
{
closed = 1;
nodes = (
"508 -10 OFFCURVE",
"636 99 OFFCURVE",
"669 286 CURVE SMOOTH",
"737 667 LINE SMOOTH",
"742 695 OFFCURVE",
"728 710 OFFCURVE",
"702 710 CURVE SMOOTH",
"675 710 OFFCURVE",
"657 693 OFFCURVE",
"652 667 CURVE SMOOTH",
"584 283 LINE SMOOTH",
"559 142 OFFCURVE",
"474 61 OFFCURVE",
"330 61 CURVE SMOOTH",
"192 61 OFFCURVE",
"133 136 OFFCURVE",
"159 283 CURVE SMOOTH",
"227 667 LINE SMOOTH",
"232 694 OFFCURVE",
"217 710 OFFCURVE",
"191 710 CURVE SMOOTH",
"165 710 OFFCURVE",
"147 694 OFFCURVE",
"142 667 CURVE SMOOTH",
"74 286 LINE SMOOTH",
"42 107 OFFCURVE",
"142 -10 OFFCURVE",
"328 -10 CURVE SMOOTH"
);
}
);
width = 726;
},
{
anchors = (
{
name = bottom;
position = "{319, 0}";
},
{
name = ogonek;
position = "{352, 10}";
},
{
name = top;
position = "{442, 700}";
},
{
name = topright;
position = "{717, 640}";
}
);
layerId = "D92B54DD-6BE9-4383-803D-42A15BF32189";
paths = (
{
closed = 1;
nodes = (
"532 -10 OFFCURVE",
"652 94 OFFCURVE",
"687 294 CURVE SMOOTH",
"749 650 LINE SMOOTH",
"755 687 OFFCURVE",
"733 710 OFFCURVE",
"693 710 CURVE SMOOTH",
"653 710 OFFCURVE",
"622 686 OFFCURVE",
"616 650 CURVE SMOOTH",
"554 300 LINE SMOOTH",
"531 169 OFFCURVE",
"453 95 OFFCURVE",
"336 95 CURVE SMOOTH",
"214 95 OFFCURVE",
"166 162 OFFCURVE",
"190 300 CURVE SMOOTH",
"252 650 LINE SMOOTH",
"258 686 OFFCURVE",
"235 710 OFFCURVE",
"194 710 CURVE SMOOTH",
"154 710 OFFCURVE",
"126 688 OFFCURVE",
"119 650 CURVE SMOOTH",
"57 303 LINE SMOOTH",
"23 120 OFFCURVE",
"140 -10 OFFCURVE",
"339 -10 CURVE SMOOTH"
);
}
);
width = 721;
}
);
leftKerningGroup = U;
note = U;
rightKerningGroup = U;
unicode = 0055;
},
{
glyphname = V;
lastChange = "2018-05-14 07:53:51 +0000";
layers = (
{
anchors = (
{
name = bottom;
position = "{354, 0}";
},
{
name = top;
position = "{354, 700}";
}
);
layerId = "0B1DFD06-3317-40CA-B510-4969A0718C16";
paths = (
{
closed = 1;
nodes = (
"444 -10 OFFCURVE",
"493 45 OFFCURVE",
"529 188 CURVE SMOOTH",
"651 675 LINE SMOOTH",
"657 699 OFFCURVE",
"650 710 OFFCURVE",
"630 710 CURVE SMOOTH",
"611 710 OFFCURVE",
"605 704 OFFCURVE",
"599 680 CURVE SMOOTH",
"478 194 LINE SMOOTH",
"449 76 OFFCURVE",
"419 38 OFFCURVE",
"354 38 CURVE SMOOTH",
"289 38 OFFCURVE",
"259 76 OFFCURVE",
"230 194 CURVE SMOOTH",
"109 680 LINE SMOOTH",
"103 704 OFFCURVE",
"97 710 OFFCURVE",
"78 710 CURVE SMOOTH",
"58 710 OFFCURVE",
"51 699 OFFCURVE",
"57 675 CURVE SMOOTH",
"179 188 LINE SMOOTH",
"215 45 OFFCURVE",
"264 -10 OFFCURVE",
"354 -10 CURVE SMOOTH"
);
}
);
width = 708;
},
{
anchors = (
{
name = bottom;
position = "{380, 0}";
},
{
name = top;
position = "{380, 700}";
}
);
layerId = "258BB4CE-589F-454F-8E39-237B943AA0B4";
paths = (
{
closed = 1;
nodes = (
"488 -10 OFFCURVE",
"542 45 OFFCURVE",
"587 199 CURVE SMOOTH",
"716 641 LINE SMOOTH",
"730 686 OFFCURVE",
"709 710 OFFCURVE",
"658 710 CURVE SMOOTH",
"617 710 OFFCURVE",
"596 695 OFFCURVE",
"586 659 CURVE SMOOTH",
"458 209 LINE SMOOTH",
"432 117 OFFCURVE",
"417 94 OFFCURVE",
"380 94 CURVE SMOOTH",
"343 94 OFFCURVE",
"328 117 OFFCURVE",
"302 209 CURVE SMOOTH",
"174 659 LINE SMOOTH",
"164 695 OFFCURVE",
"143 710 OFFCURVE",
"102 710 CURVE SMOOTH",
"51 710 OFFCURVE",
"30 686 OFFCURVE",
"44 641 CURVE SMOOTH",
"173 199 LINE SMOOTH",
"218 45 OFFCURVE",
"272 -10 OFFCURVE",
"380 -10 CURVE SMOOTH"
);
}
);
width = 760;
},
{
anchors = (
{
name = bottom;
position = "{360, 0}";
},
{
name = top;
position = "{360, 700}";
}
);
layerId = "8ED59CAD-D047-43C0-8308-3370007B39AA";
paths = (
{
closed = 1;
nodes = (
"459 -10 OFFCURVE",
"509 44 OFFCURVE",
"549 192 CURVE SMOOTH",
"673 661 LINE SMOOTH",
"682 693 OFFCURVE",
"670 710 OFFCURVE",
"637 710 CURVE SMOOTH",
"609 710 OFFCURVE",
"597 700 OFFCURVE",
"590 672 CURVE SMOOTH",
"467 200 LINE SMOOTH",
"439 93 OFFCURVE",
"414 60 OFFCURVE",
"360 60 CURVE SMOOTH",
"307 60 OFFCURVE",
"282 93 OFFCURVE",
"254 200 CURVE SMOOTH",
"131 672 LINE SMOOTH",
"123 701 OFFCURVE",
"111 710 OFFCURVE",
"84 710 CURVE SMOOTH",
"51 710 OFFCURVE",
"39 693 OFFCURVE",
"48 661 CURVE SMOOTH",
"172 192 LINE SMOOTH",
"211 45 OFFCURVE",
"262 -10 OFFCURVE",
"360 -10 CURVE SMOOTH"
);
}
);
width = 721;
},
{
anchors = (
{
name = bottom;
position = "{312, 0}";
},
{
name = top;
position = "{435, 700}";
}
);
layerId = "6D0DA379-F071-4911-97B5-1F20F456FBFD";
paths = (
{
closed = 1;
nodes = (
"405 -10 OFFCURVE",
"456 39 OFFCURVE",
"520 188 CURVE SMOOTH",
"728 675 LINE SMOOTH",
"738 698 OFFCURVE",
"733 710 OFFCURVE",
"713 710 CURVE SMOOTH",
"694 710 OFFCURVE",
"688 705 OFFCURVE",
"677 680 CURVE SMOOTH",
"470 194 LINE SMOOTH",
"421 77 OFFCURVE",
"382 38 OFFCURVE",
"317 38 CURVE SMOOTH",
"253 38 OFFCURVE",
"230 75 OFFCURVE",
"222 194 CURVE SMOOTH",
"187 680 LINE SMOOTH",
"186 704 OFFCURVE",
"181 710 OFFCURVE",
"161 710 CURVE SMOOTH",
"141 710 OFFCURVE",
"133 699 OFFCURVE",
"134 675 CURVE SMOOTH",
"170 188 LINE SMOOTH",
"180 53 OFFCURVE",
"224 -10 OFFCURVE",
"310 -10 CURVE SMOOTH"
);
}
);
width = 707;
},
{
anchors = (
{
name = bottom;
position = "{318, 0}";
},
{
name = top;
position = "{441, 700}";
}
);
layerId = "71BB0B28-5B77-4945-A3C0-334755DB3BD8";
paths = (
{
closed = 1;
nodes = (
"416 -10 OFFCURVE",
"475 44 OFFCURVE",
"541 192 CURVE SMOOTH",
"748 661 LINE SMOOTH",
"762 693 OFFCURVE",
"753 710 OFFCURVE",
"720 710 CURVE SMOOTH",
"692 710 OFFCURVE",
"678 700 OFFCURVE",
"666 672 CURVE SMOOTH",
"460 200 LINE SMOOTH",
"414 94 OFFCURVE",
"383 60 OFFCURVE",
"329 60 CURVE SMOOTH",
"276 60 OFFCURVE",
"257 93 OFFCURVE",
"247 200 CURVE SMOOTH",
"207 672 LINE SMOOTH",
"205 700 OFFCURVE",
"195 710 OFFCURVE",
"167 710 CURVE SMOOTH",
"135 710 OFFCURVE",
"120 694 OFFCURVE",
"123 661 CURVE SMOOTH",
"164 192 LINE SMOOTH",
"176 52 OFFCURVE",
"224 -10 OFFCURVE",
"321 -10 CURVE SMOOTH"
);
}
);
width = 720;
},
{
anchors = (
{
name = bottom;
position = "{338, 0}";
},
{
name = top;
position = "{461, 700}";
}
);
layerId = "D92B54DD-6BE9-4383-803D-42A15BF32189";
paths = (
{
closed = 1;
nodes = (
"450 -10 OFFCURVE",
"509 41 OFFCURVE",
"582 199 CURVE SMOOTH",
"787 641 LINE SMOOTH",
"808 686 OFFCURVE",
"792 710 OFFCURVE",
"741 710 CURVE SMOOTH",
"701 710 OFFCURVE",
"677 695 OFFCURVE",
"660 659 CURVE SMOOTH",
"455 209 LINE SMOOTH",
"414 119 OFFCURVE",
"392 94 OFFCURVE",
"355 94 CURVE SMOOTH",
"317 94 OFFCURVE",
"304 120 OFFCURVE",
"295 209 CURVE SMOOTH",
"248 659 LINE SMOOTH",
"245 695 OFFCURVE",
"226 710 OFFCURVE",
"185 710 CURVE SMOOTH",
"135 710 OFFCURVE",
"111 686 OFFCURVE",
"115 641 CURVE SMOOTH",
"164 199 LINE SMOOTH",
"179 65 OFFCURVE",
"243 -10 OFFCURVE",
"342 -10 CURVE SMOOTH"
);
}
);
width = 759;
}
);
note = V;
unicode = 0056;
},
{
glyphname = W;
lastChange = "2018-05-14 07:54:18 +0000";
layers = (
{
anchors = (
{
name = bottom;
position = "{467, 0}";
},
{
name = top;
position = "{467, 700}";
}
);
layerId = "0B1DFD06-3317-40CA-B510-4969A0718C16";
paths = (
{
closed = 1;
nodes = (
"314 -10 OFFCURVE",
"343 24 OFFCURVE",
"354 94 CURVE SMOOTH",
"440 622 LINE SMOOTH",
"445 651 OFFCURVE",
"453 662 OFFCURVE",
"467 662 CURVE SMOOTH",
"481 662 OFFCURVE",
"489 651 OFFCURVE",
"494 622 CURVE SMOOTH",
"580 94 LINE SMOOTH",
"591 24 OFFCURVE",
"620 -10 OFFCURVE",
"670 -10 CURVE SMOOTH",
"720 -10 OFFCURVE",
"751 24 OFFCURVE",
"765 94 CURVE SMOOTH",
"877 675 LINE SMOOTH",
"882 699 OFFCURVE",
"875 710 OFFCURVE",
"856 710 CURVE SMOOTH",
"836 710 OFFCURVE",
"829 704 OFFCURVE",
"825 680 CURVE SMOOTH",
"714 95 LINE SMOOTH",
"706 53 OFFCURVE",
"695 38 OFFCURVE",
"670 38 CURVE SMOOTH",
"644 38 OFFCURVE",
"632 54 OFFCURVE",
"626 95 CURVE SMOOTH",
"541 623 LINE SMOOTH",
"531 682 OFFCURVE",
"507 710 OFFCURVE",
"467 710 CURVE SMOOTH",
"427 710 OFFCURVE",
"403 682 OFFCURVE",
"393 623 CURVE SMOOTH",
"308 95 LINE SMOOTH",
"302 54 OFFCURVE",
"290 38 OFFCURVE",
"264 38 CURVE SMOOTH",
"239 38 OFFCURVE",
"228 53 OFFCURVE",
"220 95 CURVE SMOOTH",
"109 680 LINE SMOOTH",
"105 704 OFFCURVE",
"98 710 OFFCURVE",
"78 710 CURVE SMOOTH",
"59 710 OFFCURVE",
"52 699 OFFCURVE",
"57 675 CURVE SMOOTH",
"169 94 LINE SMOOTH",
"183 24 OFFCURVE",
"214 -10 OFFCURVE",
"264 -10 CURVE SMOOTH"
);
}
);
width = 934;
},
{
anchors = (
{
name = bottom;
position = "{479, 0}";
},
{
name = top;
position = "{479, 690}";
}
);
layerId = "258BB4CE-589F-454F-8E39-237B943AA0B4";
paths = (
{
closed = 1;
nodes = (
"353 -10 OFFCURVE",
"393 34 OFFCURVE",
"406 130 CURVE SMOOTH",
"465 578 LINE SMOOTH",
"468 598 OFFCURVE",
"471 605 OFFCURVE",
"479 605 CURVE SMOOTH",
"487 605 OFFCURVE",
"490 598 OFFCURVE",
"493 578 CURVE SMOOTH",
"552 130 LINE SMOOTH",
"565 34 OFFCURVE",
"605 -10 OFFCURVE",
"680 -10 CURVE SMOOTH",
"755 -10 OFFCURVE",
"798 35 OFFCURVE",
"817 133 CURVE SMOOTH",
"916 642 LINE SMOOTH",
"925 685 OFFCURVE",
"902 710 OFFCURVE",
"856 710 CURVE SMOOTH",
"816 710 OFFCURVE",
"793 693 OFFCURVE",
"786 657 CURVE SMOOTH",
"691 122 LINE SMOOTH",
"686 100 OFFCURVE",
"683 95 OFFCURVE",
"676 95 CURVE SMOOTH",
"668 95 OFFCURVE",
"663 103 OFFCURVE",
"661 121 CURVE SMOOTH",
"598 600 LINE SMOOTH",
"589 669 OFFCURVE",
"545 710 OFFCURVE",
"479 710 CURVE SMOOTH",
"413 710 OFFCURVE",
"369 669 OFFCURVE",
"360 600 CURVE SMOOTH",
"297 121 LINE SMOOTH",
"295 103 OFFCURVE",
"290 95 OFFCURVE",
"282 95 CURVE SMOOTH",
"275 95 OFFCURVE",
"272 100 OFFCURVE",
"267 122 CURVE SMOOTH",
"172 657 LINE SMOOTH",
"165 693 OFFCURVE",
"142 710 OFFCURVE",
"102 710 CURVE SMOOTH",
"56 710 OFFCURVE",
"33 685 OFFCURVE",
"42 642 CURVE SMOOTH",
"141 133 LINE SMOOTH",
"160 35 OFFCURVE",
"203 -10 OFFCURVE",
"278 -10 CURVE SMOOTH"
);
}
);
width = 958;
},
{
anchors = (
{
name = bottom;
position = "{468, 0}";
},
{
name = top;
position = "{468, 696}";
}
);
layerId = "8ED59CAD-D047-43C0-8308-3370007B39AA";
paths = (
{
closed = 1;
nodes = (
"326 -10 OFFCURVE",
"359 28 OFFCURVE",
"371 108 CURVE SMOOTH",
"446 604 LINE SMOOTH",
"450 630 OFFCURVE",
"456 639 OFFCURVE",
"468 639 CURVE SMOOTH",
"480 639 OFFCURVE",
"486 630 OFFCURVE",
"490 604 CURVE SMOOTH",
"565 108 LINE SMOOTH",
"577 28 OFFCURVE",
"610 -10 OFFCURVE",
"670 -10 CURVE SMOOTH",
"730 -10 OFFCURVE",
"765 28 OFFCURVE",
"782 110 CURVE SMOOTH",
"889 662 LINE SMOOTH",
"895 693 OFFCURVE",
"882 710 OFFCURVE",
"852 710 CURVE SMOOTH",
"824 710 OFFCURVE",
"811 699 OFFCURVE",
"805 671 CURVE SMOOTH",
"701 106 LINE SMOOTH",
"694 72 OFFCURVE",
"686 61 OFFCURVE",
"668 61 CURVE SMOOTH",
"650 61 OFFCURVE",
"640 74 OFFCURVE",
"636 105 CURVE SMOOTH",
"560 614 LINE SMOOTH",
"550 677 OFFCURVE",
"519 710 OFFCURVE",
"468 710 CURVE SMOOTH",
"417 710 OFFCURVE",
"385 676 OFFCURVE",
"376 614 CURVE SMOOTH",
"300 105 LINE SMOOTH",
"295 73 OFFCURVE",
"285 61 OFFCURVE",
"267 61 CURVE SMOOTH",
"249 61 OFFCURVE",
"241 73 OFFCURVE",
"235 106 CURVE SMOOTH",
"130 671 LINE SMOOTH",
"125 699 OFFCURVE",
"111 710 OFFCURVE",
"84 710 CURVE SMOOTH",
"53 710 OFFCURVE",
"41 693 OFFCURVE",
"47 662 CURVE SMOOTH",
"154 110 LINE SMOOTH",
"170 28 OFFCURVE",
"205 -10 OFFCURVE",
"266 -10 CURVE SMOOTH"
);
}
);
width = 935;
},
{
anchors = (
{
name = bottom;
position = "{425, 0}";
},
{
name = top;
position = "{548, 700}";
}
);
layerId = "6D0DA379-F071-4911-97B5-1F20F456FBFD";
paths = (
{
closed = 1;
nodes = (
"270 -10 OFFCURVE",
"307 24 OFFCURVE",
"331 94 CURVE SMOOTH",
"510 622 LINE SMOOTH",
"520 651 OFFCURVE",
"530 662 OFFCURVE",
"544 662 CURVE SMOOTH",
"559 662 OFFCURVE",
"564 651 OFFCURVE",
"564 622 CURVE SMOOTH",
"557 94 LINE SMOOTH",
"556 28 OFFCURVE",
"581 -10 OFFCURVE",
"626 -10 CURVE SMOOTH",
"676 -10 OFFCURVE",
"713 24 OFFCURVE",
"740 94 CURVE SMOOTH",
"954 675 LINE SMOOTH",
"963 699 OFFCURVE",
"958 710 OFFCURVE",
"939 710 CURVE SMOOTH",
"919 710 OFFCURVE",
"912 704 OFFCURVE",
"903 680 CURVE SMOOTH",
"689 95 LINE SMOOTH",
"674 53 OFFCURVE",
"660 38 OFFCURVE",
"635 38 CURVE SMOOTH",
"609 38 OFFCURVE",
"600 54 OFFCURVE",
"601 95 CURVE SMOOTH",
"609 623 LINE SMOOTH",
"610 682 OFFCURVE",
"591 710 OFFCURVE",
"550 710 CURVE SMOOTH",
"510 710 OFFCURVE",
"481 682 OFFCURVE",
"461 623 CURVE SMOOTH",
"283 95 LINE SMOOTH",
"269 54 OFFCURVE",
"254 38 OFFCURVE",
"229 38 CURVE SMOOTH",
"204 38 OFFCURVE",
"195 53 OFFCURVE",
"195 95 CURVE SMOOTH",
"187 680 LINE SMOOTH",
"187 703 OFFCURVE",
"181 710 OFFCURVE",
"161 710 CURVE SMOOTH",
"142 710 OFFCURVE",
"134 700 OFFCURVE",
"134 675 CURVE SMOOTH",
"144 94 LINE SMOOTH",
"145 29 OFFCURVE",
"173 -10 OFFCURVE",
"220 -10 CURVE SMOOTH"
);
}
);
width = 933;
},
{
anchors = (
{
name = bottom;
position = "{426, 0}";
},
{
name = top;
position = "{549, 696}";
}
);
layerId = "71BB0B28-5B77-4945-A3C0-334755DB3BD8";
paths = (
{
closed = 1;
nodes = (
"284 -10 OFFCURVE",
"324 27 OFFCURVE",
"351 108 CURVE SMOOTH",
"514 604 LINE SMOOTH",
"523 630 OFFCURVE",
"530 639 OFFCURVE",
"542 639 CURVE SMOOTH",
"554 639 OFFCURVE",
"559 628 OFFCURVE",
"558 604 CURVE SMOOTH",
"545 108 LINE SMOOTH",
"543 27 OFFCURVE",
"570 -10 OFFCURVE",
"629 -10 CURVE SMOOTH",
"688 -10 OFFCURVE",
"728 27 OFFCURVE",
"759 110 CURVE SMOOTH",
"964 662 LINE SMOOTH",
"975 693 OFFCURVE",
"965 710 OFFCURVE",
"935 710 CURVE SMOOTH",
"907 710 OFFCURVE",
"893 699 OFFCURVE",
"881 671 CURVE SMOOTH",
"678 106 LINE SMOOTH",
"665 72 OFFCURVE",
"655 61 OFFCURVE",
"637 61 CURVE SMOOTH",
"619 61 OFFCURVE",
"611 75 OFFCURVE",
"613 105 CURVE SMOOTH",
"626 614 LINE SMOOTH",
"628 677 OFFCURVE",
"602 710 OFFCURVE",
"551 710 CURVE SMOOTH",
"499 710 OFFCURVE",
"463 679 OFFCURVE",
"442 614 CURVE SMOOTH",
"277 105 LINE SMOOTH",
"265 72 OFFCURVE",
"254 61 OFFCURVE",
"236 61 CURVE SMOOTH",
"218 61 OFFCURVE",
"212 73 OFFCURVE",
"212 106 CURVE SMOOTH",
"206 671 LINE SMOOTH",
"206 699 OFFCURVE",
"195 710 OFFCURVE",
"167 710 CURVE SMOOTH",
"136 710 OFFCURVE",
"121 693 OFFCURVE",
"122 662 CURVE SMOOTH",
"131 110 LINE SMOOTH",
"133 29 OFFCURVE",
"164 -10 OFFCURVE",
"225 -10 CURVE SMOOTH"
);
}
);
width = 935;
},
{
anchors = (
{
name = bottom;
position = "{437, 0}";
},
{
name = top;
position = "{559, 690}";
}
);
layerId = "D92B54DD-6BE9-4383-803D-42A15BF32189";
paths = (
{
closed = 1;
nodes = (
"315 -10 OFFCURVE",
"364 34 OFFCURVE",
"393 130 CURVE SMOOTH",
"531 578 LINE SMOOTH",
"536 597 OFFCURVE",
"542 605 OFFCURVE",
"550 605 CURVE SMOOTH",
"558 605 OFFCURVE",
"560 597 OFFCURVE",
"559 578 CURVE SMOOTH",
"539 130 LINE SMOOTH",
"535 34 OFFCURVE",
"567 -10 OFFCURVE",
"642 -10 CURVE SMOOTH",
"716 -10 OFFCURVE",
"762 32 OFFCURVE",
"799 133 CURVE SMOOTH",
"988 642 LINE SMOOTH",
"1004 685 OFFCURVE",
"986 710 OFFCURVE",
"940 710 CURVE SMOOTH",
"899 710 OFFCURVE",
"874 693 OFFCURVE",
"861 657 CURVE SMOOTH",
"672 122 LINE SMOOTH",
"665 102 OFFCURVE",
"660 95 OFFCURVE",
"652 95 CURVE SMOOTH",
"644 95 OFFCURVE",
"640 104 OFFCURVE",
"641 121 CURVE SMOOTH",
"663 600 LINE SMOOTH",
"666 669 OFFCURVE",
"629 710 OFFCURVE",
"563 710 CURVE SMOOTH",
"493 710 OFFCURVE",
"448 674 OFFCURVE",
"425 600 CURVE SMOOTH",
"277 121 LINE SMOOTH",
"271 102 OFFCURVE",
"266 95 OFFCURVE",
"258 95 CURVE SMOOTH",
"250 95 OFFCURVE",
"248 102 OFFCURVE",
"248 122 CURVE SMOOTH",
"247 657 LINE SMOOTH",
"247 692 OFFCURVE",
"227 710 OFFCURVE",
"186 710 CURVE SMOOTH",
"140 710 OFFCURVE",
"113 685 OFFCURVE",
"114 642 CURVE SMOOTH",
"123 133 LINE SMOOTH",
"125 37 OFFCURVE",
"163 -10 OFFCURVE",
"240 -10 CURVE SMOOTH"
);
}
);
width = 958;
}
);
leftKerningGroup = W;
note = W;
rightKerningGroup = W;
unicode = 0057;
},
{
glyphname = X;
lastChange = "2018-05-14 07:54:36 +0000";
layers = (
{
anchors = (
{
name = bottom;
position = "{350, 0}";
},
{
name = top;
position = "{350, 700}";
}
);
background = {
paths = (
{
closed = 1;
nodes = (
"88 -12 OFFCURVE",
"102 -6 OFFCURVE",
"108 9 CURVE",
"220 234 LINE SMOOTH",
"262 313 OFFCURVE",
"303 333 OFFCURVE",
"351 333 CURVE SMOOTH",
"397 333 OFFCURVE",
"439 313 OFFCURVE",
"480 234 CURVE SMOOTH",
"593 9 LINE",
"598 -6 OFFCURVE",
"611 -12 OFFCURVE",
"627 -4 CURVE",
"638 3 OFFCURVE",
"644 20 OFFCURVE",
"638 33 CURVE",
"524 260 LINE",
"494 313 OFFCURVE",
"463 341 OFFCURVE",
"433 358 CURVE",
"463 377 OFFCURVE",
"495 407 OFFCURVE",
"524 454 CURVE",
"638 660 LINE",
"645 674 OFFCURVE",
"640 692 OFFCURVE",
"627 699 CURVE",
"613 705 OFFCURVE",
"598 699 OFFCURVE",
"593 686 CURVE",
"480 476 LINE SMOOTH",
"442 406 OFFCURVE",
"397 385 OFFCURVE",
"351 385 CURVE SMOOTH",
"303 385 OFFCURVE",
"265 393 OFFCURVE",
"220 476 CURVE SMOOTH",
"108 686 LINE",
"102 699 OFFCURVE",
"88 705 OFFCURVE",
"74 699 CURVE",
"61 692 OFFCURVE",
"55 674 OFFCURVE",
"63 660 CURVE",
"176 456 LINE SMOOTH",
"204 406 OFFCURVE",
"237 377 OFFCURVE",
"267 358 CURVE",
"220 331 OFFCURVE",
"209 309 OFFCURVE",
"180 263 CURVE",
"63 33 LINE SMOOTH",
"57 20 OFFCURVE",
"63 3 OFFCURVE",
"74 -4 CURVE"
);
}
);
};
layerId = "0B1DFD06-3317-40CA-B510-4969A0718C16";
paths = (
{
closed = 1;
nodes = (
"647 3 OFFCURVE",
"648 18 OFFCURVE",
"638 31 CURVE SMOOTH",
"114 694 LINE SMOOTH",
"101 710 OFFCURVE",
"87 714 OFFCURVE",
"74 704 CURVE SMOOTH",
"64 696 OFFCURVE",
"63 681 OFFCURVE",
"73 668 CURVE SMOOTH",
"597 5 LINE SMOOTH",
"610 -11 OFFCURVE",
"624 -15 OFFCURVE",
"637 -5 CURVE SMOOTH"
);
},
{
closed = 1;
nodes = (
"76 -15 OFFCURVE",
"90 -11 OFFCURVE",
"103 5 CURVE SMOOTH",
"627 668 LINE SMOOTH",
"637 681 OFFCURVE",
"636 696 OFFCURVE",
"626 704 CURVE SMOOTH",
"613 714 OFFCURVE",
"599 710 OFFCURVE",
"586 694 CURVE SMOOTH",
"62 31 LINE SMOOTH",
"52 18 OFFCURVE",
"53 3 OFFCURVE",
"63 -5 CURVE SMOOTH"
);
}
);
width = 700;
},
{
anchors = (
{
name = bottom;
position = "{361, 0}";
},
{
name = top;
position = "{361, 700}";
}
);
layerId = "258BB4CE-589F-454F-8E39-237B943AA0B4";
paths = (
{
closed = 1;
nodes = (
"662 13 OFFCURVE",
"671 56 OFFCURVE",
"651 81 CURVE SMOOTH",
"159 680 LINE SMOOTH",
"134 711 OFFCURVE",
"105 717 OFFCURVE",
"73 698 CURVE SMOOTH",
"44 680 OFFCURVE",
"39 636 OFFCURVE",
"63 606 CURVE SMOOTH",
"551 17 LINE SMOOTH",
"576 -14 OFFCURVE",
"603 -21 OFFCURVE",
"633 -4 CURVE SMOOTH"
);
},
{
closed = 1;
nodes = (
"99 -21 OFFCURVE",
"126 -14 OFFCURVE",
"151 17 CURVE SMOOTH",
"639 606 LINE SMOOTH",
"663 636 OFFCURVE",
"658 680 OFFCURVE",
"629 698 CURVE SMOOTH",
"597 717 OFFCURVE",
"568 711 OFFCURVE",
"543 680 CURVE SMOOTH",
"51 81 LINE SMOOTH",
"31 56 OFFCURVE",
"40 13 OFFCURVE",
"69 -4 CURVE SMOOTH"
);
}
);
width = 702;
},
{
anchors = (
{
name = bottom;
position = "{353, 0}";
},
{
name = top;
position = "{353, 700}";
}
);
layerId = "8ED59CAD-D047-43C0-8308-3370007B39AA";
paths = (
{
closed = 1;
nodes = (
"657 7 OFFCURVE",
"661 34 OFFCURVE",
"645 53 CURVE SMOOTH",
"132 688 LINE SMOOTH",
"114 710 OFFCURVE",
"98 715 OFFCURVE",
"79 704 CURVE SMOOTH",
"59 693 OFFCURVE",
"55 664 OFFCURVE",
"70 646 CURVE SMOOTH",
"582 12 LINE SMOOTH",
"599 -9 OFFCURVE",
"617 -15 OFFCURVE",
"637 -4 CURVE SMOOTH"
);
},
{
closed = 1;
nodes = (
"83 -15 OFFCURVE",
"101 -9 OFFCURVE",
"118 12 CURVE SMOOTH",
"630 646 LINE SMOOTH",
"645 664 OFFCURVE",
"641 693 OFFCURVE",
"621 704 CURVE SMOOTH",
"602 715 OFFCURVE",
"586 710 OFFCURVE",
"568 688 CURVE SMOOTH",
"55 53 LINE SMOOTH",
"39 34 OFFCURVE",
"43 7 OFFCURVE",
"63 -4 CURVE SMOOTH"
);
}
);
width = 700;
},
{
anchors = (
{
name = bottom;
position = "{267, -10}";
},
{
name = top;
position = "{514, 690}";
}
);
layerId = "6D0DA379-F071-4911-97B5-1F20F456FBFD";
paths = (
{
closed = 1;
nodes = (
"611 3 OFFCURVE",
"614 18 OFFCURVE",
"607 31 CURVE SMOOTH",
"200 694 LINE SMOOTH",
"190 711 OFFCURVE",
"178 715 OFFCURVE",
"164 704 CURVE SMOOTH",
"153 695 OFFCURVE",
"150 681 OFFCURVE",
"157 668 CURVE SMOOTH",
"564 5 LINE SMOOTH",
"574 -12 OFFCURVE",
"585 -15 OFFCURVE",
"599 -5 CURVE SMOOTH"
);
},
{
closed = 1;
nodes = (
"33 -16 OFFCURVE",
"53 -11 OFFCURVE",
"69 5 CURVE SMOOTH",
"708 668 LINE SMOOTH",
"719 680 OFFCURVE",
"720 695 OFFCURVE",
"710 704 CURVE SMOOTH",
"699 714 OFFCURVE",
"681 710 OFFCURVE",
"666 694 CURVE SMOOTH",
"25 31 LINE SMOOTH",
"14 19 OFFCURVE",
"13 4 OFFCURVE",
"22 -5 CURVE SMOOTH"
);
}
);
width = 705;
},
{
anchors = (
{
name = bottom;
position = "{267, 0}";
},
{
name = top;
position = "{513, 700}";
}
);
layerId = "71BB0B28-5B77-4945-A3C0-334755DB3BD8";
paths = (
{
closed = 1;
nodes = (
"616 7 OFFCURVE",
"624 34 OFFCURVE",
"612 53 CURVE SMOOTH",
"211 688 LINE SMOOTH",
"198 710 OFFCURVE",
"182 715 OFFCURVE",
"161 704 CURVE SMOOTH",
"140 693 OFFCURVE",
"133 665 OFFCURVE",
"145 646 CURVE SMOOTH",
"545 12 LINE SMOOTH",
"559 -10 OFFCURVE",
"574 -15 OFFCURVE",
"595 -4 CURVE SMOOTH"
);
},
{
closed = 1;
nodes = (
"39 -15 OFFCURVE",
"62 -9 OFFCURVE",
"82 12 CURVE SMOOTH",
"706 646 LINE SMOOTH",
"723 663 OFFCURVE",
"722 692 OFFCURVE",
"704 704 CURVE SMOOTH",
"687 715 OFFCURVE",
"670 710 OFFCURVE",
"648 688 CURVE SMOOTH",
"23 53 LINE SMOOTH",
"4 34 OFFCURVE",
"3 7 OFFCURVE",
"21 -4 CURVE SMOOTH"
);
}
);
width = 699;
},
{
anchors = (
{
name = bottom;
position = "{280, 0}";
},
{
name = top;
position = "{526, 700}";
}
);
layerId = "D92B54DD-6BE9-4383-803D-42A15BF32189";
paths = (
{
closed = 1;
nodes = (
"623 13 OFFCURVE",
"639 56 OFFCURVE",
"623 81 CURVE SMOOTH",
"237 680 LINE SMOOTH",
"217 711 OFFCURVE",
"191 717 OFFCURVE",
"156 698 CURVE SMOOTH",
"124 680 OFFCURVE",
"113 636 OFFCURVE",
"132 606 CURVE SMOOTH",
"516 17 LINE SMOOTH",
"536 -14 OFFCURVE",
"560 -20 OFFCURVE",
"592 -4 CURVE SMOOTH"
);
},
{
closed = 1;
nodes = (
"55 -21 OFFCURVE",
"86 -13 OFFCURVE",
"116 17 CURVE SMOOTH",
"708 606 LINE SMOOTH",
"737 635 OFFCURVE",
"739 680 OFFCURVE",
"712 698 CURVE SMOOTH",
"684 717 OFFCURVE",
"651 711 OFFCURVE",
"621 680 CURVE SMOOTH",
"23 81 LINE SMOOTH",
"-1 57 OFFCURVE",
"1 13 OFFCURVE",
"28 -4 CURVE SMOOTH"
);
}
);
width = 702;
}
);
note = X;
unicode = 0058;
},
{
glyphname = Y;
lastChange = "2018-05-14 07:55:15 +0000";
layers = (
{
anchors = (
{
name = bottom;
position = "{336, 0}";
},
{
name = top;
position = "{336, 700}";
},
{
name = topleft;
position = "{25, 700}";
}
);
layerId = "0B1DFD06-3317-40CA-B510-4969A0718C16";
paths = (
{
closed = 1;
nodes = (
"498 230 OFFCURVE",
"617 363 OFFCURVE",
"617 545 CURVE SMOOTH",
"617 678 LINE SMOOTH",
"617 699 OFFCURVE",
"608 710 OFFCURVE",
"591 710 CURVE SMOOTH",
"574 710 OFFCURVE",
"564 699 OFFCURVE",
"564 678 CURVE SMOOTH",
"564 542 LINE SMOOTH",
"564 380 OFFCURVE",
"477 279 OFFCURVE",
"336 279 CURVE SMOOTH",
"193 279 OFFCURVE",
"108 377 OFFCURVE",
"108 542 CURVE SMOOTH",
"108 678 LINE SMOOTH",
"108 699 OFFCURVE",
"98 710 OFFCURVE",
"81 710 CURVE SMOOTH",
"64 710 OFFCURVE",
"55 699 OFFCURVE",
"55 678 CURVE SMOOTH",
"55 545 LINE SMOOTH",
"55 355 OFFCURVE",
"166 230 OFFCURVE",
"336 230 CURVE SMOOTH"
);
},
{
closed = 1;
nodes = (
"353 -10 OFFCURVE",
"363 1 OFFCURVE",
"363 22 CURVE SMOOTH",
"363 241 LINE",
"310 241 LINE",
"310 22 LINE SMOOTH",
"310 1 OFFCURVE",
"319 -10 OFFCURVE",
"336 -10 CURVE SMOOTH"
);
}
);
width = 672;
},
{
anchors = (
{
name = bottom;
position = "{361, 0}";
},
{
name = top;
position = "{361, 690}";
},
{
name = topleft;
position = "{50, 700}";
}
);
layerId = "258BB4CE-589F-454F-8E39-237B943AA0B4";
paths = (
{
closed = 1;
nodes = (
"561 222 OFFCURVE",
"682 343 OFFCURVE",
"682 545 CURVE SMOOTH",
"682 650 LINE SMOOTH",
"682 687 OFFCURVE",
"656 710 OFFCURVE",
"616 710 CURVE SMOOTH",
"576 710 OFFCURVE",
"549 686 OFFCURVE",
"549 650 CURVE SMOOTH",
"549 542 LINE SMOOTH",
"549 404 OFFCURVE",
"482 327 OFFCURVE",
"361 327 CURVE SMOOTH",
"240 327 OFFCURVE",
"173 404 OFFCURVE",
"173 542 CURVE SMOOTH",
"173 650 LINE SMOOTH",
"173 686 OFFCURVE",
"146 710 OFFCURVE",
"106 710 CURVE SMOOTH",
"66 710 OFFCURVE",
"40 687 OFFCURVE",
"40 650 CURVE SMOOTH",
"40 545 LINE SMOOTH",
"40 343 OFFCURVE",
"161 222 OFFCURVE",
"361 222 CURVE SMOOTH"
);
},
{
closed = 1;
nodes = (
"401 -10 OFFCURVE",
"428 14 OFFCURVE",
"428 50 CURVE SMOOTH",
"428 289 LINE",
"295 289 LINE",
"295 50 LINE SMOOTH",
"295 13 OFFCURVE",
"321 -10 OFFCURVE",
"361 -10 CURVE SMOOTH"
);
}
);
width = 722;
},
{
anchors = (
{
name = bottom;
position = "{342, 0}";
},
{
name = top;
position = "{342, 696}";
},
{
name = topleft;
position = "{31, 700}";
}
);
layerId = "8ED59CAD-D047-43C0-8308-3370007B39AA";
paths = (
{
closed = 1;
nodes = (
"519 227 OFFCURVE",
"639 355 OFFCURVE",
"639 545 CURVE SMOOTH",
"639 667 LINE SMOOTH",
"639 694 OFFCURVE",
"623 710 OFFCURVE",
"597 710 CURVE SMOOTH",
"571 710 OFFCURVE",
"554 694 OFFCURVE",
"554 667 CURVE SMOOTH",
"554 542 LINE SMOOTH",
"554 389 OFFCURVE",
"475 298 OFFCURVE",
"342 298 CURVE SMOOTH",
"208 298 OFFCURVE",
"130 387 OFFCURVE",
"130 542 CURVE SMOOTH",
"130 667 LINE SMOOTH",
"130 694 OFFCURVE",
"114 710 OFFCURVE",
"87 710 CURVE SMOOTH",
"61 710 OFFCURVE",
"45 694 OFFCURVE",
"45 667 CURVE SMOOTH",
"45 545 LINE SMOOTH",
"45 350 OFFCURVE",
"160 227 OFFCURVE",
"342 227 CURVE SMOOTH"
);
},
{
closed = 1;
nodes = (
"369 -10 OFFCURVE",
"385 7 OFFCURVE",
"385 33 CURVE SMOOTH",
"385 260 LINE",
"300 260 LINE",
"300 33 LINE SMOOTH",
"300 6 OFFCURVE",
"316 -10 OFFCURVE",
"342 -10 CURVE SMOOTH"
);
}
);
width = 684;
},
{
anchors = (
{
name = bottom;
position = "{295, 0}";
},
{
name = top;
position = "{418, 700}";
},
{
name = topleft;
position = "{107, 700}";
}
);
layerId = "6D0DA379-F071-4911-97B5-1F20F456FBFD";
paths = (
{
closed = 1;
nodes = (
"510 230 OFFCURVE",
"636 348 OFFCURVE",
"672 545 CURVE SMOOTH",
"696 678 LINE SMOOTH",
"699 699 OFFCURVE",
"692 710 OFFCURVE",
"675 710 CURVE SMOOTH",
"658 710 OFFCURVE",
"646 699 OFFCURVE",
"643 678 CURVE SMOOTH",
"619 542 LINE SMOOTH",
"590 377 OFFCURVE",
"487 279 OFFCURVE",
"344 279 CURVE SMOOTH",
"196 279 OFFCURVE",
"132 371 OFFCURVE",
"163 542 CURVE SMOOTH",
"187 678 LINE SMOOTH",
"190 699 OFFCURVE",
"182 710 OFFCURVE",
"165 710 CURVE SMOOTH",
"148 710 OFFCURVE",
"137 699 OFFCURVE",
"134 678 CURVE SMOOTH",
"110 545 LINE SMOOTH",
"78 360 OFFCURVE",
"171 230 OFFCURVE",
"336 230 CURVE SMOOTH"
);
},
{
closed = 1;
nodes = (
"310 -10 OFFCURVE",
"322 1 OFFCURVE",
"326 22 CURVE SMOOTH",
"364 241 LINE",
"311 241 LINE",
"273 22 LINE SMOOTH",
"269 1 OFFCURVE",
"276 -10 OFFCURVE",
"293 -10 CURVE SMOOTH"
);
}
);
width = 673;
},
{
anchors = (
{
name = bottom;
position = "{301, 0}";
},
{
name = top;
position = "{424, 696}";
},
{
name = topleft;
position = "{113, 700}";
}
);
layerId = "71BB0B28-5B77-4945-A3C0-334755DB3BD8";
paths = (
{
closed = 1;
nodes = (
"523 227 OFFCURVE",
"659 350 OFFCURVE",
"694 545 CURVE SMOOTH",
"716 667 LINE SMOOTH",
"720 694 OFFCURVE",
"707 710 OFFCURVE",
"681 710 CURVE SMOOTH",
"654 710 OFFCURVE",
"635 693 OFFCURVE",
"631 667 CURVE SMOOTH",
"609 542 LINE SMOOTH",
"581 384 OFFCURVE",
"491 298 OFFCURVE",
"354 298 CURVE SMOOTH",
"212 298 OFFCURVE",
"156 380 OFFCURVE",
"185 542 CURVE SMOOTH",
"207 667 LINE SMOOTH",
"211 694 OFFCURVE",
"197 710 OFFCURVE",
"171 710 CURVE SMOOTH",
"145 710 OFFCURVE",
"126 694 OFFCURVE",
"122 667 CURVE SMOOTH",
"100 545 LINE SMOOTH",
"67 357 OFFCURVE",
"165 227 OFFCURVE",
"341 227 CURVE SMOOTH"
);
},
{
closed = 1;
nodes = (
"326 -10 OFFCURVE",
"345 7 OFFCURVE",
"350 33 CURVE SMOOTH",
"390 260 LINE",
"305 260 LINE",
"265 33 LINE SMOOTH",
"260 6 OFFCURVE",
"273 -10 OFFCURVE",
"299 -10 CURVE SMOOTH"
);
}
);
width = 685;
},
{
anchors = (
{
name = bottom;
position = "{320, 0}";
},
{
name = top;
position = "{442, 690}";
},
{
name = topleft;
position = "{132, 700}";
}
);
layerId = "D92B54DD-6BE9-4383-803D-42A15BF32189";
paths = (
{
closed = 1;
nodes = (
"573 222 OFFCURVE",
"699 333 OFFCURVE",
"737 545 CURVE SMOOTH",
"756 650 LINE SMOOTH",
"762 687 OFFCURVE",
"740 710 OFFCURVE",
"700 710 CURVE SMOOTH",
"660 710 OFFCURVE",
"629 686 OFFCURVE",
"623 650 CURVE SMOOTH",
"604 542 LINE SMOOTH",
"579 404 OFFCURVE",
"499 327 OFFCURVE",
"378 327 CURVE SMOOTH",
"248 327 OFFCURVE",
"201 394 OFFCURVE",
"228 542 CURVE SMOOTH",
"247 650 LINE SMOOTH",
"253 686 OFFCURVE",
"230 710 OFFCURVE",
"190 710 CURVE SMOOTH",
"149 710 OFFCURVE",
"120 687 OFFCURVE",
"114 650 CURVE SMOOTH",
"95 545 LINE SMOOTH",
"60 346 OFFCURVE",
"165 222 OFFCURVE",
"369 222 CURVE SMOOTH"
);
},
{
closed = 1;
nodes = (
"358 -10 OFFCURVE",
"389 14 OFFCURVE",
"396 50 CURVE SMOOTH",
"438 289 LINE",
"305 289 LINE",
"263 50 LINE SMOOTH",
"256 13 OFFCURVE",
"278 -10 OFFCURVE",
"318 -10 CURVE SMOOTH"
);
}
);
width = 723;
}
);
leftKerningGroup = Y;
note = Y;
rightKerningGroup = Y;
unicode = 0059;
},
{
glyphname = Z;
lastChange = "2018-05-14 08:06:57 +0000";
layers = (
{
anchors = (
{
name = bottom;
position = "{346, 0}";
},
{
name = top;
position = "{346, 700}";
}
);
layerId = "0B1DFD06-3317-40CA-B510-4969A0718C16";
paths = (
{
closed = 1;
nodes = (
"606 0 LINE SMOOTH",
"625 0 OFFCURVE",
"636 6 OFFCURVE",
"636 24 CURVE SMOOTH",
"636 39 OFFCURVE",
"626 47 OFFCURVE",
"606 47 CURVE SMOOTH",
"154 47 LINE SMOOTH",
"121 47 OFFCURVE",
"110 62 OFFCURVE",
"110 85 CURVE SMOOTH",
"110 114 OFFCURVE",
"119 133 OFFCURVE",
"148 157 CURVE SMOOTH",
"569 509 LINE SMOOTH",
"611 544 OFFCURVE",
"629 566 OFFCURVE",
"629 615 CURVE SMOOTH",
"629 677 OFFCURVE",
"590 700 OFFCURVE",
"532 700 CURVE SMOOTH",
"105 700 LINE SMOOTH",
"86 700 OFFCURVE",
"75 694 OFFCURVE",
"75 676 CURVE SMOOTH",
"75 661 OFFCURVE",
"85 653 OFFCURVE",
"105 653 CURVE SMOOTH",
"530 653 LINE SMOOTH",
"565 653 OFFCURVE",
"574 637 OFFCURVE",
"574 615 CURVE SMOOTH",
"574 586 OFFCURVE",
"565 567 OFFCURVE",
"536 543 CURVE SMOOTH",
"115 192 LINE SMOOTH",
"73 157 OFFCURVE",
"55 134 OFFCURVE",
"55 85 CURVE SMOOTH",
"55 23 OFFCURVE",
"94 0 OFFCURVE",
"152 0 CURVE SMOOTH"
);
}
);
width = 691;
},
{
anchors = (
{
name = bottom;
position = "{370, 0}";
},
{
name = top;
position = "{370, 690}";
}
);
layerId = "258BB4CE-589F-454F-8E39-237B943AA0B4";
paths = (
{
closed = 1;
nodes = (
"602 0 LINE SMOOTH",
"640 0 OFFCURVE",
"672 17 OFFCURVE",
"672 52 CURVE SMOOTH",
"672 86 OFFCURVE",
"638 103 OFFCURVE",
"602 103 CURVE SMOOTH",
"221 103 LINE SMOOTH",
"187 103 OFFCURVE",
"174 111 OFFCURVE",
"174 124 CURVE SMOOTH",
"174 141 OFFCURVE",
"182 151 OFFCURVE",
"198 163 CURVE SMOOTH",
"591 460 LINE SMOOTH",
"650 504 OFFCURVE",
"664 534 OFFCURVE",
"664 587 CURVE SMOOTH",
"664 659 OFFCURVE",
"612 700 OFFCURVE",
"526 700 CURVE SMOOTH",
"129 700 LINE SMOOTH",
"91 700 OFFCURVE",
"59 683 OFFCURVE",
"59 648 CURVE SMOOTH",
"59 614 OFFCURVE",
"93 597 OFFCURVE",
"129 597 CURVE SMOOTH",
"495 597 LINE SMOOTH",
"523 597 OFFCURVE",
"530 586 OFFCURVE",
"530 574 CURVE SMOOTH",
"530 558 OFFCURVE",
"522 549 OFFCURVE",
"506 537 CURVE SMOOTH",
"113 240 LINE SMOOTH",
"53 195 OFFCURVE",
"40 160 OFFCURVE",
"40 113 CURVE SMOOTH",
"40 46 OFFCURVE",
"92 0 OFFCURVE",
"178 0 CURVE SMOOTH"
);
}
);
width = 712;
},
{
anchors = (
{
name = bottom;
position = "{351, 0}";
},
{
name = top;
position = "{351, 696}";
}
);
layerId = "8ED59CAD-D047-43C0-8308-3370007B39AA";
paths = (
{
closed = 1;
nodes = (
"600 0 LINE SMOOTH",
"626 0 OFFCURVE",
"646 10 OFFCURVE",
"646 35 CURVE SMOOTH",
"646 58 OFFCURVE",
"626 69 OFFCURVE",
"600 69 CURVE SMOOTH",
"176 69 LINE SMOOTH",
"142 69 OFFCURVE",
"130 81 OFFCURVE",
"130 101 CURVE SMOOTH",
"130 126 OFFCURVE",
"140 140 OFFCURVE",
"163 159 CURVE SMOOTH",
"573 489 LINE SMOOTH",
"622 528 OFFCURVE",
"638 553 OFFCURVE",
"638 604 CURVE SMOOTH",
"638 670 OFFCURVE",
"593 700 OFFCURVE",
"524 700 CURVE SMOOTH",
"110 700 LINE SMOOTH",
"83 700 OFFCURVE",
"64 690 OFFCURVE",
"64 665 CURVE SMOOTH",
"64 642 OFFCURVE",
"84 631 OFFCURVE",
"110 631 CURVE SMOOTH",
"511 631 LINE SMOOTH",
"544 631 OFFCURVE",
"553 618 OFFCURVE",
"553 599 CURVE SMOOTH",
"553 574 OFFCURVE",
"543 560 OFFCURVE",
"519 541 CURVE SMOOTH",
"110 211 LINE SMOOTH",
"60 172 OFFCURVE",
"45 144 OFFCURVE",
"45 96 CURVE SMOOTH",
"45 32 OFFCURVE",
"90 0 OFFCURVE",
"159 0 CURVE SMOOTH"
);
}
);
width = 691;
},
{
anchors = (
{
name = bottom;
position = "{304, 0}";
},
{
name = top;
position = "{427, 700}";
}
);
layerId = "6D0DA379-F071-4911-97B5-1F20F456FBFD";
paths = (
{
closed = 1;
nodes = (
"564 0 LINE SMOOTH",
"588 0 OFFCURVE",
"599 9 OFFCURVE",
"599 29 CURVE SMOOTH",
"599 41 OFFCURVE",
"590 47 OFFCURVE",
"572 47 CURVE SMOOTH",
"120 47 LINE SMOOTH",
"94 47 OFFCURVE",
"80 62 OFFCURVE",
"80 81 CURVE SMOOTH",
"80 114 OFFCURVE",
"98 131 OFFCURVE",
"134 157 CURVE SMOOTH",
"617 509 LINE SMOOTH",
"674 550 OFFCURVE",
"695 580 OFFCURVE",
"695 626 CURVE SMOOTH",
"695 671 OFFCURVE",
"663 700 OFFCURVE",
"611 700 CURVE SMOOTH",
"186 700 LINE SMOOTH",
"163 700 OFFCURVE",
"152 690 OFFCURVE",
"152 675 CURVE SMOOTH",
"152 662 OFFCURVE",
"160 653 OFFCURVE",
"178 653 CURVE SMOOTH",
"603 653 LINE SMOOTH",
"628 653 OFFCURVE",
"640 640 OFFCURVE",
"640 622 CURVE SMOOTH",
"640 591 OFFCURVE",
"625 568 OFFCURVE",
"590 543 CURVE SMOOTH",
"107 192 LINE SMOOTH",
"49 150 OFFCURVE",
"28 124 OFFCURVE",
"28 75 CURVE SMOOTH",
"28 32 OFFCURVE",
"60 0 OFFCURVE",
"112 0 CURVE SMOOTH"
);
}
);
width = 690;
},
{
anchors = (
{
name = bottom;
position = "{310, 0}";
},
{
name = top;
position = "{433, 696}";
}
);
layerId = "71BB0B28-5B77-4945-A3C0-334755DB3BD8";
paths = (
{
closed = 1;
nodes = (
"559 0 LINE SMOOTH",
"591 0 OFFCURVE",
"612 17 OFFCURVE",
"612 41 CURVE SMOOTH",
"612 58 OFFCURVE",
"596 69 OFFCURVE",
"571 69 CURVE SMOOTH",
"147 69 LINE SMOOTH",
"119 69 OFFCURVE",
"106 77 OFFCURVE",
"106 94 CURVE SMOOTH",
"106 117 OFFCURVE",
"120 138 OFFCURVE",
"150 159 CURVE SMOOTH",
"618 489 LINE SMOOTH",
"678 530 OFFCURVE",
"704 568 OFFCURVE",
"704 613 CURVE SMOOTH",
"704 669 OFFCURVE",
"667 700 OFFCURVE",
"600 700 CURVE SMOOTH",
"192 700 LINE SMOOTH",
"160 700 OFFCURVE",
"139 686 OFFCURVE",
"139 663 CURVE SMOOTH",
"139 644 OFFCURVE",
"155 631 OFFCURVE",
"180 631 CURVE SMOOTH",
"581 631 LINE SMOOTH",
"606 631 OFFCURVE",
"618 621 OFFCURVE",
"618 599 CURVE SMOOTH",
"618 580 OFFCURVE",
"604 562 OFFCURVE",
"573 541 CURVE SMOOTH",
"106 211 LINE SMOOTH",
"50 172 OFFCURVE",
"20 125 OFFCURVE",
"20 76 CURVE SMOOTH",
"20 31 OFFCURVE",
"60 0 OFFCURVE",
"118 0 CURVE SMOOTH"
);
}
);
width = 691;
},
{
anchors = (
{
name = bottom;
position = "{328, 0}";
},
{
name = top;
position = "{450, 690}";
}
);
layerId = "D92B54DD-6BE9-4383-803D-42A15BF32189";
paths = (
{
closed = 1;
nodes = (
"560 0 LINE SMOOTH",
"607 0 OFFCURVE",
"640 24 OFFCURVE",
"640 59 CURVE SMOOTH",
"640 85 OFFCURVE",
"615 103 OFFCURVE",
"578 103 CURVE SMOOTH",
"197 103 LINE SMOOTH",
"167 103 OFFCURVE",
"153 110 OFFCURVE",
"153 125 CURVE SMOOTH",
"153 138 OFFCURVE",
"160 146 OFFCURVE",
"185 163 CURVE SMOOTH",
"630 460 LINE SMOOTH",
"699 506 OFFCURVE",
"728 550 OFFCURVE",
"728 609 CURVE SMOOTH",
"728 667 OFFCURVE",
"685 700 OFFCURVE",
"607 700 CURVE SMOOTH",
"210 700 LINE SMOOTH",
"163 700 OFFCURVE",
"130 676 OFFCURVE",
"130 641 CURVE SMOOTH",
"130 615 OFFCURVE",
"155 597 OFFCURVE",
"192 597 CURVE SMOOTH",
"558 597 LINE SMOOTH",
"580 597 OFFCURVE",
"590 591 OFFCURVE",
"590 576 CURVE SMOOTH",
"590 563 OFFCURVE",
"581 552 OFFCURVE",
"559 537 CURVE SMOOTH",
"113 240 LINE SMOOTH",
"46 196 OFFCURVE",
"16 150 OFFCURVE",
"16 92 CURVE SMOOTH",
"16 35 OFFCURVE",
"61 0 OFFCURVE",
"136 0 CURVE SMOOTH"
);
}
);
width = 711;
}
);
leftKerningGroup = Z;
note = Z;
rightKerningGroup = Z;
unicode = 005A;
},
{
glyphname = a;
lastChange = "2018-05-14 10:25:00 +0000";
layers = (
{
anchors = (
{
name = bottom;
position = "{303, 0}";
},
{
name = ogonek;
position = "{489, 10}";
},
{
name = top;
position = "{303, 470}";
}
);
layerId = "0B1DFD06-3317-40CA-B510-4969A0718C16";
paths = (
{
closed = 1;
nodes = (
"347 -10 OFFCURVE",
"415 17 OFFCURVE",
"457 67 CURVE",
"457 22 LINE SMOOTH",
"457 1 OFFCURVE",
"466 -10 OFFCURVE",
"482 -10 CURVE SMOOTH",
"499 -10 OFFCURVE",
"507 0 OFFCURVE",
"507 22 CURVE SMOOTH",
"507 323 LINE SMOOTH",
"507 436 OFFCURVE",
"430 500 OFFCURVE",
"294 500 CURVE SMOOTH",
"217 500 OFFCURVE",
"140 477 OFFCURVE",
"90 438 CURVE SMOOTH",
"80 430 OFFCURVE",
"81 409 OFFCURVE",
"92 402 CURVE SMOOTH",
"103 395 OFFCURVE",
"111 396 OFFCURVE",
"126 405 CURVE SMOOTH",
"178 437 OFFCURVE",
"232 452 OFFCURVE",
"296 452 CURVE SMOOTH",
"401 452 OFFCURVE",
"456 409 OFFCURVE",
"456 327 CURVE SMOOTH",
"456 254 LINE",
"424 294 OFFCURVE",
"353 318 OFFCURVE",
"270 318 CURVE SMOOTH",
"135 318 OFFCURVE",
"55 256 OFFCURVE",
"55 153 CURVE SMOOTH",
"55 50 OFFCURVE",
"132 -10 OFFCURVE",
"265 -10 CURVE SMOOTH"
);
},
{
closed = 1;
nodes = (
"160 38 OFFCURVE",
"107 77 OFFCURVE",
"107 153 CURVE SMOOTH",
"107 229 OFFCURVE",
"163 270 OFFCURVE",
"267 270 CURVE SMOOTH",
"387 270 OFFCURVE",
"457 230 OFFCURVE",
"457 160 CURVE SMOOTH",
"457 87 OFFCURVE",
"381 38 OFFCURVE",
"265 38 CURVE SMOOTH"
);
}
);
width = 587;
},
{
anchors = (
{
name = bottom;
position = "{311, 0}";
},
{
name = ogonek;
position = "{487, 10}";
},
{
name = top;
position = "{311, 470}";
}
);
layerId = "258BB4CE-589F-454F-8E39-237B943AA0B4";
paths = (
{
closed = 1;
nodes = (
"324 -10 OFFCURVE",
"381 12 OFFCURVE",
"419 55 CURVE",
"419 44 LINE SMOOTH",
"419 10 OFFCURVE",
"443 -10 OFFCURVE",
"484 -10 CURVE SMOOTH",
"524 -10 OFFCURVE",
"549 11 OFFCURVE",
"549 46 CURVE SMOOTH",
"549 303 LINE SMOOTH",
"549 426 OFFCURVE",
"455 500 OFFCURVE",
"300 500 CURVE SMOOTH",
"218 500 OFFCURVE",
"141 479 OFFCURVE",
"93 444 CURVE SMOOTH",
"63 422 OFFCURVE",
"61 392 OFFCURVE",
"78 371 CURVE SMOOTH",
"98 347 OFFCURVE",
"125 345 OFFCURVE",
"160 365 CURVE SMOOTH",
"199 388 OFFCURVE",
"245 400 OFFCURVE",
"301 400 CURVE SMOOTH",
"374 400 OFFCURVE",
"414 366 OFFCURVE",
"414 303 CURVE SMOOTH",
"414 279 LINE",
"377 305 OFFCURVE",
"329 318 OFFCURVE",
"268 318 CURVE SMOOTH",
"128 318 OFFCURVE",
"40 255 OFFCURVE",
"40 156 CURVE SMOOTH",
"40 57 OFFCURVE",
"125 -10 OFFCURVE",
"250 -10 CURVE SMOOTH"
);
},
{
closed = 1;
nodes = (
"210 82 OFFCURVE",
"170 109 OFFCURVE",
"170 156 CURVE SMOOTH",
"170 202 OFFCURVE",
"211 229 OFFCURVE",
"283 229 CURVE SMOOTH",
"363 229 OFFCURVE",
"415 200 OFFCURVE",
"415 156 CURVE SMOOTH",
"415 109 OFFCURVE",
"365 82 OFFCURVE",
"281 82 CURVE SMOOTH"
);
}
);
width = 594;
},
{
anchors = (
{
name = bottom;
position = "{298, 0}";
},
{
name = ogonek;
position = "{477, 10}";
},
{
name = top;
position = "{298, 470}";
}
);
layerId = "8ED59CAD-D047-43C0-8308-3370007B39AA";
paths = (
{
closed = 1;
nodes = (
"335 -10 OFFCURVE",
"397 14 OFFCURVE",
"437 62 CURVE",
"437 31 LINE SMOOTH",
"437 6 OFFCURVE",
"453 -10 OFFCURVE",
"478 -10 CURVE SMOOTH",
"505 -10 OFFCURVE",
"519 5 OFFCURVE",
"519 32 CURVE SMOOTH",
"519 315 LINE SMOOTH",
"519 432 OFFCURVE",
"435 500 OFFCURVE",
"291 500 CURVE SMOOTH",
"214 500 OFFCURVE",
"133 476 OFFCURVE",
"85 439 CURVE SMOOTH",
"67 426 OFFCURVE",
"66 401 OFFCURVE",
"81 387 CURVE SMOOTH",
"96 373 OFFCURVE",
"114 374 OFFCURVE",
"136 388 CURVE SMOOTH",
"178 416 OFFCURVE",
"229 430 OFFCURVE",
"293 430 CURVE SMOOTH",
"386 430 OFFCURVE",
"435 391 OFFCURVE",
"435 317 CURVE SMOOTH",
"435 257 LINE",
"399 293 OFFCURVE",
"338 313 OFFCURVE",
"264 313 CURVE SMOOTH",
"129 313 OFFCURVE",
"45 251 OFFCURVE",
"45 151 CURVE SMOOTH",
"45 51 OFFCURVE",
"124 -10 OFFCURVE",
"253 -10 CURVE SMOOTH"
);
},
{
closed = 1;
nodes = (
"177 56 OFFCURVE",
"128 90 OFFCURVE",
"128 151 CURVE SMOOTH",
"128 213 OFFCURVE",
"178 248 OFFCURVE",
"268 248 CURVE SMOOTH",
"376 248 OFFCURVE",
"436 215 OFFCURVE",
"436 155 CURVE SMOOTH",
"436 97 OFFCURVE",
"366 56 OFFCURVE",
"266 56 CURVE SMOOTH"
);
}
);
width = 584;
},
{
anchors = (
{
name = bottom;
position = "{218, 0}";
},
{
name = ogonek;
position = "{454, 10}";
},
{
name = top;
position = "{354, 470}";
}
);
layerId = "6D0DA379-F071-4911-97B5-1F20F456FBFD";
paths = (
{
closed = 1;
nodes = (
"307 -10 OFFCURVE",
"374 15 OFFCURVE",
"428 67 CURVE",
"420 22 LINE SMOOTH",
"417 2 OFFCURVE",
"425 -10 OFFCURVE",
"441 -10 CURVE SMOOTH",
"457 -10 OFFCURVE",
"465 -1 OFFCURVE",
"470 22 CURVE SMOOTH",
"523 323 LINE SMOOTH",
"540 436 OFFCURVE",
"475 500 OFFCURVE",
"341 500 CURVE SMOOTH",
"262 500 OFFCURVE",
"177 475 OFFCURVE",
"126 438 CURVE SMOOTH",
"120 434 OFFCURVE",
"116 425 OFFCURVE",
"116 416 CURVE SMOOTH",
"116 404 OFFCURVE",
"123 397 OFFCURVE",
"135 397 CURVE SMOOTH",
"141 397 OFFCURVE",
"147 400 OFFCURVE",
"156 405 CURVE SMOOTH",
"215 437 OFFCURVE",
"271 452 OFFCURVE",
"335 452 CURVE SMOOTH",
"446 452 OFFCURVE",
"488 414 OFFCURVE",
"473 327 CURVE SMOOTH",
"460 254 LINE",
"435 291 OFFCURVE",
"362 318 OFFCURVE",
"283 318 CURVE SMOOTH",
"133 318 OFFCURVE",
"38 245 OFFCURVE",
"38 128 CURVE SMOOTH",
"38 44 OFFCURVE",
"111 -10 OFFCURVE",
"222 -10 CURVE SMOOTH"
);
},
{
closed = 1;
nodes = (
"138 38 OFFCURVE",
"91 69 OFFCURVE",
"91 129 CURVE SMOOTH",
"91 217 OFFCURVE",
"159 270 OFFCURVE",
"274 270 CURVE SMOOTH",
"384 270 OFFCURVE",
"446 237 OFFCURVE",
"446 177 CURVE SMOOTH",
"446 96 OFFCURVE",
"356 38 OFFCURVE",
"231 38 CURVE SMOOTH"
);
}
);
width = 588;
},
{
anchors = (
{
name = bottom;
position = "{232, 0}";
},
{
name = ogonek;
position = "{449, 10}";
},
{
name = top;
position = "{333, 470}";
}
);
layerId = "71BB0B28-5B77-4945-A3C0-334755DB3BD8";
paths = (
{
closed = 1;
nodes = (
"291 -10 OFFCURVE",
"357 14 OFFCURVE",
"406 62 CURVE",
"400 31 LINE SMOOTH",
"394 4 OFFCURVE",
"406 -10 OFFCURVE",
"433 -10 CURVE SMOOTH",
"460 -10 OFFCURVE",
"478 5 OFFCURVE",
"483 32 CURVE SMOOTH",
"533 315 LINE SMOOTH",
"552 428 OFFCURVE",
"475 500 OFFCURVE",
"337 500 CURVE SMOOTH",
"256 500 OFFCURVE",
"177 478 OFFCURVE",
"120 439 CURVE SMOOTH",
"108 431 OFFCURVE",
"100 417 OFFCURVE",
"100 405 CURVE SMOOTH",
"100 390 OFFCURVE",
"114 377 OFFCURVE",
"130 377 CURVE SMOOTH",
"139 377 OFFCURVE",
"150 381 OFFCURVE",
"162 388 CURVE SMOOTH",
"210 417 OFFCURVE",
"263 430 OFFCURVE",
"327 430 CURVE SMOOTH",
"424 430 OFFCURVE",
"464 393 OFFCURVE",
"449 317 CURVE SMOOTH",
"438 257 LINE",
"408 292 OFFCURVE",
"348 313 OFFCURVE",
"275 313 CURVE SMOOTH",
"128 313 OFFCURVE",
"28 237 OFFCURVE",
"28 125 CURVE SMOOTH",
"28 44 OFFCURVE",
"101 -10 OFFCURVE",
"209 -10 CURVE SMOOTH"
);
},
{
closed = 1;
nodes = (
"154 56 OFFCURVE",
"111 83 OFFCURVE",
"111 133 CURVE SMOOTH",
"111 204 OFFCURVE",
"172 248 OFFCURVE",
"270 248 CURVE SMOOTH",
"368 248 OFFCURVE",
"422 220 OFFCURVE",
"422 169 CURVE SMOOTH",
"422 103 OFFCURVE",
"343 56 OFFCURVE",
"234 56 CURVE SMOOTH"
);
}
);
width = 584;
},
{
anchors = (
{
name = bottom;
position = "{244, 0}";
},
{
name = ogonek;
position = "{466, 10}";
},
{
name = top;
position = "{356, 470}";
}
);
layerId = "D92B54DD-6BE9-4383-803D-42A15BF32189";
paths = (
{
closed = 1;
nodes = (
"280 -10 OFFCURVE",
"341 12 OFFCURVE",
"387 55 CURVE",
"385 44 LINE SMOOTH",
"379 11 OFFCURVE",
"400 -10 OFFCURVE",
"440 -10 CURVE SMOOTH",
"481 -10 OFFCURVE",
"509 11 OFFCURVE",
"515 46 CURVE SMOOTH",
"560 303 LINE SMOOTH",
"580 420 OFFCURVE",
"493 500 OFFCURVE",
"346 500 CURVE SMOOTH",
"264 500 OFFCURVE",
"184 479 OFFCURVE",
"129 444 CURVE SMOOTH",
"106 429 OFFCURVE",
"94 412 OFFCURVE",
"94 394 CURVE SMOOTH",
"94 371 OFFCURVE",
"114 351 OFFCURVE",
"137 351 CURVE SMOOTH",
"149 351 OFFCURVE",
"164 356 OFFCURVE",
"182 365 CURVE SMOOTH",
"225 388 OFFCURVE",
"274 400 OFFCURVE",
"330 400 CURVE SMOOTH",
"409 400 OFFCURVE",
"436 372 OFFCURVE",
"425 303 CURVE SMOOTH",
"421 279 LINE",
"391 304 OFFCURVE",
"339 318 OFFCURVE",
"280 318 CURVE SMOOTH",
"128 318 OFFCURVE",
"23 241 OFFCURVE",
"23 129 CURVE SMOOTH",
"23 47 OFFCURVE",
"98 -10 OFFCURVE",
"206 -10 CURVE SMOOTH"
);
},
{
closed = 1;
nodes = (
"190 82 OFFCURVE",
"155 103 OFFCURVE",
"155 142 CURVE SMOOTH",
"155 197 OFFCURVE",
"202 229 OFFCURVE",
"281 229 CURVE SMOOTH",
"355 229 OFFCURVE",
"402 204 OFFCURVE",
"402 165 CURVE SMOOTH",
"402 115 OFFCURVE",
"343 82 OFFCURVE",
"253 82 CURVE SMOOTH"
);
}
);
width = 593;
}
);
leftKerningGroup = a;
note = a;
rightKerningGroup = a;
unicode = 0061;
},
{
glyphname = b;
lastChange = "2018-05-14 08:13:05 +0000";
layers = (
{
anchors = (
{
name = bottom;
position = "{342, 0}";
},
{
name = top;
position = "{342, 750}";
}
);
layerId = "0B1DFD06-3317-40CA-B510-4969A0718C16";
paths = (
{
closed = 1;
nodes = (
"127 -10 OFFCURVE",
"136 1 OFFCURVE",
"136 22 CURVE SMOOTH",
"136 103 LINE",
"183 29 OFFCURVE",
"262 -10 OFFCURVE",
"362 -10 CURVE SMOOTH",
"533 -10 OFFCURVE",
"629 82 OFFCURVE",
"629 245 CURVE SMOOTH",
"629 401 OFFCURVE",
"525 500 OFFCURVE",
"362 500 CURVE SMOOTH",
"269 500 OFFCURVE",
"195 464 OFFCURVE",
"137 389 CURVE",
"136 727 LINE",
"136 748 OFFCURVE",
"127 759 OFFCURVE",
"110 759 CURVE SMOOTH",
"93 759 OFFCURVE",
"85 749 OFFCURVE",
"85 727 CURVE SMOOTH",
"85 22 LINE SMOOTH",
"85 0 OFFCURVE",
"93 -10 OFFCURVE",
"110 -10 CURVE SMOOTH"
);
},
{
closed = 1;
nodes = (
"222 38 OFFCURVE",
"136 116 OFFCURVE",
"136 245 CURVE SMOOTH",
"136 364 OFFCURVE",
"232 452 OFFCURVE",
"362 452 CURVE SMOOTH",
"496 452 OFFCURVE",
"577 374 OFFCURVE",
"577 245 CURVE SMOOTH",
"577 105 OFFCURVE",
"507 38 OFFCURVE",
"362 38 CURVE SMOOTH"
);
}
);
width = 684;
},
{
anchors = (
{
name = bottom;
position = "{347, 0}";
},
{
name = top;
position = "{347, 750}";
}
);
layerId = "258BB4CE-589F-454F-8E39-237B943AA0B4";
paths = (
{
closed = 1;
nodes = (
"155 -10 OFFCURVE",
"181 13 OFFCURVE",
"181 50 CURVE SMOOTH",
"181 70 LINE",
"238 13 OFFCURVE",
"291 -10 OFFCURVE",
"367 -10 CURVE SMOOTH",
"535 -10 OFFCURVE",
"634 85 OFFCURVE",
"634 245 CURVE SMOOTH",
"634 405 OFFCURVE",
"536 500 OFFCURVE",
"370 500 CURVE SMOOTH",
"296 500 OFFCURVE",
"229 472 OFFCURVE",
"182 422 CURVE",
"181 699 LINE SMOOTH",
"181 736 OFFCURVE",
"155 759 OFFCURVE",
"115 759 CURVE SMOOTH",
"74 759 OFFCURVE",
"50 737 OFFCURVE",
"50 699 CURVE SMOOTH",
"50 50 LINE SMOOTH",
"50 13 OFFCURVE",
"74 -10 OFFCURVE",
"115 -10 CURVE SMOOTH"
);
},
{
closed = 1;
nodes = (
"243 94 OFFCURVE",
"181 150 OFFCURVE",
"181 245 CURVE SMOOTH",
"181 340 OFFCURVE",
"243 396 OFFCURVE",
"347 396 CURVE SMOOTH",
"444 396 OFFCURVE",
"502 340 OFFCURVE",
"502 245 CURVE SMOOTH",
"502 150 OFFCURVE",
"444 94 OFFCURVE",
"347 94 CURVE SMOOTH"
);
}
);
width = 674;
},
{
anchors = (
{
name = bottom;
position = "{343, 0}";
},
{
name = top;
position = "{343, 750}";
}
);
layerId = "8ED59CAD-D047-43C0-8308-3370007B39AA";
paths = (
{
closed = 1;
nodes = (
"137 -10 OFFCURVE",
"153 6 OFFCURVE",
"153 33 CURVE SMOOTH",
"153 90 LINE",
"203 23 OFFCURVE",
"272 -10 OFFCURVE",
"363 -10 CURVE SMOOTH",
"533 -10 OFFCURVE",
"630 83 OFFCURVE",
"630 245 CURVE SMOOTH",
"630 403 OFFCURVE",
"529 500 OFFCURVE",
"364 500 CURVE SMOOTH",
"278 500 OFFCURVE",
"208 467 OFFCURVE",
"154 402 CURVE",
"153 716 LINE",
"153 743 OFFCURVE",
"137 759 OFFCURVE",
"111 759 CURVE SMOOTH",
"85 759 OFFCURVE",
"70 743 OFFCURVE",
"70 716 CURVE SMOOTH",
"70 33 LINE SMOOTH",
"70 6 OFFCURVE",
"85 -10 OFFCURVE",
"111 -10 CURVE SMOOTH"
);
},
{
closed = 1;
nodes = (
"229 60 OFFCURVE",
"153 130 OFFCURVE",
"153 245 CURVE SMOOTH",
"153 354 OFFCURVE",
"236 430 OFFCURVE",
"355 430 CURVE SMOOTH",
"474 430 OFFCURVE",
"546 361 OFFCURVE",
"546 245 CURVE SMOOTH",
"546 123 OFFCURVE",
"481 60 OFFCURVE",
"355 60 CURVE SMOOTH"
);
}
);
width = 675;
},
{
anchors = (
{
name = bottom;
position = "{300, 0}";
},
{
name = top;
position = "{432, 750}";
}
);
layerId = "6D0DA379-F071-4911-97B5-1F20F456FBFD";
paths = (
{
closed = 1;
nodes = (
"84 -10 OFFCURVE",
"96 1 OFFCURVE",
"99 22 CURVE SMOOTH",
"113 103 LINE",
"148 32 OFFCURVE",
"225 -10 OFFCURVE",
"319 -10 CURVE SMOOTH",
"505 -10 OFFCURVE",
"636 116 OFFCURVE",
"636 297 CURVE SMOOTH",
"636 423 OFFCURVE",
"549 500 OFFCURVE",
"409 500 CURVE SMOOTH",
"313 500 OFFCURVE",
"233 464 OFFCURVE",
"165 389 CURVE",
"223 727 LINE SMOOTH",
"226 747 OFFCURVE",
"218 759 OFFCURVE",
"203 759 CURVE SMOOTH",
"186 759 OFFCURVE",
"176 749 OFFCURVE",
"172 727 CURVE SMOOTH",
"48 22 LINE SMOOTH",
"45 1 OFFCURVE",
"51 -10 OFFCURVE",
"67 -10 CURVE SMOOTH"
);
},
{
closed = 1;
nodes = (
"205 38 OFFCURVE",
"134 98 OFFCURVE",
"134 201 CURVE SMOOTH",
"134 341 OFFCURVE",
"252 452 OFFCURVE",
"401 452 CURVE SMOOTH",
"519 452 OFFCURVE",
"584 396 OFFCURVE",
"584 295 CURVE SMOOTH",
"584 143 OFFCURVE",
"480 38 OFFCURVE",
"328 38 CURVE SMOOTH"
);
}
);
width = 684;
},
{
anchors = (
{
name = bottom;
position = "{302, 0}";
},
{
name = top;
position = "{434, 750}";
}
);
layerId = "71BB0B28-5B77-4945-A3C0-334755DB3BD8";
paths = (
{
closed = 1;
nodes = (
"94 -10 OFFCURVE",
"113 6 OFFCURVE",
"118 33 CURVE SMOOTH",
"128 90 LINE",
"166 25 OFFCURVE",
"234 -10 OFFCURVE",
"325 -10 CURVE SMOOTH",
"514 -10 OFFCURVE",
"637 112 OFFCURVE",
"637 298 CURVE SMOOTH",
"637 422 OFFCURVE",
"550 500 OFFCURVE",
"411 500 CURVE SMOOTH",
"323 500 OFFCURVE",
"248 469 OFFCURVE",
"185 406 CURVE",
"238 716 LINE SMOOTH",
"243 741 OFFCURVE",
"229 759 OFFCURVE",
"204 759 CURVE SMOOTH",
"178 759 OFFCURVE",
"160 743 OFFCURVE",
"155 716 CURVE SMOOTH",
"35 33 LINE SMOOTH",
"30 7 OFFCURVE",
"43 -10 OFFCURVE",
"68 -10 CURVE SMOOTH"
);
},
{
closed = 1;
nodes = (
"218 60 OFFCURVE",
"152 117 OFFCURVE",
"152 208 CURVE SMOOTH",
"152 333 OFFCURVE",
"256 430 OFFCURVE",
"390 430 CURVE SMOOTH",
"496 430 OFFCURVE",
"552 382 OFFCURVE",
"552 292 CURVE SMOOTH",
"552 147 OFFCURVE",
"467 60 OFFCURVE",
"325 60 CURVE SMOOTH"
);
}
);
width = 675;
},
{
anchors = (
{
name = bottom;
position = "{305, 0}";
},
{
name = top;
position = "{437, 750}";
}
);
layerId = "D92B54DD-6BE9-4383-803D-42A15BF32189";
paths = (
{
closed = 1;
nodes = (
"113 -10 OFFCURVE",
"143 14 OFFCURVE",
"149 50 CURVE SMOOTH",
"152 70 LINE",
"195 19 OFFCURVE",
"258 -10 OFFCURVE",
"329 -10 CURVE SMOOTH",
"514 -10 OFFCURVE",
"641 116 OFFCURVE",
"641 299 CURVE SMOOTH",
"641 424 OFFCURVE",
"554 500 OFFCURVE",
"412 500 CURVE SMOOTH",
"340 500 OFFCURVE",
"272 473 OFFCURVE",
"215 422 CURVE",
"263 699 LINE SMOOTH",
"269 735 OFFCURVE",
"248 759 OFFCURVE",
"208 759 CURVE SMOOTH",
"167 759 OFFCURVE",
"139 736 OFFCURVE",
"132 699 CURVE SMOOTH",
"18 50 LINE SMOOTH",
"12 13 OFFCURVE",
"32 -10 OFFCURVE",
"72 -10 CURVE SMOOTH"
);
},
{
closed = 1;
nodes = (
"232 94 OFFCURVE",
"180 137 OFFCURVE",
"180 212 CURVE SMOOTH",
"180 321 OFFCURVE",
"259 396 OFFCURVE",
"376 396 CURVE SMOOTH",
"460 396 OFFCURVE",
"507 354 OFFCURVE",
"507 281 CURVE SMOOTH",
"507 170 OFFCURVE",
"433 94 OFFCURVE",
"323 94 CURVE SMOOTH"
);
}
);
width = 674;
}
);
leftKerningGroup = b;
note = b;
rightKerningGroup = b;
unicode = 0062;
},
{
glyphname = c;
lastChange = "2018-05-14 08:17:03 +0000";
layers = (
{
anchors = (
{
name = bottom;
position = "{299, 0}";
},
{
name = top;
position = "{299, 470}";
}
);
layerId = "0B1DFD06-3317-40CA-B510-4969A0718C16";
paths = (
{
closed = 1;
nodes = (
"401 -10 OFFCURVE",
"469 16 OFFCURVE",
"528 70 CURVE SMOOTH",
"539 80 OFFCURVE",
"539 95 OFFCURVE",
"527 105 CURVE",
"518 115 OFFCURVE",
"502 113 OFFCURVE",
"490 100 CURVE SMOOTH",
"452 59 OFFCURVE",
"393 38 OFFCURVE",
"316 38 CURVE SMOOTH",
"183 38 OFFCURVE",
"107 113 OFFCURVE",
"107 246 CURVE SMOOTH",
"107 379 OFFCURVE",
"181 452 OFFCURVE",
"316 452 CURVE SMOOTH",
"397 452 OFFCURVE",
"452 432 OFFCURVE",
"490 390 CURVE SMOOTH",
"501 378 OFFCURVE",
"518 375 OFFCURVE",
"527 384 CURVE",
"539 394 OFFCURVE",
"540 408 OFFCURVE",
"530 420 CURVE SMOOTH",
"485 473 OFFCURVE",
"414 500 OFFCURVE",
"316 500 CURVE SMOOTH",
"160 500 OFFCURVE",
"55 398 OFFCURVE",
"55 246 CURVE SMOOTH",
"55 93 OFFCURVE",
"160 -10 OFFCURVE",
"316 -10 CURVE SMOOTH"
);
}
);
width = 590;
},
{
anchors = (
{
name = bottom;
position = "{331, 0}";
},
{
name = top;
position = "{331, 470}";
}
);
layerId = "258BB4CE-589F-454F-8E39-237B943AA0B4";
paths = (
{
closed = 1;
nodes = (
"420 -10 OFFCURVE",
"493 19 OFFCURVE",
"555 84 CURVE SMOOTH",
"577 107 OFFCURVE",
"572 141 OFFCURVE",
"545 163 CURVE SMOOTH",
"519 184 OFFCURVE",
"489 178 OFFCURVE",
"457 147 CURVE SMOOTH",
"419 111 OFFCURVE",
"375 94 OFFCURVE",
"322 94 CURVE SMOOTH",
"227 94 OFFCURVE",
"172 149 OFFCURVE",
"172 246 CURVE SMOOTH",
"172 341 OFFCURVE",
"227 396 OFFCURVE",
"322 396 CURVE SMOOTH",
"370 396 OFFCURVE",
"414 378 OFFCURVE",
"441 348 CURVE SMOOTH",
"464 323 OFFCURVE",
"503 315 OFFCURVE",
"526 332 CURVE SMOOTH",
"556 353 OFFCURVE",
"562 384 OFFCURVE",
"541 410 CURVE SMOOTH",
"497 467 OFFCURVE",
"417 500 OFFCURVE",
"322 500 CURVE SMOOTH",
"144 500 OFFCURVE",
"40 407 OFFCURVE",
"40 246 CURVE SMOOTH",
"40 84 OFFCURVE",
"144 -10 OFFCURVE",
"322 -10 CURVE SMOOTH"
);
}
);
width = 609;
},
{
anchors = (
{
name = bottom;
position = "{308, 0}";
},
{
name = top;
position = "{308, 470}";
}
);
layerId = "8ED59CAD-D047-43C0-8308-3370007B39AA";
paths = (
{
closed = 1;
nodes = (
"404 -10 OFFCURVE",
"472 16 OFFCURVE",
"540 76 CURVE SMOOTH",
"556 90 OFFCURVE",
"554 113 OFFCURVE",
"535 129 CURVE",
"519 143 OFFCURVE",
"497 139 OFFCURVE",
"477 119 CURVE SMOOTH",
"439 81 OFFCURVE",
"382 60 OFFCURVE",
"316 60 CURVE SMOOTH",
"198 60 OFFCURVE",
"129 128 OFFCURVE",
"129 246 CURVE SMOOTH",
"129 364 OFFCURVE",
"196 430 OFFCURVE",
"316 430 CURVE SMOOTH",
"384 430 OFFCURVE",
"436 411 OFFCURVE",
"470 373 CURVE SMOOTH",
"485 356 OFFCURVE",
"511 351 OFFCURVE",
"526 363 CURVE",
"545 377 OFFCURVE",
"548 397 OFFCURVE",
"534 416 CURVE SMOOTH",
"494 470 OFFCURVE",
"417 500 OFFCURVE",
"316 500 CURVE SMOOTH",
"151 500 OFFCURVE",
"45 400 OFFCURVE",
"45 246 CURVE SMOOTH",
"45 90 OFFCURVE",
"151 -10 OFFCURVE",
"316 -10 CURVE SMOOTH"
);
}
);
width = 596;
},
{
anchors = (
{
name = bottom;
position = "{276, 0}";
},
{
name = top;
position = "{372, 470}";
}
);
layerId = "6D0DA379-F071-4911-97B5-1F20F456FBFD";
paths = (
{
closed = 1;
nodes = (
"361 -10 OFFCURVE",
"432 15 OFFCURVE",
"499 70 CURVE SMOOTH",
"513 81 OFFCURVE",
"515 95 OFFCURVE",
"505 105 CURVE SMOOTH",
"495 115 OFFCURVE",
"480 114 OFFCURVE",
"466 101 CURVE SMOOTH",
"420 59 OFFCURVE",
"358 38 OFFCURVE",
"282 38 CURVE SMOOTH",
"166 38 OFFCURVE",
"105 94 OFFCURVE",
"105 200 CURVE SMOOTH",
"105 350 OFFCURVE",
"206 452 OFFCURVE",
"355 452 CURVE SMOOTH",
"442 452 OFFCURVE",
"486 436 OFFCURVE",
"518 392 CURVE SMOOTH",
"527 379 OFFCURVE",
"543 376 OFFCURVE",
"554 385 CURVE SMOOTH",
"567 395 OFFCURVE",
"571 408 OFFCURVE",
"563 420 CURVE SMOOTH",
"527 473 OFFCURVE",
"458 500 OFFCURVE",
"360 500 CURVE SMOOTH",
"176 500 OFFCURVE",
"52 378 OFFCURVE",
"52 198 CURVE SMOOTH",
"52 72 OFFCURVE",
"140 -10 OFFCURVE",
"276 -10 CURVE SMOOTH"
);
}
);
width = 592;
},
{
anchors = (
{
name = bottom;
position = "{273, 0}";
},
{
name = top;
position = "{343, 470}";
}
);
layerId = "71BB0B28-5B77-4945-A3C0-334755DB3BD8";
paths = (
{
closed = 1;
nodes = (
"383 -10 OFFCURVE",
"474 30 OFFCURVE",
"512 73 CURVE SMOOTH",
"530 94 OFFCURVE",
"536 113 OFFCURVE",
"517 129 CURVE SMOOTH",
"496 147 OFFCURVE",
"476 133 OFFCURVE",
"457 119 CURVE SMOOTH",
"410 85 OFFCURVE",
"375 60 OFFCURVE",
"299 60 CURVE SMOOTH",
"187 60 OFFCURVE",
"126 114 OFFCURVE",
"126 213 CURVE SMOOTH",
"126 331 OFFCURVE",
"212 430 OFFCURVE",
"359 430 CURVE SMOOTH",
"456 430 OFFCURVE",
"486 387 OFFCURVE",
"500 373 CURVE SMOOTH",
"517 355 OFFCURVE",
"532 350 OFFCURVE",
"551 363 CURVE SMOOTH",
"573 378 OFFCURVE",
"576 397 OFFCURVE",
"566 416 CURVE SMOOTH",
"546 454 OFFCURVE",
"464 500 OFFCURVE",
"353 500 CURVE SMOOTH",
"168 500 OFFCURVE",
"43 374 OFFCURVE",
"43 213 CURVE SMOOTH",
"43 61 OFFCURVE",
"153 -10 OFFCURVE",
"284 -10 CURVE SMOOTH"
);
}
);
width = 596;
},
{
anchors = (
{
name = bottom;
position = "{282, 0}";
},
{
name = top;
position = "{357, 470}";
}
);
layerId = "D92B54DD-6BE9-4383-803D-42A15BF32189";
paths = (
{
closed = 1;
nodes = (
"399 -10 OFFCURVE",
"493 27 OFFCURVE",
"534 84 CURVE SMOOTH",
"557 117 OFFCURVE",
"557 143 OFFCURVE",
"533 163 CURVE SMOOTH",
"509 183 OFFCURVE",
"486 179 OFFCURVE",
"442 147 CURVE SMOOTH",
"391 109 OFFCURVE",
"350 94 OFFCURVE",
"298 94 CURVE SMOOTH",
"214 94 OFFCURVE",
"171 136 OFFCURVE",
"171 216 CURVE SMOOTH",
"171 322 OFFCURVE",
"246 396 OFFCURVE",
"354 396 CURVE SMOOTH",
"401 396 OFFCURVE",
"435 381 OFFCURVE",
"461 348 CURVE SMOOTH",
"483 321 OFFCURVE",
"512 316 OFFCURVE",
"544 332 CURVE SMOOTH",
"576 349 OFFCURVE",
"587 378 OFFCURVE",
"572 410 CURVE SMOOTH",
"547 463 OFFCURVE",
"457 500 OFFCURVE",
"351 500 CURVE SMOOTH",
"166 500 OFFCURVE",
"37 386 OFFCURVE",
"37 221 CURVE SMOOTH",
"37 79 OFFCURVE",
"136 -10 OFFCURVE",
"296 -10 CURVE SMOOTH"
);
}
);
width = 609;
}
);
leftKerningGroup = c;
note = c;
rightKerningGroup = c;
unicode = 0063;
},
{
glyphname = d;
lastChange = "2018-05-14 08:18:30 +0000";
layers = (
{
anchors = (
{
name = bottom;
position = "{342, 0}";
},
{
name = center;
position = "{342, 235}";
},
{
name = top;
position = "{342, 750}";
},
{
name = topright;
position = "{659, 470}";
}
);
layerId = "0B1DFD06-3317-40CA-B510-4969A0718C16";
paths = (
{
closed = 1;
nodes = (
"420 -10 OFFCURVE",
"500 28 OFFCURVE",
"548 103 CURVE",
"548 22 LINE SMOOTH",
"548 2 OFFCURVE",
"556 -10 OFFCURVE",
"574 -10 CURVE SMOOTH",
"592 -10 OFFCURVE",
"599 2 OFFCURVE",
"599 22 CURVE SMOOTH",
"599 727 LINE SMOOTH",
"599 747 OFFCURVE",
"592 759 OFFCURVE",
"574 759 CURVE SMOOTH",
"556 759 OFFCURVE",
"548 747 OFFCURVE",
"548 727 CURVE",
"547 389 LINE",
"498 452 OFFCURVE",
"432 500 OFFCURVE",
"324 500 CURVE SMOOTH",
"147 500 OFFCURVE",
"55 384 OFFCURVE",
"55 241 CURVE SMOOTH",
"55 86 OFFCURVE",
"153 -10 OFFCURVE",
"322 -10 CURVE SMOOTH"
);
},
{
closed = 1;
nodes = (
"187 38 OFFCURVE",
"107 101 OFFCURVE",
"107 241 CURVE SMOOTH",
"107 364 OFFCURVE",
"183 452 OFFCURVE",
"324 452 CURVE SMOOTH",
"437 452 OFFCURVE",
"548 379 OFFCURVE",
"548 245 CURVE SMOOTH",
"548 118 OFFCURVE",
"464 38 OFFCURVE",
"322 38 CURVE SMOOTH"
);
}
);
width = 684;
},
{
anchors = (
{
name = bottom;
position = "{317, 0}";
},
{
name = center;
position = "{317, 235}";
},
{
name = top;
position = "{317, 750}";
},
{
name = topright;
position = "{634, 470}";
}
);
layerId = "258BB4CE-589F-454F-8E39-237B943AA0B4";
paths = (
{
closed = 1;
nodes = (
"393 -10 OFFCURVE",
"451 20 OFFCURVE",
"493 70 CURVE",
"493 50 LINE SMOOTH",
"493 12 OFFCURVE",
"520 -10 OFFCURVE",
"559 -10 CURVE SMOOTH",
"598 -10 OFFCURVE",
"624 11 OFFCURVE",
"624 50 CURVE SMOOTH",
"624 699 LINE SMOOTH",
"624 738 OFFCURVE",
"598 759 OFFCURVE",
"559 759 CURVE SMOOTH",
"520 759 OFFCURVE",
"493 737 OFFCURVE",
"493 699 CURVE SMOOTH",
"492 422 LINE",
"446 471 OFFCURVE",
"395 500 OFFCURVE",
"310 500 CURVE SMOOTH",
"143 500 OFFCURVE",
"40 402 OFFCURVE",
"40 245 CURVE SMOOTH",
"40 85 OFFCURVE",
"151 -10 OFFCURVE",
"307 -10 CURVE SMOOTH"
);
},
{
closed = 1;
nodes = (
"230 94 OFFCURVE",
"172 150 OFFCURVE",
"172 245 CURVE SMOOTH",
"172 340 OFFCURVE",
"230 396 OFFCURVE",
"327 396 CURVE SMOOTH",
"431 396 OFFCURVE",
"493 340 OFFCURVE",
"493 245 CURVE SMOOTH",
"493 150 OFFCURVE",
"431 94 OFFCURVE",
"327 94 CURVE SMOOTH"
);
}
);
width = 674;
},
{
anchors = (
{
name = bottom;
position = "{328, 0}";
},
{
name = center;
position = "{328, 235}";
},
{
name = top;
position = "{328, 750}";
},
{
name = topright;
position = "{645, 470}";
}
);
layerId = "8ED59CAD-D047-43C0-8308-3370007B39AA";
paths = (
{
closed = 1;
nodes = (
"405 -10 OFFCURVE",
"476 25 OFFCURVE",
"522 90 CURVE",
"522 33 LINE SMOOTH",
"522 6 OFFCURVE",
"538 -10 OFFCURVE",
"564 -10 CURVE SMOOTH",
"590 -10 OFFCURVE",
"605 6 OFFCURVE",
"605 33 CURVE SMOOTH",
"605 716 LINE SMOOTH",
"605 743 OFFCURVE",
"590 759 OFFCURVE",
"564 759 CURVE SMOOTH",
"538 759 OFFCURVE",
"522 743 OFFCURVE",
"522 716 CURVE",
"521 402 LINE",
"473 460 OFFCURVE",
"413 500 OFFCURVE",
"314 500 CURVE SMOOTH",
"141 500 OFFCURVE",
"45 391 OFFCURVE",
"45 243 CURVE SMOOTH",
"45 86 OFFCURVE",
"148 -10 OFFCURVE",
"312 -10 CURVE SMOOTH"
);
},
{
closed = 1;
nodes = (
"200 60 OFFCURVE",
"129 121 OFFCURVE",
"129 243 CURVE SMOOTH",
"129 354 OFFCURVE",
"198 430 OFFCURVE",
"321 430 CURVE SMOOTH",
"431 430 OFFCURVE",
"522 363 OFFCURVE",
"522 245 CURVE SMOOTH",
"522 131 OFFCURVE",
"447 60 OFFCURVE",
"320 60 CURVE SMOOTH"
);
}
);
width = 675;
},
{
anchors = (
{
name = bottom;
position = "{301, 0}";
},
{
name = center;
position = "{342, 235}";
},
{
name = top;
position = "{433, 750}";
},
{
name = topright;
position = "{701, 470}";
}
);
layerId = "6D0DA379-F071-4911-97B5-1F20F456FBFD";
paths = (
{
closed = 1;
nodes = (
"385 -10 OFFCURVE",
"462 25 OFFCURVE",
"525 103 CURVE",
"511 22 LINE SMOOTH",
"508 4 OFFCURVE",
"514 -10 OFFCURVE",
"532 -10 CURVE SMOOTH",
"548 -10 OFFCURVE",
"558 0 OFFCURVE",
"562 22 CURVE SMOOTH",
"686 727 LINE SMOOTH",
"689 745 OFFCURVE",
"685 759 OFFCURVE",
"666 759 CURVE SMOOTH",
"649 759 OFFCURVE",
"639 748 OFFCURVE",
"635 727 CURVE SMOOTH",
"574 379 LINE",
"525 464 OFFCURVE",
"464 500 OFFCURVE",
"370 500 CURVE SMOOTH",
"187 500 OFFCURVE",
"51 364 OFFCURVE",
"51 194 CURVE SMOOTH",
"51 60 OFFCURVE",
"136 -10 OFFCURVE",
"282 -10 CURVE SMOOTH"
);
},
{
closed = 1;
nodes = (
"164 38 OFFCURVE",
"103 87 OFFCURVE",
"103 196 CURVE SMOOTH",
"103 339 OFFCURVE",
"208 452 OFFCURVE",
"358 452 CURVE SMOOTH",
"473 452 OFFCURVE",
"553 386 OFFCURVE",
"553 275 CURVE SMOOTH",
"553 155 OFFCURVE",
"460 38 OFFCURVE",
"280 38 CURVE SMOOTH"
);
}
);
width = 685;
},
{
anchors = (
{
name = bottom;
position = "{286, 0}";
},
{
name = center;
position = "{327, 235}";
},
{
name = top;
position = "{418, 750}";
},
{
name = topright;
position = "{686, 470}";
}
);
layerId = "71BB0B28-5B77-4945-A3C0-334755DB3BD8";
paths = (
{
closed = 1;
nodes = (
"360 -10 OFFCURVE",
"437 24 OFFCURVE",
"496 90 CURVE",
"486 33 LINE SMOOTH",
"482 8 OFFCURVE",
"494 -10 OFFCURVE",
"521 -10 CURVE SMOOTH",
"546 -10 OFFCURVE",
"564 6 OFFCURVE",
"569 33 CURVE SMOOTH",
"689 716 LINE SMOOTH",
"694 742 OFFCURVE",
"681 759 OFFCURVE",
"656 759 CURVE SMOOTH",
"630 759 OFFCURVE",
"611 743 OFFCURVE",
"606 716 CURVE SMOOTH",
"550 402 LINE",
"507 468 OFFCURVE",
"443 500 OFFCURVE",
"355 500 CURVE SMOOTH",
"173 500 OFFCURVE",
"41 365 OFFCURVE",
"41 199 CURVE SMOOTH",
"41 63 OFFCURVE",
"130 -10 OFFCURVE",
"267 -10 CURVE SMOOTH"
);
},
{
closed = 1;
nodes = (
"183 60 OFFCURVE",
"126 106 OFFCURVE",
"126 205 CURVE SMOOTH",
"126 331 OFFCURVE",
"219 430 OFFCURVE",
"357 430 CURVE SMOOTH",
"459 430 OFFCURVE",
"526 375 OFFCURVE",
"526 274 CURVE SMOOTH",
"526 155 OFFCURVE",
"432 60 OFFCURVE",
"285 60 CURVE SMOOTH"
);
}
);
width = 675;
},
{
anchors = (
{
name = bottom;
position = "{276, 0}";
},
{
name = center;
position = "{317, 235}";
},
{
name = top;
position = "{408, 750}";
},
{
name = topright;
position = "{676, 470}";
}
);
layerId = "D92B54DD-6BE9-4383-803D-42A15BF32189";
paths = (
{
closed = 1;
nodes = (
"351 -10 OFFCURVE",
"408 14 OFFCURVE",
"464 70 CURVE",
"461 50 LINE SMOOTH",
"455 13 OFFCURVE",
"477 -10 OFFCURVE",
"517 -10 CURVE SMOOTH",
"560 -10 OFFCURVE",
"586 16 OFFCURVE",
"592 50 CURVE SMOOTH",
"706 699 LINE SMOOTH",
"712 734 OFFCURVE",
"694 759 OFFCURVE",
"652 759 CURVE SMOOTH",
"611 759 OFFCURVE",
"582 736 OFFCURVE",
"575 699 CURVE SMOOTH",
"525 422 LINE",
"485 475 OFFCURVE",
"430 500 OFFCURVE",
"350 500 CURVE SMOOTH",
"166 500 OFFCURVE",
"38 370 OFFCURVE",
"38 208 CURVE SMOOTH",
"38 68 OFFCURVE",
"133 -10 OFFCURVE",
"273 -10 CURVE SMOOTH"
);
},
{
closed = 1;
nodes = (
"218 94 OFFCURVE",
"170 132 OFFCURVE",
"170 214 CURVE SMOOTH",
"170 312 OFFCURVE",
"239 396 OFFCURVE",
"360 396 CURVE SMOOTH",
"446 396 OFFCURVE",
"498 354 OFFCURVE",
"498 272 CURVE SMOOTH",
"498 171 OFFCURVE",
"419 94 OFFCURVE",
"301 94 CURVE SMOOTH"
);
}
);
width = 675;
}
);
leftKerningGroup = d;
note = d;
rightKerningGroup = d;
unicode = 0064;
},
{
glyphname = e;
lastChange = "2018-05-14 08:56:47 +0000";
layers = (
{
anchors = (
{
name = bottom;
position = "{322, 0}";
},
{
name = ogonek;
position = "{350, 10}";
},
{
name = top;
position = "{322, 470}";
}
);
layerId = "0B1DFD06-3317-40CA-B510-4969A0718C16";
paths = (
{
closed = 1;
nodes = (
"418 -9 OFFCURVE",
"496 20 OFFCURVE",
"547 76 CURVE SMOOTH",
"558 88 OFFCURVE",
"556 101 OFFCURVE",
"543 111 CURVE SMOOTH",
"532 119 OFFCURVE",
"523 117 OFFCURVE",
"507 102 CURVE SMOOTH",
"458 57 OFFCURVE",
"404 39 OFFCURVE",
"321 39 CURVE SMOOTH",
"187 39 OFFCURVE",
"109 107 OFFCURVE",
"109 223 CURVE",
"502 223 LINE SMOOTH",
"551 223 OFFCURVE",
"579 254 OFFCURVE",
"579 306 CURVE SMOOTH",
"579 421 OFFCURVE",
"473 500 OFFCURVE",
"320 500 CURVE SMOOTH",
"157 500 OFFCURVE",
"55 404 OFFCURVE",
"55 250 CURVE SMOOTH",
"55 83 OFFCURVE",
"149 -9 OFFCURVE",
"321 -9 CURVE SMOOTH"
);
},
{
closed = 1;
nodes = (
"110 386 OFFCURVE",
"186 452 OFFCURVE",
"320 452 CURVE SMOOTH",
"440 452 OFFCURVE",
"527 391 OFFCURVE",
"527 307 CURVE SMOOTH",
"527 279 OFFCURVE",
"516 268 OFFCURVE",
"488 268 CURVE SMOOTH",
"110 268 LINE"
);
}
);
width = 634;
},
{
anchors = (
{
name = bottom;
position = "{318, 0}";
},
{
name = ogonek;
position = "{370, 10}";
},
{
name = top;
position = "{318, 470}";
}
);
layerId = "258BB4CE-589F-454F-8E39-237B943AA0B4";
paths = (
{
closed = 1;
nodes = (
"408 -9 OFFCURVE",
"485 14 OFFCURVE",
"541 57 CURVE SMOOTH",
"567 77 OFFCURVE",
"568 108 OFFCURVE",
"544 132 CURVE SMOOTH",
"521 155 OFFCURVE",
"501 154 OFFCURVE",
"461 128 CURVE SMOOTH",
"423 104 OFFCURVE",
"378 92 OFFCURVE",
"323 92 CURVE SMOOTH",
"220 92 OFFCURVE",
"167 130 OFFCURVE",
"167 204 CURVE",
"468 204 LINE SMOOTH",
"543 204 OFFCURVE",
"585 240 OFFCURVE",
"585 304 CURVE SMOOTH",
"585 420 OFFCURVE",
"474 500 OFFCURVE",
"313 500 CURVE SMOOTH",
"140 500 OFFCURVE",
"40 405 OFFCURVE",
"40 241 CURVE SMOOTH",
"40 88 OFFCURVE",
"150 -9 OFFCURVE",
"323 -9 CURVE SMOOTH"
);
},
{
closed = 1;
nodes = (
"169 359 OFFCURVE",
"224 399 OFFCURVE",
"313 399 CURVE SMOOTH",
"403 399 OFFCURVE",
"459 370 OFFCURVE",
"459 324 CURVE SMOOTH",
"459 304 OFFCURVE",
"450 296 OFFCURVE",
"428 296 CURVE SMOOTH",
"169 296 LINE"
);
}
);
width = 625;
},
{
anchors = (
{
name = bottom;
position = "{316, 0}";
},
{
name = ogonek;
position = "{354, 10}";
},
{
name = top;
position = "{316, 470}";
}
);
layerId = "8ED59CAD-D047-43C0-8308-3370007B39AA";
paths = (
{
closed = 1;
nodes = (
"418 -9 OFFCURVE",
"489 14 OFFCURVE",
"545 65 CURVE SMOOTH",
"562 80 OFFCURVE",
"561 101 OFFCURVE",
"544 116 CURVE SMOOTH",
"529 130 OFFCURVE",
"516 128 OFFCURVE",
"489 109 CURVE SMOOTH",
"441 75 OFFCURVE",
"392 61 OFFCURVE",
"319 61 CURVE SMOOTH",
"200 61 OFFCURVE",
"129 118 OFFCURVE",
"129 215 CURVE",
"489 215 LINE SMOOTH",
"548 215 OFFCURVE",
"582 247 OFFCURVE",
"582 304 CURVE SMOOTH",
"582 420 OFFCURVE",
"473 500 OFFCURVE",
"315 500 CURVE SMOOTH",
"147 500 OFFCURVE",
"45 404 OFFCURVE",
"45 246 CURVE SMOOTH",
"45 84 OFFCURVE",
"145 -9 OFFCURVE",
"319 -9 CURVE SMOOTH"
);
},
{
closed = 1;
nodes = (
"131 370 OFFCURVE",
"204 430 OFFCURVE",
"315 430 CURVE SMOOTH",
"424 430 OFFCURVE",
"499 382 OFFCURVE",
"499 313 CURVE SMOOTH",
"499 288 OFFCURVE",
"489 279 OFFCURVE",
"463 279 CURVE SMOOTH",
"131 279 LINE"
);
}
);
width = 627;
},
{
anchors = (
{
name = bottom;
position = "{290, 0}";
},
{
name = ogonek;
position = "{302, 10}";
},
{
name = top;
position = "{366, 470}";
}
);
layerId = "6D0DA379-F071-4911-97B5-1F20F456FBFD";
paths = (
{
closed = 1;
nodes = (
"378 -9 OFFCURVE",
"473 25 OFFCURVE",
"519 76 CURVE SMOOTH",
"533 91 OFFCURVE",
"534 103 OFFCURVE",
"522 111 CURVE SMOOTH",
"511 119 OFFCURVE",
"505 118 OFFCURVE",
"484 102 CURVE SMOOTH",
"423 56 OFFCURVE",
"371 39 OFFCURVE",
"292 39 CURVE SMOOTH",
"158 39 OFFCURVE",
"93 103 OFFCURVE",
"107 223 CURVE",
"500 223 LINE SMOOTH",
"556 223 OFFCURVE",
"594 266 OFFCURVE",
"594 329 CURVE SMOOTH",
"594 430 OFFCURVE",
"499 500 OFFCURVE",
"362 500 CURVE SMOOTH",
"178 500 OFFCURVE",
"53 381 OFFCURVE",
"53 206 CURVE SMOOTH",
"53 70 OFFCURVE",
"136 -9 OFFCURVE",
"280 -9 CURVE SMOOTH"
);
},
{
closed = 1;
nodes = (
"137 385 OFFCURVE",
"225 452 OFFCURVE",
"359 452 CURVE SMOOTH",
"473 452 OFFCURVE",
"542 404 OFFCURVE",
"542 325 CURVE SMOOTH",
"542 289 OFFCURVE",
"525 268 OFFCURVE",
"494 268 CURVE SMOOTH",
"116 268 LINE"
);
}
);
width = 634;
},
{
anchors = (
{
name = bottom;
position = "{279, 0}";
},
{
name = ogonek;
position = "{289, 10}";
},
{
name = top;
position = "{350, 470}";
}
);
layerId = "71BB0B28-5B77-4945-A3C0-334755DB3BD8";
paths = (
{
closed = 1;
nodes = (
"379 -9 OFFCURVE",
"468 20 OFFCURVE",
"515 65 CURVE SMOOTH",
"536 85 OFFCURVE",
"538 99 OFFCURVE",
"523 116 CURVE SMOOTH",
"511 129 OFFCURVE",
"498 127 OFFCURVE",
"467 109 CURVE SMOOTH",
"409 75 OFFCURVE",
"358 61 OFFCURVE",
"295 61 CURVE SMOOTH",
"170 61 OFFCURVE",
"109 116 OFFCURVE",
"126 215 CURVE",
"486 215 LINE SMOOTH",
"553 215 OFFCURVE",
"597 259 OFFCURVE",
"597 328 CURVE SMOOTH",
"597 427 OFFCURVE",
"490 500 OFFCURVE",
"346 500 CURVE SMOOTH",
"167 500 OFFCURVE",
"42 377 OFFCURVE",
"42 202 CURVE SMOOTH",
"42 69 OFFCURVE",
"132 -9 OFFCURVE",
"286 -9 CURVE SMOOTH"
);
},
{
closed = 1;
nodes = (
"157 372 OFFCURVE",
"239 430 OFFCURVE",
"354 430 CURVE SMOOTH",
"451 430 OFFCURVE",
"513 386 OFFCURVE",
"513 318 CURVE SMOOTH",
"513 293 OFFCURVE",
"498 279 OFFCURVE",
"471 279 CURVE SMOOTH",
"139 279 LINE"
);
}
);
width = 628;
},
{
anchors = (
{
name = bottom;
position = "{293, 0}";
},
{
name = ogonek;
position = "{303, 10}";
},
{
name = top;
position = "{356, 470}";
}
);
layerId = "D92B54DD-6BE9-4383-803D-42A15BF32189";
paths = (
{
closed = 1;
nodes = (
"369 -9 OFFCURVE",
"461 17 OFFCURVE",
"510 55 CURVE SMOOTH",
"542 80 OFFCURVE",
"547 105 OFFCURVE",
"526 130 CURVE SMOOTH",
"507 153 OFFCURVE",
"492 152 OFFCURVE",
"443 126 CURVE SMOOTH",
"396 102 OFFCURVE",
"356 92 OFFCURVE",
"301 92 CURVE SMOOTH",
"196 92 OFFCURVE",
"153 127 OFFCURVE",
"162 204 CURVE",
"463 204 LINE SMOOTH",
"547 204 OFFCURVE",
"600 251 OFFCURVE",
"600 327 CURVE SMOOTH",
"600 428 OFFCURVE",
"498 500 OFFCURVE",
"354 500 CURVE SMOOTH",
"170 500 OFFCURVE",
"37 379 OFFCURVE",
"37 211 CURVE SMOOTH",
"37 75 OFFCURVE",
"132 -9 OFFCURVE",
"285 -9 CURVE SMOOTH"
);
},
{
closed = 1;
nodes = (
"193 362 OFFCURVE",
"253 399 OFFCURVE",
"347 399 CURVE SMOOTH",
"427 399 OFFCURVE",
"476 373 OFFCURVE",
"476 330 CURVE SMOOTH",
"476 310 OFFCURVE",
"461 296 OFFCURVE",
"439 296 CURVE SMOOTH",
"180 296 LINE"
);
}
);
width = 626;
}
);
leftKerningGroup = c;
note = e;
rightKerningGroup = c;
unicode = 0065;
},
